<svg xmlns="http://www.w3.org/2000/svg" xmlns:xlink="http://www.w3.org/1999/xlink" width="2736" height="1664" version="1.1">
<style type="text/css">
.l0{
  fill: #ffffff;
  stroke: #ffffff;
  stroke-linecap:round;
  stroke-linejoin:round;
  stroke-width: 3.03626;
}
.l1{
  fill: #000000;
  stroke: #000000;
  stroke-linecap:round;
  stroke-linejoin:round;
  stroke-width: 3.03626;
}
.l2{
  fill: #000000; fill-opacity: 0.2;
  stroke: #000000;
  stroke-linecap:round;
  stroke-linejoin:round;
  stroke-width: 3.03626;
}
.l3{
  fill: #000000; fill-opacity: 0.5;
  stroke: #000000;
  stroke-linecap:round;
  stroke-linejoin:round;
  stroke-width: 3.03626;
}
.l4{
  fill: #000000;
  stroke: #000000;
  stroke-linecap:round;
  stroke-linejoin:round;
  stroke-width: 3.03626;
}
.l5{
  fill: #000000;
  stroke: #000000;
  stroke-linecap:round;
  stroke-linejoin:round;
  stroke-width: 3.03626;
}
.l6{
  fill: #000000; fill-opacity: 0.5;
  stroke: #000000;
  stroke-linecap:round;
  stroke-linejoin:round;
  stroke-width: 3.03626;
}
.l7{
  fill: #000000; fill-opacity: 0.5;
  stroke: #000000;
  stroke-linecap:round;
  stroke-linejoin:round;
  stroke-width: 3.03626;
}
.l8{
  fill: #000000; fill-opacity: 0.5;
  stroke: #000000;
  stroke-linecap:round;
  stroke-linejoin:round;
  stroke-width: 3.03626;
}
.l9{
  fill: #000000; fill-opacity: 0.5;
  stroke: #000000;
  stroke-linecap:round;
  stroke-linejoin:round;
  stroke-width: 3.03626;
}
.l10{
  fill: #000000;
  stroke: #000000;
  stroke-linecap:round;
  stroke-linejoin:round;
  stroke-width: 3.03626;
}
.l11{
  fill: #000000; fill-opacity: 0.5;
  stroke: #000000;
  stroke-linecap:round;
  stroke-linejoin:round;
  stroke-width: 3.03626;
}
.l12{
  fill: #000000; fill-opacity: 0.5;
  stroke: #000000;
  stroke-linecap:round;
  stroke-linejoin:round;
  stroke-width: 3.03626;
}
.l13{
  fill: #000000; fill-opacity: 0.5;
  stroke: #000000;
  stroke-linecap:round;
  stroke-linejoin:round;
  stroke-width: 3.03626;
}
.l14{
  fill: #000000; fill-opacity: 0.2;
  stroke: #000000;
  stroke-linecap:round;
  stroke-linejoin:round;
  stroke-width: 3.03626;
}
.l15{
  fill: #000000; fill-opacity: 0.5;
  stroke: #000000;
  stroke-linecap:round;
  stroke-linejoin:round;
  stroke-width: 3.03626;
}
.l16{
  fill: #000000; fill-opacity: 0.5;
  stroke: #000000;
  stroke-linecap:round;
  stroke-linejoin:round;
  stroke-width: 3.03626;
}
.l17{
  fill: #000000; fill-opacity: 0.2;
  stroke: #000000;
  stroke-linecap:round;
  stroke-linejoin:round;
  stroke-width: 3.03626;
}
.l18{
  fill: #000000; fill-opacity: 0.5;
  stroke: #000000;
  stroke-linecap:round;
  stroke-linejoin:round;
  stroke-width: 3.03626;
}
.l19{
  fill: #000000; fill-opacity: 0.2;
  stroke: #000000;
  stroke-linecap:round;
  stroke-linejoin:round;
  stroke-width: 3.03626;
}
.l20{
  fill: #000000; fill-opacity: 0.2;
  stroke: #000000;
  stroke-linecap:round;
  stroke-linejoin:round;
  stroke-width: 3.03626;
}
.l21{
  fill: #000000; fill-opacity: 0.2;
  stroke: #000000;
  stroke-linecap:round;
  stroke-linejoin:round;
  stroke-width: 3.03626;
}
text {font-family: Sans-Serif;}
</style>
<rect class="l0" x="0" y="0" width="2736" height="1664"/>
<path class="l4" d="M940.674 382.447L985.656 382.447"/>
<path class="l4" d="M1345.51 382.447L1390.49 382.447"/>
<path class="l4" d="M1120.6 314.975L1120.6 427.429"/>
<path class="l4" d="M1120.6 314.975L1210.56 382.447"/>
<path class="l4" d="M1120.6 449.92L1210.56 382.447"/>
<path class="l4" d="M1120.6 427.429L1120.6 449.92"/>
<path class="l4" d="M1075.62 382.447L1120.6 382.447"/>
<path class="l4" d="M1210.56 382.447L1255.55 382.447"/>
<path class="l4" d="M1030.64 494.902L1053.13 494.902"/>
<path class="l4" d="M1053.13 494.902L1075.62 449.92"/>
<path class="l4" d="M1075.62 449.92L1098.11 449.92"/>
<path class="l4" d="M1233.05 494.902L1255.55 494.902"/>
<path class="l4" d="M1255.55 494.902L1278.04 404.938"/>
<path class="l4" d="M1278.04 404.938L1300.53 404.938"/>
<path class="l4" style="fill:none;" d="M1345.51 247.502L985.656 247.502L985.656 517.392L1345.51 517.392L1345.51 247.502"/>
<path class="l4" d="M1570.42 652.338L1615.4 652.338"/>
<path class="l4" d="M1975.25 652.338L2020.23 652.338"/>
<path class="l4" d="M1750.34 584.865L1750.34 697.319"/>
<path class="l4" d="M1750.34 584.865L1840.31 652.338"/>
<path class="l4" d="M1750.34 719.81L1840.31 652.338"/>
<path class="l4" d="M1750.34 697.319L1750.34 719.81"/>
<path class="l4" d="M1705.36 652.338L1750.34 652.338"/>
<path class="l4" d="M1840.31 652.338L1885.29 652.338"/>
<path class="l4" d="M1660.38 764.792L1682.87 764.792"/>
<path class="l4" d="M1682.87 764.792L1705.36 719.81"/>
<path class="l4" d="M1705.36 719.81L1727.85 719.81"/>
<path class="l4" d="M1862.8 764.792L1885.29 764.792"/>
<path class="l4" d="M1885.29 764.792L1907.78 674.828"/>
<path class="l4" d="M1907.78 674.828L1930.27 674.828"/>
<path class="l4" style="fill:none;" d="M1975.25 517.392L1615.4 517.392L1615.4 787.283L1975.25 787.283L1975.25 517.392"/>
<path class="l4" d="M940.674 922.228L985.656 922.228"/>
<path class="l4" d="M1345.51 922.228L1390.49 922.228"/>
<path class="l4" d="M1120.6 854.755L1120.6 967.209"/>
<path class="l4" d="M1120.6 854.755L1210.56 922.228"/>
<path class="l4" d="M1120.6 989.7L1210.56 922.228"/>
<path class="l4" d="M1120.6 967.209L1120.6 989.7"/>
<path class="l4" d="M1075.62 922.228L1120.6 922.228"/>
<path class="l4" d="M1210.56 922.228L1255.55 922.228"/>
<path class="l4" d="M1030.64 1034.68L1053.13 1034.68"/>
<path class="l4" d="M1053.13 1034.68L1075.62 989.7"/>
<path class="l4" d="M1075.62 989.7L1098.11 989.7"/>
<path class="l4" d="M1233.05 1034.68L1255.55 1034.68"/>
<path class="l4" d="M1255.55 1034.68L1278.04 944.719"/>
<path class="l4" d="M1278.04 944.719L1300.53 944.719"/>
<path class="l4" style="fill:none;" d="M1345.51 787.283L985.656 787.283L985.656 1057.17L1345.51 1057.17L1345.51 787.283"/>
<path class="l4" d="M1570.42 1192.12L1615.4 1192.12"/>
<path class="l4" d="M1975.25 1192.12L2020.23 1192.12"/>
<path class="l4" d="M1750.34 1124.65L1750.34 1237.1"/>
<path class="l4" d="M1750.34 1124.65L1840.31 1192.12"/>
<path class="l4" d="M1750.34 1259.59L1840.31 1192.12"/>
<path class="l4" d="M1750.34 1237.1L1750.34 1259.59"/>
<path class="l4" d="M1705.36 1192.12L1750.34 1192.12"/>
<path class="l4" d="M1840.31 1192.12L1885.29 1192.12"/>
<path class="l4" d="M1660.38 1304.57L1682.87 1304.57"/>
<path class="l4" d="M1682.87 1304.57L1705.36 1259.59"/>
<path class="l4" d="M1705.36 1259.59L1727.85 1259.59"/>
<path class="l4" d="M1862.8 1304.57L1885.29 1304.57"/>
<path class="l4" d="M1885.29 1304.57L1907.78 1214.61"/>
<path class="l4" d="M1907.78 1214.61L1930.27 1214.61"/>
<path class="l4" style="fill:none;" d="M1975.25 1057.17L1615.4 1057.17L1615.4 1327.06L1975.25 1327.06L1975.25 1057.17"/>
<path class="l5" d="M1384.87 286.861L1396.11 286.861L1396.11 298.107L1384.87 298.107L1384.87 286.861z"/>
<path class="l5" d="M935.051 286.861L946.297 286.861L946.297 298.107L935.051 298.107L935.051 286.861z"/>
<path class="l5" d="M935.051 376.825L946.297 376.825L946.297 388.07L935.051 388.07L935.051 376.825z"/>
<path class="l5" d="M1384.87 376.825L1396.11 376.825L1396.11 388.07L1384.87 388.07L1384.87 376.825z"/>
<path class="l5" d="M1159.96 556.751L1171.21 556.751L1171.21 567.997L1159.96 567.997L1159.96 556.751z"/>
<path class="l5" d="M2014.61 556.751L2025.86 556.751L2025.86 567.997L2014.61 567.997L2014.61 556.751z"/>
<path class="l5" d="M1564.79 556.751L1576.04 556.751L1576.04 567.997L1564.79 567.997L1564.79 556.751z"/>
<path class="l5" d="M1564.79 646.715L1576.04 646.715L1576.04 657.96L1564.79 657.96L1564.79 646.715z"/>
<path class="l5" d="M2014.61 646.715L2025.86 646.715L2025.86 657.96L2014.61 657.96L2014.61 646.715z"/>
<path class="l5" d="M1789.7 826.642L1800.95 826.642L1800.95 837.887L1789.7 837.887L1789.7 826.642z"/>
<path class="l5" d="M1384.87 826.642L1396.11 826.642L1396.11 837.887L1384.87 837.887L1384.87 826.642z"/>
<path class="l5" d="M935.051 826.642L946.297 826.642L946.297 837.887L935.051 837.887L935.051 826.642z"/>
<path class="l5" d="M935.051 916.605L946.297 916.605L946.297 927.85L935.051 927.85L935.051 916.605z"/>
<path class="l5" d="M1384.87 916.605L1396.11 916.605L1396.11 927.85L1384.87 927.85L1384.87 916.605z"/>
<path class="l5" d="M1159.96 1096.53L1171.21 1096.53L1171.21 1107.78L1159.96 1107.78L1159.96 1096.53z"/>
<path class="l5" d="M2014.61 1096.53L2025.86 1096.53L2025.86 1107.78L2014.61 1107.78L2014.61 1096.53z"/>
<path class="l5" d="M1564.79 1096.53L1576.04 1096.53L1576.04 1107.78L1564.79 1107.78L1564.79 1096.53z"/>
<path class="l5" d="M1564.79 1186.5L1576.04 1186.5L1576.04 1197.74L1564.79 1197.74L1564.79 1186.5z"/>
<path class="l5" d="M2014.61 1186.5L2025.86 1186.5L2025.86 1197.74L2014.61 1197.74L2014.61 1186.5z"/>
<path class="l5" d="M1789.7 1366.42L1800.95 1366.42L1800.95 1377.67L1789.7 1377.67L1789.7 1366.42z"/>
<path class="l5" d="M821.191 67.5755L828.22 67.5755"/>
<path class="l5" d="M797.295 56.3301L788.861 67.5755L797.295 78.8209L812.757 78.8209L821.191 67.5755L812.757 56.3301L797.295 56.3301"/>
<path class="l5" d="M825.408 64.7641L831.031 64.7641L831.031 70.3868L825.408 70.3868L825.408 64.7641z"/>
<path class="l5" d="M821.191 157.539L828.22 157.539"/>
<path class="l5" d="M797.295 146.293L788.861 157.539L797.295 168.784L812.757 168.784L821.191 157.539L812.757 146.293L797.295 146.293"/>
<path class="l5" d="M825.408 154.728L831.031 154.728L831.031 160.35L825.408 160.35L825.408 154.728z"/>
<path class="l5" d="M821.191 1417.03L828.22 1417.03"/>
<path class="l5" d="M797.295 1405.78L788.861 1417.03L797.295 1428.27L812.757 1428.27L821.191 1417.03L812.757 1405.78L797.295 1405.78"/>
<path class="l5" d="M825.408 1414.21L831.031 1414.21L831.031 1419.84L825.408 1419.84L825.408 1414.21z"/>
<path class="l5" d="M816.974 382.447L828.22 382.447"/>
<path class="l5" d="M816.974 382.447L808.54 371.202L788.861 371.202L797.295 382.447L788.861 393.693L808.54 393.693L816.974 382.447"/>
<path class="l5" d="M825.408 379.636L831.031 379.636L831.031 385.259L825.408 385.259L825.408 379.636z"/>
<path class="l5" d="M816.974 652.338L828.22 652.338"/>
<path class="l5" d="M816.974 652.338L808.54 641.092L788.861 641.092L797.295 652.338L788.861 663.583L808.54 663.583L816.974 652.338"/>
<path class="l5" d="M825.408 649.526L831.031 649.526L831.031 655.149L825.408 655.149L825.408 649.526z"/>
<path class="l5" d="M816.974 922.228L828.22 922.228"/>
<path class="l5" d="M816.974 922.228L808.54 910.982L788.861 910.982L797.295 922.228L788.861 933.473L808.54 933.473L816.974 922.228"/>
<path class="l5" d="M825.408 919.416L831.031 919.416L831.031 925.039L825.408 925.039L825.408 919.416z"/>
<path class="l5" d="M816.974 1192.12L828.22 1192.12"/>
<path class="l5" d="M816.974 1192.12L808.54 1180.87L788.861 1180.87L797.295 1192.12L788.861 1203.36L808.54 1203.36L816.974 1192.12"/>
<path class="l5" d="M825.408 1189.31L831.031 1189.31L831.031 1194.93L825.408 1194.93L825.408 1189.31z"/>
<path class="l5" d="M2110.2 382.447L2129.88 382.447"/>
<path class="l5" d="M2149.56 382.447L2141.12 371.202L2121.44 371.202L2129.88 382.447L2121.44 393.693L2141.12 393.693L2149.56 382.447"/>
<path class="l5" d="M2107.39 379.636L2113.01 379.636L2113.01 385.259L2107.39 385.259L2107.39 379.636z"/>
<path class="l5" d="M2110.2 652.338L2129.88 652.338"/>
<path class="l5" d="M2149.56 652.338L2141.12 641.092L2121.44 641.092L2129.88 652.338L2121.44 663.583L2141.12 663.583L2149.56 652.338"/>
<path class="l5" d="M2107.39 649.526L2113.01 649.526L2113.01 655.149L2107.39 655.149L2107.39 649.526z"/>
<path class="l5" d="M2110.2 922.228L2129.88 922.228"/>
<path class="l5" d="M2149.56 922.228L2141.12 910.982L2121.44 910.982L2129.88 922.228L2121.44 933.473L2141.12 933.473L2149.56 922.228"/>
<path class="l5" d="M2107.39 919.416L2113.01 919.416L2113.01 925.039L2107.39 925.039L2107.39 919.416z"/>
<path class="l5" d="M2110.2 1192.12L2129.88 1192.12"/>
<path class="l5" d="M2149.56 1192.12L2141.12 1180.87L2121.44 1180.87L2129.88 1192.12L2121.44 1203.36L2141.12 1203.36L2149.56 1192.12"/>
<path class="l5" d="M2107.39 1189.31L2113.01 1189.31L2113.01 1194.93L2107.39 1194.93L2107.39 1189.31z"/>
<path class="l5" d="M378.403 1518.24L377.7 1518.94L376.997 1519.64L376.294 1520.34L375.591 1521.05L374.889 1521.75L374.186 1522.45L373.483 1523.16L372.78 1523.86L372.077 1524.56L371.374 1525.26L370.671 1525.97L369.969 1526.67L369.266 1527.37L368.563 1528.07L367.86 1528.78L367.157 1529.48L366.454 1530.18L365.752 1530.89L365.049 1531.59L364.346 1532.29L363.643 1532.99L362.94 1533.7L362.237 1534.4L361.535 1535.1L360.832 1535.81L360.129 1536.51L359.426 1537.21L358.723 1537.91L358.02 1538.62L357.318 1539.32L356.615 1540.02L355.912 1540.73L355.912 1540.73L355.231 1541.43L354.594 1542.13L354.001 1542.83L353.452 1543.54L352.947 1544.24L352.486 1544.94L352.068 1545.65L351.695 1546.35L351.365 1547.05L351.08 1547.75L350.838 1548.46L350.641 1549.16L350.487 1549.86L350.377 1550.57L350.311 1551.27L350.289 1551.97L350.311 1552.67L350.377 1553.38L350.487 1554.08L350.641 1554.78L350.838 1555.49L351.08 1556.19L351.365 1556.89L351.695 1557.59L352.068 1558.3L352.486 1559L352.947 1559.7L353.452 1560.41L354.001 1561.11L354.594 1561.81L355.231 1562.51L355.912 1563.22L355.912 1563.22L356.617 1563.92L357.329 1564.63L358.045 1565.35L358.767 1566.07L359.495 1566.8L360.228 1567.53L360.966 1568.27L361.71 1569.02L362.46 1569.76L363.215 1570.52L363.975 1571.28L364.741 1572.05L365.513 1572.82L366.29 1573.59L367.072 1574.38L367.86 1575.17L368.654 1575.96L369.452 1576.76L370.257 1577.56L371.067 1578.37L371.882 1579.19L372.703 1580.01L373.53 1580.83L374.361 1581.67L375.199 1582.5L376.042 1583.35L376.89 1584.19L377.744 1585.05L378.603 1585.91L379.468 1586.77L380.338 1587.64L381.214 1588.52L381.214 1588.52L382.087 1589.39L382.949 1590.25L383.8 1591.11L384.64 1591.95L385.47 1592.77L386.288 1593.59L387.095 1594.4L387.891 1595.2L388.676 1595.98L389.45 1596.76L390.214 1597.52L390.966 1598.27L391.707 1599.01L392.438 1599.74L393.157 1600.46L393.865 1601.17L394.563 1601.87L395.249 1602.55L395.924 1603.23L396.589 1603.89L397.242 1604.55L397.885 1605.19L398.516 1605.82L399.136 1606.44L399.746 1607.05L400.344 1607.65L400.932 1608.24L401.509 1608.81L402.074 1609.38L402.629 1609.93L403.172 1610.48L403.705 1611.01L403.705 1611.01L404.216 1611.53L404.693 1612.03L405.138 1612.52L405.55 1612.99L405.929 1613.44L406.275 1613.88L406.588 1614.3L406.868 1614.7L407.115 1615.09L407.329 1615.46L407.51 1615.81L407.658 1616.15L407.774 1616.47L407.856 1616.78L407.905 1617.06L407.922 1617.34L407.905 1617.59L407.856 1617.83L407.774 1618.05L407.658 1618.26L407.51 1618.45L407.329 1618.62L407.115 1618.78L406.868 1618.92L406.588 1619.04L406.275 1619.15L405.929 1619.24L405.55 1619.31L405.138 1619.37L404.693 1619.41L404.216 1619.44L403.705 1619.44L403.705 1619.44L403.178 1619.44L402.651 1619.44L402.124 1619.44L401.596 1619.44L401.069 1619.44L400.542 1619.44L400.015 1619.44L399.488 1619.44L398.961 1619.44L398.434 1619.44L397.906 1619.44L397.379 1619.44L396.852 1619.44L396.325 1619.44L395.798 1619.44L395.271 1619.44L394.744 1619.44L394.217 1619.44L393.689 1619.44L393.162 1619.44L392.635 1619.44L392.108 1619.44L391.581 1619.44L391.054 1619.44L390.527 1619.44L390 1619.44L389.472 1619.44L388.945 1619.44L388.418 1619.44L387.891 1619.44L387.364 1619.44L386.837 1619.44L386.837 1619.44L386.312 1619.44L385.794 1619.44L385.28 1619.44L384.772 1619.44L384.27 1619.44L383.773 1619.44L383.281 1619.44L382.795 1619.44L382.315 1619.44L381.84 1619.44L381.371 1619.44L380.907 1619.44L380.448 1619.44L379.995 1619.44L379.548 1619.44L379.106 1619.44L378.669 1619.44L378.238 1619.44L377.812 1619.44L377.392 1619.44L376.978 1619.44L376.569 1619.44L376.165 1619.44L375.767 1619.44L375.374 1619.44L374.987 1619.44L374.606 1619.44L374.23 1619.44L373.859 1619.44L373.494 1619.44L373.134 1619.44L372.78 1619.44L372.78 1619.44L372.429 1619.44L372.077 1619.42L371.726 1619.39L371.374 1619.36L371.023 1619.31L370.671 1619.25L370.32 1619.17L369.969 1619.09L369.617 1619L369.266 1618.89L368.914 1618.78L368.563 1618.65L368.212 1618.52L367.86 1618.37L367.509 1618.21L367.157 1618.04L366.806 1617.86L366.454 1617.66L366.103 1617.46L365.752 1617.25L365.4 1617.02L365.049 1616.79L364.697 1616.54L364.346 1616.28L363.995 1616.01L363.643 1615.73L363.292 1615.44L362.94 1615.14L362.589 1614.83L362.237 1614.5L361.886 1614.17L361.535 1613.82L361.535 1613.82L361.183 1613.47L360.832 1613.12L360.48 1612.77L360.129 1612.42L359.777 1612.06L359.426 1611.71L359.075 1611.36L358.723 1611.01L358.372 1610.66L358.02 1610.31L357.669 1609.96L357.318 1609.6L356.966 1609.25L356.615 1608.9L356.263 1608.55L355.912 1608.2L355.56 1607.85L355.209 1607.5L354.858 1607.14L354.506 1606.79L354.155 1606.44L353.803 1606.09L353.452 1605.74L353.101 1605.39L352.749 1605.04L352.398 1604.68L352.046 1604.33L351.695 1603.98L351.343 1603.63L350.992 1603.28L350.641 1602.93L350.289 1602.58L350.289 1602.58L349.932 1602.22L349.564 1601.85L349.185 1601.47L348.796 1601.08L348.395 1600.68L347.983 1600.27L347.56 1599.85L347.126 1599.41L346.682 1598.97L346.226 1598.51L345.759 1598.05L345.281 1597.57L344.793 1597.08L344.293 1596.58L343.782 1596.07L343.261 1595.55L342.728 1595.01L342.185 1594.47L341.63 1593.92L341.064 1593.35L340.488 1592.77L339.9 1592.19L339.302 1591.59L338.692 1590.98L338.072 1590.36L337.44 1589.73L336.798 1589.08L336.145 1588.43L335.48 1587.77L334.805 1587.09L334.118 1586.41L333.421 1585.71L333.421 1585.71L332.718 1585.03L332.015 1584.39L331.312 1583.8L330.61 1583.25L329.907 1582.74L329.204 1582.28L328.501 1581.86L327.798 1581.49L327.095 1581.16L326.393 1580.88L325.69 1580.63L324.987 1580.44L324.284 1580.28L323.581 1580.17L322.878 1580.11L322.176 1580.08L321.473 1580.11L320.77 1580.17L320.067 1580.28L319.364 1580.44L318.661 1580.63L317.959 1580.88L317.256 1581.16L316.553 1581.49L315.85 1581.86L315.147 1582.28L314.444 1582.74L313.742 1583.25L313.039 1583.8L312.336 1584.39L311.633 1585.03L310.93 1585.71L310.93 1585.71L310.233 1586.41L309.546 1587.09L308.871 1587.77L308.207 1588.43L307.553 1589.08L306.911 1589.73L306.279 1590.36L305.659 1590.98L305.049 1591.59L304.451 1592.19L303.863 1592.77L303.287 1593.35L302.721 1593.92L302.167 1594.47L301.623 1595.01L301.09 1595.55L300.569 1596.07L300.058 1596.58L299.558 1597.08L299.07 1597.57L298.592 1598.05L298.125 1598.51L297.67 1598.97L297.225 1599.41L296.791 1599.85L296.368 1600.27L295.956 1600.68L295.556 1601.08L295.166 1601.47L294.787 1601.85L294.419 1602.22L294.062 1602.58L294.062 1602.58L293.711 1602.93L293.359 1603.28L293.008 1603.63L292.656 1603.98L292.305 1604.33L291.954 1604.68L291.602 1605.04L291.251 1605.39L290.899 1605.74L290.548 1606.09L290.196 1606.44L289.845 1606.79L289.494 1607.14L289.142 1607.5L288.791 1607.85L288.439 1608.2L288.088 1608.55L287.736 1608.9L287.385 1609.25L287.034 1609.6L286.682 1609.96L286.331 1610.31L285.979 1610.66L285.628 1611.01L285.277 1611.36L284.925 1611.71L284.574 1612.06L284.222 1612.42L283.871 1612.77L283.519 1613.12L283.168 1613.47L282.817 1613.82L282.817 1613.82L282.465 1614.17L282.114 1614.5L281.762 1614.83L281.411 1615.14L281.06 1615.44L280.708 1615.73L280.357 1616.01L280.005 1616.28L279.654 1616.54L279.302 1616.79L278.951 1617.02L278.6 1617.25L278.248 1617.46L277.897 1617.66L277.545 1617.86L277.194 1618.04L276.842 1618.21L276.491 1618.37L276.14 1618.52L275.788 1618.65L275.437 1618.78L275.085 1618.89L274.734 1619L274.383 1619.09L274.031 1619.17L273.68 1619.25L273.328 1619.31L272.977 1619.36L272.625 1619.39L272.274 1619.42L271.923 1619.44L271.571 1619.44L271.571 1619.44L271.217 1619.44L270.857 1619.44L270.492 1619.44L270.122 1619.44L269.745 1619.44L269.364 1619.44L268.977 1619.44L268.584 1619.44L268.186 1619.44L267.782 1619.44L267.373 1619.44L266.959 1619.44L266.539 1619.44L266.113 1619.44L265.682 1619.44L265.246 1619.44L264.804 1619.44L264.356 1619.44L263.903 1619.44L263.445 1619.44L262.981 1619.44L262.511 1619.44L262.036 1619.44L261.556 1619.44L261.07 1619.44L260.578 1619.44L260.081 1619.44L259.579 1619.44L259.071 1619.44L258.558 1619.44L258.039 1619.44L257.514 1619.44L257.514 1619.44L256.987 1619.44L256.46 1619.44L255.933 1619.44L255.406 1619.44L254.879 1619.44L254.352 1619.44L253.825 1619.44L253.297 1619.44L252.77 1619.44L252.243 1619.44L251.716 1619.44L251.189 1619.44L250.662 1619.44L250.135 1619.44L249.607 1619.44L249.08 1619.44L248.553 1619.44L248.026 1619.44L247.499 1619.44L246.972 1619.44L246.445 1619.44L245.918 1619.44L245.39 1619.44L244.863 1619.44L244.336 1619.44L243.809 1619.44L243.282 1619.44L242.755 1619.44L242.228 1619.44L241.701 1619.44L241.173 1619.44L240.646 1619.44L240.646 1619.44L240.136 1619.44L239.658 1619.41L239.213 1619.37L238.801 1619.31L238.422 1619.24L238.077 1619.15L237.764 1619.04L237.483 1618.92L237.236 1618.78L237.022 1618.62L236.841 1618.45L236.693 1618.26L236.577 1618.05L236.495 1617.83L236.446 1617.59L236.429 1617.34L236.446 1617.06L236.495 1616.78L236.577 1616.47L236.693 1616.15L236.841 1615.81L237.022 1615.46L237.236 1615.09L237.483 1614.7L237.764 1614.3L238.077 1613.88L238.422 1613.44L238.801 1612.99L239.213 1612.52L239.658 1612.03L240.136 1611.53L240.646 1611.01L240.646 1611.01L241.179 1610.48L241.722 1609.93L242.277 1609.38L242.843 1608.81L243.419 1608.24L244.007 1607.65L244.605 1607.05L245.215 1606.44L245.835 1605.82L246.467 1605.19L247.109 1604.55L247.763 1603.89L248.427 1603.23L249.102 1602.55L249.789 1601.87L250.486 1601.17L251.194 1600.46L251.914 1599.74L252.644 1599.01L253.385 1598.27L254.137 1597.52L254.901 1596.76L255.675 1595.98L256.46 1595.2L257.256 1594.4L258.063 1593.59L258.882 1592.77L259.711 1591.95L260.551 1591.11L261.402 1590.25L262.264 1589.39L263.137 1588.52L263.137 1588.52L264.013 1587.64L264.883 1586.77L265.748 1585.91L266.607 1585.05L267.461 1584.19L268.31 1583.35L269.152 1582.5L269.99 1581.67L270.822 1580.83L271.648 1580.01L272.469 1579.19L273.284 1578.37L274.094 1577.56L274.899 1576.76L275.698 1575.96L276.491 1575.17L277.279 1574.38L278.061 1573.59L278.838 1572.82L279.61 1572.05L280.376 1571.28L281.136 1570.52L281.891 1569.76L282.641 1569.02L283.385 1568.27L284.123 1567.53L284.856 1566.8L285.584 1566.07L286.306 1565.35L287.023 1564.63L287.734 1563.92L288.439 1563.22L288.439 1563.22L289.12 1562.51L289.757 1561.81L290.35 1561.11L290.899 1560.41L291.404 1559.7L291.866 1559L292.283 1558.3L292.656 1557.59L292.986 1556.89L293.271 1556.19L293.513 1555.49L293.711 1554.78L293.864 1554.08L293.974 1553.38L294.04 1552.67L294.062 1551.97L294.04 1551.27L293.974 1550.57L293.864 1549.86L293.711 1549.16L293.513 1548.46L293.271 1547.75L292.986 1547.05L292.656 1546.35L292.283 1545.65L291.866 1544.94L291.404 1544.24L290.899 1543.54L290.35 1542.83L289.757 1542.13L289.12 1541.43L288.439 1540.73L288.439 1540.73L287.734 1540.02L287.023 1539.31L286.306 1538.59L285.584 1537.87L284.856 1537.14L284.123 1536.41L283.385 1535.67L282.641 1534.93L281.891 1534.18L281.136 1533.42L280.376 1532.66L279.61 1531.9L278.838 1531.13L278.061 1530.35L277.279 1529.57L276.491 1528.78L275.698 1527.98L274.899 1527.19L274.094 1526.38L273.284 1525.57L272.469 1524.76L271.648 1523.93L270.822 1523.11L269.99 1522.28L269.152 1521.44L268.31 1520.6L267.461 1519.75L266.607 1518.89L265.748 1518.03L264.883 1517.17L264.013 1516.3L263.137 1515.42L263.137 1515.42L262.264 1514.55L261.402 1513.69L260.551 1512.84L259.711 1512L258.882 1511.17L258.063 1510.35L257.256 1509.54L256.46 1508.75L255.675 1507.96L254.901 1507.19L254.137 1506.42L253.385 1505.67L252.644 1504.93L251.914 1504.2L251.194 1503.48L250.486 1502.77L249.789 1502.08L249.102 1501.39L248.427 1500.71L247.763 1500.05L247.109 1499.4L246.467 1498.75L245.835 1498.12L245.215 1497.5L244.605 1496.89L244.007 1496.29L243.419 1495.71L242.843 1495.13L242.277 1494.56L241.722 1494.01L241.179 1493.47L240.646 1492.93L240.646 1492.93L240.136 1492.41L239.658 1491.91L239.213 1491.43L238.801 1490.96L238.422 1490.5L238.077 1490.07L237.764 1489.65L237.483 1489.24L237.236 1488.86L237.022 1488.49L236.841 1488.13L236.693 1487.79L236.577 1487.47L236.495 1487.17L236.446 1486.88L236.429 1486.61L236.446 1486.35L236.495 1486.11L236.577 1485.89L236.693 1485.68L236.841 1485.5L237.022 1485.32L237.236 1485.17L237.483 1485.03L237.764 1484.9L238.077 1484.8L238.422 1484.7L238.801 1484.63L239.213 1484.57L239.658 1484.53L240.136 1484.51L240.646 1484.5L240.646 1484.5L241.173 1484.5L241.701 1484.5L242.228 1484.5L242.755 1484.5L243.282 1484.5L243.809 1484.5L244.336 1484.5L244.863 1484.5L245.39 1484.5L245.918 1484.5L246.445 1484.5L246.972 1484.5L247.499 1484.5L248.026 1484.5L248.553 1484.5L249.08 1484.5L249.607 1484.5L250.135 1484.5L250.662 1484.5L251.189 1484.5L251.716 1484.5L252.243 1484.5L252.77 1484.5L253.297 1484.5L253.825 1484.5L254.352 1484.5L254.879 1484.5L255.406 1484.5L255.933 1484.5L256.46 1484.5L256.987 1484.5L257.514 1484.5L257.514 1484.5L258.039 1484.5L258.558 1484.5L259.071 1484.5L259.579 1484.5L260.081 1484.5L260.578 1484.5L261.07 1484.5L261.556 1484.5L262.036 1484.5L262.511 1484.5L262.981 1484.5L263.445 1484.5L263.903 1484.5L264.356 1484.5L264.804 1484.5L265.246 1484.5L265.682 1484.5L266.113 1484.5L266.539 1484.5L266.959 1484.5L267.373 1484.5L267.782 1484.5L268.186 1484.5L268.584 1484.5L268.977 1484.5L269.364 1484.5L269.745 1484.5L270.122 1484.5L270.492 1484.5L270.857 1484.5L271.217 1484.5L271.571 1484.5L271.571 1484.5L271.923 1484.5L272.274 1484.52L272.625 1484.55L272.977 1484.59L273.328 1484.64L273.68 1484.7L274.031 1484.77L274.383 1484.85L274.734 1484.94L275.085 1485.05L275.437 1485.16L275.788 1485.29L276.14 1485.43L276.491 1485.58L276.842 1485.73L277.194 1485.9L277.545 1486.09L277.897 1486.28L278.248 1486.48L278.6 1486.7L278.951 1486.92L279.302 1487.16L279.654 1487.4L280.005 1487.66L280.357 1487.93L280.708 1488.21L281.06 1488.5L281.411 1488.8L281.762 1489.12L282.114 1489.44L282.465 1489.78L282.817 1490.12L282.817 1490.12L283.168 1490.47L283.519 1490.82L283.871 1491.18L284.222 1491.53L284.574 1491.88L284.925 1492.23L285.277 1492.58L285.628 1492.93L285.979 1493.28L286.331 1493.64L286.682 1493.99L287.034 1494.34L287.385 1494.69L287.736 1495.04L288.088 1495.39L288.439 1495.74L288.791 1496.1L289.142 1496.45L289.494 1496.8L289.845 1497.15L290.196 1497.5L290.548 1497.85L290.899 1498.2L291.251 1498.56L291.602 1498.91L291.954 1499.26L292.305 1499.61L292.656 1499.96L293.008 1500.31L293.359 1500.66L293.711 1501.02L294.062 1501.37L294.062 1501.37L294.419 1501.72L294.787 1502.09L295.166 1502.47L295.556 1502.86L295.956 1503.26L296.368 1503.67L296.791 1504.1L297.225 1504.53L297.67 1504.97L298.125 1505.43L298.592 1505.9L299.07 1506.37L299.558 1506.86L300.058 1507.36L300.569 1507.87L301.09 1508.4L301.623 1508.93L302.167 1509.47L302.721 1510.03L303.287 1510.59L303.863 1511.17L304.451 1511.76L305.049 1512.35L305.659 1512.96L306.279 1513.58L306.911 1514.22L307.553 1514.86L308.207 1515.51L308.871 1516.18L309.546 1516.85L310.233 1517.54L310.93 1518.24L310.93 1518.24L311.633 1518.92L312.336 1519.55L313.039 1520.15L313.742 1520.7L314.444 1521.2L315.147 1521.66L315.85 1522.08L316.553 1522.45L317.256 1522.78L317.959 1523.07L318.661 1523.31L319.364 1523.51L320.067 1523.66L320.77 1523.77L321.473 1523.84L322.176 1523.86L322.878 1523.84L323.581 1523.77L324.284 1523.66L324.987 1523.51L325.69 1523.31L326.393 1523.07L327.095 1522.78L327.798 1522.45L328.501 1522.08L329.204 1521.66L329.907 1521.2L330.61 1520.7L331.312 1520.15L332.015 1519.55L332.718 1518.92L333.421 1518.24L333.421 1518.24L334.118 1517.54L334.805 1516.85L335.48 1516.18L336.145 1515.51L336.798 1514.86L337.44 1514.22L338.072 1513.58L338.692 1512.96L339.302 1512.35L339.9 1511.76L340.488 1511.17L341.064 1510.59L341.63 1510.03L342.185 1509.47L342.728 1508.93L343.261 1508.4L343.782 1507.87L344.293 1507.36L344.793 1506.86L345.281 1506.37L345.759 1505.9L346.226 1505.43L346.682 1504.97L347.126 1504.53L347.56 1504.1L347.983 1503.67L348.395 1503.26L348.796 1502.86L349.185 1502.47L349.564 1502.09L349.932 1501.72L350.289 1501.37L350.289 1501.37L350.641 1501.02L350.992 1500.66L351.343 1500.31L351.695 1499.96L352.046 1499.61L352.398 1499.26L352.749 1498.91L353.101 1498.56L353.452 1498.2L353.803 1497.85L354.155 1497.5L354.506 1497.15L354.858 1496.8L355.209 1496.45L355.56 1496.1L355.912 1495.74L356.263 1495.39L356.615 1495.04L356.966 1494.69L357.318 1494.34L357.669 1493.99L358.02 1493.64L358.372 1493.28L358.723 1492.93L359.075 1492.58L359.426 1492.23L359.777 1491.88L360.129 1491.53L360.48 1491.18L360.832 1490.82L361.183 1490.47L361.535 1490.12L361.535 1490.12L361.886 1489.78L362.237 1489.44L362.589 1489.12L362.94 1488.8L363.292 1488.5L363.643 1488.21L363.995 1487.93L364.346 1487.66L364.697 1487.4L365.049 1487.16L365.4 1486.92L365.752 1486.7L366.103 1486.48L366.454 1486.28L366.806 1486.09L367.157 1485.9L367.509 1485.73L367.86 1485.58L368.212 1485.43L368.563 1485.29L368.914 1485.16L369.266 1485.05L369.617 1484.94L369.969 1484.85L370.32 1484.77L370.671 1484.7L371.023 1484.64L371.374 1484.59L371.726 1484.55L372.077 1484.52L372.429 1484.5L372.78 1484.5L372.78 1484.5L373.134 1484.5L373.494 1484.5L373.859 1484.5L374.23 1484.5L374.606 1484.5L374.987 1484.5L375.374 1484.5L375.767 1484.5L376.165 1484.5L376.569 1484.5L376.978 1484.5L377.392 1484.5L377.812 1484.5L378.238 1484.5L378.669 1484.5L379.106 1484.5L379.548 1484.5L379.995 1484.5L380.448 1484.5L380.907 1484.5L381.371 1484.5L381.84 1484.5L382.315 1484.5L382.795 1484.5L383.281 1484.5L383.773 1484.5L384.27 1484.5L384.772 1484.5L385.28 1484.5L385.794 1484.5L386.312 1484.5L386.837 1484.5L386.837 1484.5L387.364 1484.5L387.891 1484.5L388.418 1484.5L388.945 1484.5L389.472 1484.5L390 1484.5L390.527 1484.5L391.054 1484.5L391.581 1484.5L392.108 1484.5L392.635 1484.5L393.162 1484.5L393.689 1484.5L394.217 1484.5L394.744 1484.5L395.271 1484.5L395.798 1484.5L396.325 1484.5L396.852 1484.5L397.379 1484.5L397.906 1484.5L398.434 1484.5L398.961 1484.5L399.488 1484.5L400.015 1484.5L400.542 1484.5L401.069 1484.5L401.596 1484.5L402.124 1484.5L402.651 1484.5L403.178 1484.5L403.705 1484.5L403.705 1484.5L404.216 1484.51L404.693 1484.53L405.138 1484.57L405.55 1484.63L405.929 1484.7L406.275 1484.8L406.588 1484.9L406.868 1485.03L407.115 1485.17L407.329 1485.32L407.51 1485.5L407.658 1485.68L407.774 1485.89L407.856 1486.11L407.905 1486.35L407.922 1486.61L407.905 1486.88L407.856 1487.17L407.774 1487.47L407.658 1487.79L407.51 1488.13L407.329 1488.49L407.115 1488.86L406.868 1489.24L406.588 1489.65L406.275 1490.07L405.929 1490.5L405.55 1490.96L405.138 1491.43L404.693 1491.91L404.216 1492.41L403.705 1492.93L403.705 1492.93L403.17 1493.47L402.618 1494.02L402.049 1494.59L401.465 1495.17L400.863 1495.77L400.246 1496.39L399.611 1497.03L398.961 1497.68L398.294 1498.34L397.61 1499.03L396.91 1499.73L396.193 1500.44L395.46 1501.18L394.711 1501.93L393.945 1502.69L393.162 1503.48L392.363 1504.27L391.548 1505.09L390.716 1505.92L389.868 1506.77L389.003 1507.63L388.122 1508.52L387.224 1509.41L386.31 1510.33L385.379 1511.26L384.432 1512.21L383.468 1513.17L382.488 1514.15L381.491 1515.15L380.478 1516.16L379.449 1517.19L378.403 1518.24"/>
<path class="l6" d="M906.938 1551.97L2694.96 1551.97"/>
<path class="l6" d="M41.04 1551.97L187.231 1551.97"/>
<path class="l7" d="M1345.51 292.484L1390.49 292.484"/>
<path class="l7" d="M940.674 292.484L985.656 292.484"/>
<path class="l7" d="M1165.58 517.392L1165.58 562.374"/>
<path class="l7" d="M1975.25 562.374L2020.23 562.374"/>
<path class="l7" d="M1570.42 562.374L1615.4 562.374"/>
<path class="l7" d="M1795.33 787.283L1795.33 832.264"/>
<path class="l7" d="M1345.51 832.264L1390.49 832.264"/>
<path class="l7" d="M940.674 832.264L985.656 832.264"/>
<path class="l7" d="M1165.58 1057.17L1165.58 1102.15"/>
<path class="l7" d="M1975.25 1102.15L2020.23 1102.15"/>
<path class="l7" d="M1570.42 1102.15L1615.4 1102.15"/>
<path class="l7" d="M1795.33 1327.06L1795.33 1372.04"/>
<text fill="#000000"  xml:space="preserve" font-size="35.0857" transform="translate(984.531, 558.247)" >digital_level_translator</text>
<text fill="#000000"  xml:space="preserve" font-size="23.3905" transform="translate(996.901, 241.752)" >x1</text>
<text fill="#000000"  xml:space="preserve" font-size="23.3905" transform="translate(1239.26, 304.726)" >PLAVDD</text>
<text fill="#000000"  xml:space="preserve" font-size="23.3905" transform="translate(996.901, 295.89)" >PLDVDD</text>
<text fill="#000000"  xml:space="preserve" font-size="23.3905" transform="translate(996.901, 394.69)" >LIN</text>
<text fill="#000000"  xml:space="preserve" font-size="23.3905" transform="translate(1272.26, 394.69)" >LOUT</text>
<text fill="#000000"  xml:space="preserve" font-size="23.3905" transform="translate(1168.99, 506.147) rotate(270)" >PLVSS</text>
<text fill="#000000"  xml:space="preserve" font-size="17.5429" transform="translate(985.656, 263.431)" >1.2V</text>
<text fill="#000000"  xml:space="preserve" font-size="17.5429" transform="translate(1300.53, 263.431)" >3.3V</text>
<text fill="#000000"  xml:space="preserve" font-size="35.0857" transform="translate(1614.27, 828.137)" >digital_level_translator</text>
<text fill="#000000"  xml:space="preserve" font-size="23.3905" transform="translate(1626.64, 511.642)" >x2</text>
<text fill="#000000"  xml:space="preserve" font-size="23.3905" transform="translate(1869.01, 574.616)" >PLAVDD</text>
<text fill="#000000"  xml:space="preserve" font-size="23.3905" transform="translate(1626.64, 565.78)" >PLDVDD</text>
<text fill="#000000"  xml:space="preserve" font-size="23.3905" transform="translate(1626.64, 664.58)" >LIN</text>
<text fill="#000000"  xml:space="preserve" font-size="23.3905" transform="translate(1902.01, 664.58)" >LOUT</text>
<text fill="#000000"  xml:space="preserve" font-size="23.3905" transform="translate(1798.73, 776.037) rotate(270)" >PLVSS</text>
<text fill="#000000"  xml:space="preserve" font-size="17.5429" transform="translate(1615.4, 533.321)" >1.2V</text>
<text fill="#000000"  xml:space="preserve" font-size="17.5429" transform="translate(1930.27, 533.321)" >3.3V</text>
<text fill="#000000"  xml:space="preserve" font-size="35.0857" transform="translate(984.531, 1098.03)" >digital_level_translator</text>
<text fill="#000000"  xml:space="preserve" font-size="23.3905" transform="translate(996.901, 781.532)" >x3</text>
<text fill="#000000"  xml:space="preserve" font-size="23.3905" transform="translate(1239.26, 844.507)" >PLAVDD</text>
<text fill="#000000"  xml:space="preserve" font-size="23.3905" transform="translate(996.901, 835.67)" >PLDVDD</text>
<text fill="#000000"  xml:space="preserve" font-size="23.3905" transform="translate(996.901, 934.47)" >LIN</text>
<text fill="#000000"  xml:space="preserve" font-size="23.3905" transform="translate(1272.26, 934.47)" >LOUT</text>
<text fill="#000000"  xml:space="preserve" font-size="23.3905" transform="translate(1168.99, 1045.93) rotate(270)" >PLVSS</text>
<text fill="#000000"  xml:space="preserve" font-size="17.5429" transform="translate(985.656, 803.212)" >1.2V</text>
<text fill="#000000"  xml:space="preserve" font-size="17.5429" transform="translate(1300.53, 803.212)" >3.3V</text>
<text fill="#000000"  xml:space="preserve" font-size="35.0857" transform="translate(1614.27, 1367.92)" >digital_level_translator</text>
<text fill="#000000"  xml:space="preserve" font-size="23.3905" transform="translate(1626.64, 1051.42)" >x4</text>
<text fill="#000000"  xml:space="preserve" font-size="23.3905" transform="translate(1869.01, 1114.4)" >PLAVDD</text>
<text fill="#000000"  xml:space="preserve" font-size="23.3905" transform="translate(1626.64, 1105.56)" >PLDVDD</text>
<text fill="#000000"  xml:space="preserve" font-size="23.3905" transform="translate(1626.64, 1204.36)" >LIN</text>
<text fill="#000000"  xml:space="preserve" font-size="23.3905" transform="translate(1902.01, 1204.36)" >LOUT</text>
<text fill="#000000"  xml:space="preserve" font-size="23.3905" transform="translate(1798.73, 1315.82) rotate(270)" >PLVSS</text>
<text fill="#000000"  xml:space="preserve" font-size="17.5429" transform="translate(1615.4, 1073.1)" >1.2V</text>
<text fill="#000000"  xml:space="preserve" font-size="17.5429" transform="translate(1930.27, 1073.1)" >3.3V</text>
<text fill="#000000"  xml:space="preserve" font-size="38.5943" transform="translate(622.589, 79.4366)" >PLDVDD</text>
<text fill="#000000"  xml:space="preserve" font-size="38.5943" transform="translate(626.589, 169.4)" >PLAVDD</text>
<text fill="#000000"  xml:space="preserve" font-size="38.5943" transform="translate(662.589, 1428.89)" >PLVSS</text>
<text fill="#000000"  xml:space="preserve" font-size="38.5943" transform="translate(699.049, 397.811)" >LIN3</text>
<text fill="#000000"  xml:space="preserve" font-size="38.5943" transform="translate(699.049, 667.702)" >LIN2</text>
<text fill="#000000"  xml:space="preserve" font-size="38.5943" transform="translate(699.049, 937.592)" >LIN1</text>
<text fill="#000000"  xml:space="preserve" font-size="38.5943" transform="translate(699.049, 1207.48)" >LIN0</text>
<text fill="#000000"  xml:space="preserve" font-size="38.5943" transform="translate(2155.18, 397.811)" >LOUT3</text>
<text fill="#000000"  xml:space="preserve" font-size="38.5943" transform="translate(2155.18, 667.702)" >LOUT2</text>
<text fill="#000000"  xml:space="preserve" font-size="38.5943" transform="translate(2155.18, 937.592)" >LOUT1</text>
<text fill="#000000"  xml:space="preserve" font-size="38.5943" transform="translate(2155.18, 1207.48)" >LOUT0</text>
<text fill="#000000"  xml:space="preserve" font-size="46.781" transform="translate(929.428, 1605.69)" >x1.x6.         4x_digital_level_translator.sch</text>
<text fill="#000000"  xml:space="preserve" font-size="46.781" transform="translate(929.428, 1538.22)" >Pascal Gesell</text>
<text fill="#000000"  xml:space="preserve" font-size="46.781" transform="translate(2178.96, 1538.22)" >2026-03-23  10:51:05</text>
<text fill="#000000"  xml:space="preserve" font-size="116.952" transform="translate(412.139, 1601.94)" >SCHEM</text>
<path class="l1" d="M1390.49 292.484L1435.47 292.484"/>
<path class="l1" d="M1435.47 292.484L1435.47 832.264"/>
<path class="l1" d="M1390.49 832.264L1435.47 832.264"/>
<path class="l1" d="M1165.58 562.374L1165.58 607.356"/>
<path class="l1" d="M1165.58 607.356L1480.45 607.356"/>
<path class="l1" d="M1480.45 1147.14L1480.45 1417.03"/>
<path class="l1" d="M1480.45 1417.03L1795.33 1417.03"/>
<path class="l1" d="M1795.33 1372.04L1795.33 1417.03"/>
<path class="l1" d="M1795.33 832.264L1795.33 877.246"/>
<path class="l1" d="M1480.45 877.246L1795.33 877.246"/>
<path class="l1" d="M1480.45 607.356L1480.45 877.246"/>
<path class="l1" d="M1525.44 562.374L1570.42 562.374"/>
<path class="l1" d="M1525.44 562.374L1525.44 1102.15"/>
<path class="l1" d="M1525.44 1102.15L1570.42 1102.15"/>
<path class="l1" d="M895.692 832.264L940.674 832.264"/>
<path class="l1" d="M895.692 292.484L895.692 832.264"/>
<path class="l1" d="M895.692 292.484L940.674 292.484"/>
<path class="l1" d="M1435.47 157.539L1435.47 292.484"/>
<path class="l1" d="M2065.22 157.539L2065.22 562.374"/>
<path class="l1" d="M2020.23 562.374L2065.22 562.374"/>
<path class="l1" d="M2065.22 562.374L2065.22 1102.15"/>
<path class="l1" d="M2020.23 1102.15L2065.22 1102.15"/>
<path class="l1" d="M828.22 1417.03L1480.45 1417.03"/>
<path class="l1" d="M1165.58 1102.15L1165.58 1147.14"/>
<path class="l1" d="M1165.58 1147.14L1480.45 1147.14"/>
<path class="l1" d="M1480.45 877.246L1480.45 1147.14"/>
<path class="l1" d="M828.22 1192.12L1570.42 1192.12"/>
<path class="l1" d="M828.22 652.338L1570.42 652.338"/>
<path class="l1" d="M828.22 382.447L940.674 382.447"/>
<path class="l1" d="M828.22 922.228L940.674 922.228"/>
<path class="l1" d="M2020.23 652.338L2110.2 652.338"/>
<path class="l1" d="M1390.49 382.447L2110.2 382.447"/>
<path class="l1" d="M2020.23 1192.12L2110.2 1192.12"/>
<path class="l1" d="M1390.49 922.228L2110.2 922.228"/>
<path class="l1" d="M895.692 67.5755L895.692 292.484"/>
<path class="l1" d="M828.22 67.5755L895.692 67.5755"/>
<path class="l1" d="M895.692 67.5755L1525.44 67.5755"/>
<path class="l1" d="M1525.44 67.5755L1525.44 562.374"/>
<path class="l1" d="M828.22 157.539L1435.47 157.539"/>
<path class="l1" d="M1435.47 157.539L2065.22 157.539"/>
<circle class="l1" cx="1435.47" cy="157.539" r="8.32161"/>
<circle class="l1" cx="895.692" cy="67.5755" r="8.32161"/>
<circle class="l1" cx="895.692" cy="67.5755" r="8.32161"/>
<circle class="l1" cx="895.692" cy="67.5755" r="8.32161"/>
<circle class="l1" cx="895.692" cy="292.484" r="8.32161"/>
<circle class="l1" cx="895.692" cy="292.484" r="8.32161"/>
<circle class="l1" cx="895.692" cy="292.484" r="8.32161"/>
<circle class="l1" cx="1480.45" cy="1417.03" r="8.32161"/>
<circle class="l1" cx="1435.47" cy="157.539" r="8.32161"/>
<circle class="l1" cx="1525.44" cy="562.374" r="8.32161"/>
<circle class="l1" cx="1435.47" cy="157.539" r="8.32161"/>
<circle class="l1" cx="1435.47" cy="292.484" r="8.32161"/>
<circle class="l1" cx="1525.44" cy="562.374" r="8.32161"/>
<circle class="l1" cx="1525.44" cy="562.374" r="8.32161"/>
<circle class="l1" cx="1480.45" cy="877.246" r="8.32161"/>
<circle class="l1" cx="1435.47" cy="292.484" r="8.32161"/>
<circle class="l1" cx="1435.47" cy="292.484" r="8.32161"/>
<circle class="l1" cx="1480.45" cy="877.246" r="8.32161"/>
<circle class="l1" cx="1480.45" cy="1147.14" r="8.32161"/>
<circle class="l1" cx="1480.45" cy="1147.14" r="8.32161"/>
<circle class="l1" cx="1480.45" cy="877.246" r="8.32161"/>
<circle class="l1" cx="1480.45" cy="1417.03" r="8.32161"/>
<circle class="l1" cx="1480.45" cy="1147.14" r="8.32161"/>
<circle class="l1" cx="1480.45" cy="1417.03" r="8.32161"/>
<circle class="l1" cx="2065.22" cy="562.374" r="8.32161"/>
<circle class="l1" cx="2065.22" cy="562.374" r="8.32161"/>
<circle class="l1" cx="2065.22" cy="562.374" r="8.32161"/>
</svg>
