<svg xmlns="http://www.w3.org/2000/svg" xmlns:xlink="http://www.w3.org/1999/xlink" width="2736" height="1664" version="1.1">
<style type="text/css">
.l0{
  fill: #ffffff;
  stroke: #ffffff;
  stroke-linecap:round;
  stroke-linejoin:round;
  stroke-width: 2.82416;
}
.l1{
  fill: #000000;
  stroke: #000000;
  stroke-linecap:round;
  stroke-linejoin:round;
  stroke-width: 2.82416;
}
.l2{
  fill: #000000; fill-opacity: 0.2;
  stroke: #000000;
  stroke-linecap:round;
  stroke-linejoin:round;
  stroke-width: 2.82416;
}
.l3{
  fill: #000000; fill-opacity: 0.5;
  stroke: #000000;
  stroke-linecap:round;
  stroke-linejoin:round;
  stroke-width: 2.82416;
}
.l4{
  fill: #000000;
  stroke: #000000;
  stroke-linecap:round;
  stroke-linejoin:round;
  stroke-width: 2.82416;
}
.l5{
  fill: #000000;
  stroke: #000000;
  stroke-linecap:round;
  stroke-linejoin:round;
  stroke-width: 2.82416;
}
.l6{
  fill: #000000; fill-opacity: 0.5;
  stroke: #000000;
  stroke-linecap:round;
  stroke-linejoin:round;
  stroke-width: 2.82416;
}
.l7{
  fill: #000000; fill-opacity: 0.5;
  stroke: #000000;
  stroke-linecap:round;
  stroke-linejoin:round;
  stroke-width: 2.82416;
}
.l8{
  fill: #000000; fill-opacity: 0.5;
  stroke: #000000;
  stroke-linecap:round;
  stroke-linejoin:round;
  stroke-width: 2.82416;
}
.l9{
  fill: #000000; fill-opacity: 0.5;
  stroke: #000000;
  stroke-linecap:round;
  stroke-linejoin:round;
  stroke-width: 2.82416;
}
.l10{
  fill: #000000;
  stroke: #000000;
  stroke-linecap:round;
  stroke-linejoin:round;
  stroke-width: 2.82416;
}
.l11{
  fill: #000000; fill-opacity: 0.5;
  stroke: #000000;
  stroke-linecap:round;
  stroke-linejoin:round;
  stroke-width: 2.82416;
}
.l12{
  fill: #000000; fill-opacity: 0.5;
  stroke: #000000;
  stroke-linecap:round;
  stroke-linejoin:round;
  stroke-width: 2.82416;
}
.l13{
  fill: #000000; fill-opacity: 0.5;
  stroke: #000000;
  stroke-linecap:round;
  stroke-linejoin:round;
  stroke-width: 2.82416;
}
.l14{
  fill: #000000; fill-opacity: 0.2;
  stroke: #000000;
  stroke-linecap:round;
  stroke-linejoin:round;
  stroke-width: 2.82416;
}
.l15{
  fill: #000000; fill-opacity: 0.5;
  stroke: #000000;
  stroke-linecap:round;
  stroke-linejoin:round;
  stroke-width: 2.82416;
}
.l16{
  fill: #000000; fill-opacity: 0.5;
  stroke: #000000;
  stroke-linecap:round;
  stroke-linejoin:round;
  stroke-width: 2.82416;
}
.l17{
  fill: #000000; fill-opacity: 0.2;
  stroke: #000000;
  stroke-linecap:round;
  stroke-linejoin:round;
  stroke-width: 2.82416;
}
.l18{
  fill: #000000; fill-opacity: 0.5;
  stroke: #000000;
  stroke-linecap:round;
  stroke-linejoin:round;
  stroke-width: 2.82416;
}
.l19{
  fill: #000000; fill-opacity: 0.2;
  stroke: #000000;
  stroke-linecap:round;
  stroke-linejoin:round;
  stroke-width: 2.82416;
}
.l20{
  fill: #000000; fill-opacity: 0.2;
  stroke: #000000;
  stroke-linecap:round;
  stroke-linejoin:round;
  stroke-width: 2.82416;
}
.l21{
  fill: #000000; fill-opacity: 0.2;
  stroke: #000000;
  stroke-linecap:round;
  stroke-linejoin:round;
  stroke-width: 2.82416;
}
text {font-family: Sans-Serif;}
</style>
<rect class="l0" x="0" y="0" width="2736" height="1664"/>
<path class="l4" d="M907.767 246.495L949.606 246.495"/>
<path class="l4" d="M1284.32 246.495L1326.16 246.495"/>
<path class="l4" d="M1075.12 183.736L1075.12 288.334"/>
<path class="l4" d="M1075.12 183.736L1158.8 246.495"/>
<path class="l4" d="M1075.12 309.254L1158.8 246.495"/>
<path class="l4" d="M1075.12 288.334L1075.12 309.254"/>
<path class="l4" d="M1033.29 246.495L1075.12 246.495"/>
<path class="l4" d="M1158.8 246.495L1200.64 246.495"/>
<path class="l4" d="M1179.72 351.093L1200.64 351.093"/>
<path class="l4" d="M1200.64 351.093L1221.56 309.254"/>
<path class="l4" d="M1221.56 309.254L1242.48 309.254"/>
<path class="l4" d="M991.446 351.093L1012.37 351.093"/>
<path class="l4" d="M1012.37 351.093L1033.29 267.414"/>
<path class="l4" d="M1033.29 267.414L1054.2 267.414"/>
<path class="l4" style="fill:none;" d="M1284.32 120.977L949.606 120.977L949.606 372.013L1284.32 372.013L1284.32 120.977"/>
<path class="l4" d="M1451.68 497.531L1493.52 497.531"/>
<path class="l4" d="M1828.23 497.531L1870.07 497.531"/>
<path class="l4" d="M1619.04 434.772L1619.04 539.37"/>
<path class="l4" d="M1619.04 434.772L1702.71 497.531"/>
<path class="l4" d="M1619.04 560.29L1702.71 497.531"/>
<path class="l4" d="M1619.04 539.37L1619.04 560.29"/>
<path class="l4" d="M1577.2 497.531L1619.04 497.531"/>
<path class="l4" d="M1702.71 497.531L1744.55 497.531"/>
<path class="l4" d="M1723.63 602.129L1744.55 602.129"/>
<path class="l4" d="M1744.55 602.129L1765.47 560.29"/>
<path class="l4" d="M1765.47 560.29L1786.39 560.29"/>
<path class="l4" d="M1535.36 602.129L1556.28 602.129"/>
<path class="l4" d="M1556.28 602.129L1577.2 518.451"/>
<path class="l4" d="M1577.2 518.451L1598.12 518.451"/>
<path class="l4" style="fill:none;" d="M1828.23 372.013L1493.52 372.013L1493.52 623.049L1828.23 623.049L1828.23 372.013"/>
<path class="l4" d="M907.767 748.567L949.606 748.567"/>
<path class="l4" d="M1284.32 748.567L1326.16 748.567"/>
<path class="l4" d="M1075.12 685.808L1075.12 790.406"/>
<path class="l4" d="M1075.12 685.808L1158.8 748.567"/>
<path class="l4" d="M1075.12 811.326L1158.8 748.567"/>
<path class="l4" d="M1075.12 790.406L1075.12 811.326"/>
<path class="l4" d="M1033.29 748.567L1075.12 748.567"/>
<path class="l4" d="M1158.8 748.567L1200.64 748.567"/>
<path class="l4" d="M1179.72 853.166L1200.64 853.166"/>
<path class="l4" d="M1200.64 853.166L1221.56 811.326"/>
<path class="l4" d="M1221.56 811.326L1242.48 811.326"/>
<path class="l4" d="M991.446 853.166L1012.37 853.166"/>
<path class="l4" d="M1012.37 853.166L1033.29 769.487"/>
<path class="l4" d="M1033.29 769.487L1054.2 769.487"/>
<path class="l4" style="fill:none;" d="M1284.32 623.049L949.606 623.049L949.606 874.085L1284.32 874.085L1284.32 623.049"/>
<path class="l4" d="M1451.68 999.603L1493.52 999.603"/>
<path class="l4" d="M1828.23 999.603L1870.07 999.603"/>
<path class="l4" d="M1619.04 936.844L1619.04 1041.44"/>
<path class="l4" d="M1619.04 936.844L1702.71 999.603"/>
<path class="l4" d="M1619.04 1062.36L1702.71 999.603"/>
<path class="l4" d="M1619.04 1041.44L1619.04 1062.36"/>
<path class="l4" d="M1577.2 999.603L1619.04 999.603"/>
<path class="l4" d="M1702.71 999.603L1744.55 999.603"/>
<path class="l4" d="M1723.63 1104.2L1744.55 1104.2"/>
<path class="l4" d="M1744.55 1104.2L1765.47 1062.36"/>
<path class="l4" d="M1765.47 1062.36L1786.39 1062.36"/>
<path class="l4" d="M1535.36 1104.2L1556.28 1104.2"/>
<path class="l4" d="M1556.28 1104.2L1577.2 1020.52"/>
<path class="l4" d="M1577.2 1020.52L1598.12 1020.52"/>
<path class="l4" style="fill:none;" d="M1828.23 874.085L1493.52 874.085L1493.52 1125.12L1828.23 1125.12L1828.23 874.085"/>
<path class="l4" d="M907.767 1250.64L949.606 1250.64"/>
<path class="l4" d="M1284.32 1250.64L1326.16 1250.64"/>
<path class="l4" d="M1075.12 1187.88L1075.12 1292.48"/>
<path class="l4" d="M1075.12 1187.88L1158.8 1250.64"/>
<path class="l4" d="M1075.12 1313.4L1158.8 1250.64"/>
<path class="l4" d="M1075.12 1292.48L1075.12 1313.4"/>
<path class="l4" d="M1033.29 1250.64L1075.12 1250.64"/>
<path class="l4" d="M1158.8 1250.64L1200.64 1250.64"/>
<path class="l4" d="M1179.72 1355.24L1200.64 1355.24"/>
<path class="l4" d="M1200.64 1355.24L1221.56 1313.4"/>
<path class="l4" d="M1221.56 1313.4L1242.48 1313.4"/>
<path class="l4" d="M991.446 1355.24L1012.37 1355.24"/>
<path class="l4" d="M1012.37 1355.24L1033.29 1271.56"/>
<path class="l4" d="M1033.29 1271.56L1054.2 1271.56"/>
<path class="l4" style="fill:none;" d="M1284.32 1125.12L949.606 1125.12L949.606 1376.16L1284.32 1376.16L1284.32 1125.12"/>
<path class="l5" d="M902.537 157.586L912.997 157.586L912.997 168.046L902.537 168.046L902.537 157.586z"/>
<path class="l5" d="M902.537 241.265L912.997 241.265L912.997 251.725L902.537 251.725L902.537 241.265z"/>
<path class="l5" d="M1320.93 241.265L1331.39 241.265L1331.39 251.725L1320.93 251.725L1320.93 241.265z"/>
<path class="l5" d="M1111.73 408.622L1122.19 408.622L1122.19 419.082L1111.73 419.082L1111.73 408.622z"/>
<path class="l5" d="M1446.45 408.622L1456.91 408.622L1456.91 419.082L1446.45 419.082L1446.45 408.622z"/>
<path class="l5" d="M1446.45 492.301L1456.91 492.301L1456.91 502.761L1446.45 502.761L1446.45 492.301z"/>
<path class="l5" d="M1864.84 492.301L1875.3 492.301L1875.3 502.761L1864.84 502.761L1864.84 492.301z"/>
<path class="l5" d="M1655.65 659.658L1666.11 659.658L1666.11 670.118L1655.65 670.118L1655.65 659.658z"/>
<path class="l5" d="M902.537 659.658L912.997 659.658L912.997 670.118L902.537 670.118L902.537 659.658z"/>
<path class="l5" d="M902.537 743.337L912.997 743.337L912.997 753.797L902.537 753.797L902.537 743.337z"/>
<path class="l5" d="M1320.93 743.337L1331.39 743.337L1331.39 753.797L1320.93 753.797L1320.93 743.337z"/>
<path class="l5" d="M1111.73 910.695L1122.19 910.695L1122.19 921.154L1111.73 921.154L1111.73 910.695z"/>
<path class="l5" d="M1446.45 910.695L1456.91 910.695L1456.91 921.154L1446.45 921.154L1446.45 910.695z"/>
<path class="l5" d="M1446.45 994.373L1456.91 994.373L1456.91 1004.83L1446.45 1004.83L1446.45 994.373z"/>
<path class="l5" d="M1864.84 994.373L1875.3 994.373L1875.3 1004.83L1864.84 1004.83L1864.84 994.373z"/>
<path class="l5" d="M1655.65 1161.73L1666.11 1161.73L1666.11 1172.19L1655.65 1172.19L1655.65 1161.73z"/>
<path class="l5" d="M817.551 58.2175L824.088 58.2175"/>
<path class="l5" d="M795.324 47.7577L787.479 58.2175L795.324 68.6774L809.706 68.6774L817.551 58.2175L809.706 47.7577L795.324 47.7577"/>
<path class="l5" d="M821.473 55.6025L826.703 55.6025L826.703 60.8325L821.473 60.8325L821.473 55.6025z"/>
<path class="l5" d="M817.551 1459.84L824.088 1459.84"/>
<path class="l5" d="M795.324 1449.38L787.479 1459.84L795.324 1470.3L809.706 1470.3L817.551 1459.84L809.706 1449.38L795.324 1449.38"/>
<path class="l5" d="M821.473 1457.22L826.703 1457.22L826.703 1462.45L821.473 1462.45L821.473 1457.22z"/>
<path class="l5" d="M813.628 497.531L824.088 497.531"/>
<path class="l5" d="M813.628 497.531L805.783 487.071L787.479 487.071L795.324 497.531L787.479 507.991L805.783 507.991L813.628 497.531"/>
<path class="l5" d="M821.473 494.916L826.703 494.916L826.703 500.146L821.473 500.146L821.473 494.916z"/>
<path class="l5" d="M813.628 748.567L824.088 748.567"/>
<path class="l5" d="M813.628 748.567L805.783 738.107L787.479 738.107L795.324 748.567L787.479 759.027L805.783 759.027L813.628 748.567"/>
<path class="l5" d="M821.473 745.952L826.703 745.952L826.703 751.182L821.473 751.182L821.473 745.952z"/>
<path class="l5" d="M813.628 999.603L824.088 999.603"/>
<path class="l5" d="M813.628 999.603L805.783 989.143L787.479 989.143L795.324 999.603L787.479 1010.06L805.783 1010.06L813.628 999.603"/>
<path class="l5" d="M821.473 996.988L826.703 996.988L826.703 1002.22L821.473 1002.22L821.473 996.988z"/>
<path class="l5" d="M813.628 1250.64L824.088 1250.64"/>
<path class="l5" d="M813.628 1250.64L805.783 1240.18L787.479 1240.18L795.324 1250.64L787.479 1261.1L805.783 1261.1L813.628 1250.64"/>
<path class="l5" d="M821.473 1248.02L826.703 1248.02L826.703 1253.25L821.473 1253.25L821.473 1248.02z"/>
<path class="l5" d="M902.537 1161.73L912.997 1161.73L912.997 1172.19L902.537 1172.19L902.537 1161.73z"/>
<path class="l5" d="M902.537 1245.41L912.997 1245.41L912.997 1255.87L902.537 1255.87L902.537 1245.41z"/>
<path class="l5" d="M1320.93 1245.41L1331.39 1245.41L1331.39 1255.87L1320.93 1255.87L1320.93 1245.41z"/>
<path class="l5" d="M1111.73 1412.77L1122.19 1412.77L1122.19 1423.23L1111.73 1423.23L1111.73 1412.77z"/>
<path class="l5" d="M813.628 246.495L824.088 246.495"/>
<path class="l5" d="M813.628 246.495L805.783 236.035L787.479 236.035L795.324 246.495L787.479 256.955L805.783 256.955L813.628 246.495"/>
<path class="l5" d="M821.473 243.88L826.703 243.88L826.703 249.11L821.473 249.11L821.473 243.88z"/>
<path class="l5" d="M1911.91 497.531L1930.22 497.531"/>
<path class="l5" d="M1948.52 497.531L1940.68 487.071L1922.37 487.071L1930.22 497.531L1922.37 507.991L1940.68 507.991L1948.52 497.531"/>
<path class="l5" d="M1909.3 494.916L1914.53 494.916L1914.53 500.146L1909.3 500.146L1909.3 494.916z"/>
<path class="l5" d="M1911.91 748.567L1930.22 748.567"/>
<path class="l5" d="M1948.52 748.567L1940.68 738.107L1922.37 738.107L1930.22 748.567L1922.37 759.027L1940.68 759.027L1948.52 748.567"/>
<path class="l5" d="M1909.3 745.952L1914.53 745.952L1914.53 751.182L1909.3 751.182L1909.3 745.952z"/>
<path class="l5" d="M1911.91 999.603L1930.22 999.603"/>
<path class="l5" d="M1948.52 999.603L1940.68 989.143L1922.37 989.143L1930.22 999.603L1922.37 1010.06L1940.68 1010.06L1948.52 999.603"/>
<path class="l5" d="M1909.3 996.988L1914.53 996.988L1914.53 1002.22L1909.3 1002.22L1909.3 996.988z"/>
<path class="l5" d="M1911.91 1250.64L1930.22 1250.64"/>
<path class="l5" d="M1948.52 1250.64L1940.68 1240.18L1922.37 1240.18L1930.22 1250.64L1922.37 1261.1L1940.68 1261.1L1948.52 1250.64"/>
<path class="l5" d="M1909.3 1248.02L1914.53 1248.02L1914.53 1253.25L1909.3 1253.25L1909.3 1248.02z"/>
<path class="l5" d="M1911.91 246.495L1930.22 246.495"/>
<path class="l5" d="M1948.52 246.495L1940.68 236.035L1922.37 236.035L1930.22 246.495L1922.37 256.955L1940.68 256.955L1948.52 246.495"/>
<path class="l5" d="M1909.3 243.88L1914.53 243.88L1914.53 249.11L1909.3 249.11L1909.3 243.88z"/>
<path class="l5" d="M447.534 1533.06L446.88 1533.71L446.226 1534.36L445.573 1535.02L444.919 1535.67L444.265 1536.32L443.611 1536.98L442.958 1537.63L442.304 1538.29L441.65 1538.94L440.996 1539.59L440.343 1540.25L439.689 1540.9L439.035 1541.55L438.382 1542.21L437.728 1542.86L437.074 1543.52L436.42 1544.17L435.767 1544.82L435.113 1545.48L434.459 1546.13L433.805 1546.78L433.152 1547.44L432.498 1548.09L431.844 1548.75L431.19 1549.4L430.537 1550.05L429.883 1550.71L429.229 1551.36L428.575 1552.01L427.922 1552.67L427.268 1553.32L426.614 1553.97L426.614 1553.97L425.981 1554.63L425.388 1555.28L424.837 1555.94L424.326 1556.59L423.856 1557.24L423.427 1557.9L423.039 1558.55L422.692 1559.2L422.385 1559.86L422.12 1560.51L421.895 1561.17L421.711 1561.82L421.568 1562.47L421.466 1563.13L421.405 1563.78L421.384 1564.43L421.405 1565.09L421.466 1565.74L421.568 1566.4L421.711 1567.05L421.895 1567.7L422.12 1568.36L422.385 1569.01L422.692 1569.66L423.039 1570.32L423.427 1570.97L423.856 1571.63L424.326 1572.28L424.837 1572.93L425.388 1573.59L425.981 1574.24L426.614 1574.89L426.614 1574.89L427.27 1575.55L427.932 1576.21L428.598 1576.88L429.27 1577.55L429.947 1578.23L430.629 1578.91L431.316 1579.6L432.008 1580.29L432.705 1580.99L433.407 1581.69L434.114 1582.39L434.827 1583.11L435.544 1583.82L436.267 1584.55L436.995 1585.28L437.728 1586.01L438.466 1586.75L439.209 1587.49L439.957 1588.24L440.71 1588.99L441.469 1589.75L442.232 1590.51L443.001 1591.28L443.775 1592.06L444.554 1592.83L445.338 1593.62L446.127 1594.41L446.921 1595.2L447.72 1596L448.525 1596.81L449.334 1597.61L450.149 1598.43L450.149 1598.43L450.961 1599.24L451.763 1600.04L452.554 1600.83L453.336 1601.62L454.107 1602.39L454.868 1603.15L455.619 1603.9L456.359 1604.64L457.09 1605.37L457.81 1606.09L458.52 1606.8L459.219 1607.5L459.909 1608.19L460.588 1608.87L461.257 1609.54L461.916 1610.2L462.565 1610.85L463.203 1611.48L463.831 1612.11L464.449 1612.73L465.057 1613.34L465.655 1613.94L466.242 1614.52L466.819 1615.1L467.386 1615.67L467.943 1616.22L468.489 1616.77L469.026 1617.31L469.552 1617.83L470.067 1618.35L470.573 1618.85L471.069 1619.35L471.069 1619.35L471.544 1619.83L471.988 1620.3L472.402 1620.75L472.785 1621.19L473.137 1621.61L473.459 1622.01L473.75 1622.41L474.01 1622.78L474.24 1623.14L474.439 1623.49L474.608 1623.82L474.746 1624.13L474.853 1624.43L474.93 1624.71L474.976 1624.98L474.991 1625.23L474.976 1625.47L474.93 1625.69L474.853 1625.9L474.746 1626.09L474.608 1626.27L474.439 1626.43L474.24 1626.57L474.01 1626.7L473.75 1626.82L473.459 1626.92L473.137 1627L472.785 1627.07L472.402 1627.12L471.988 1627.16L471.544 1627.19L471.069 1627.19L471.069 1627.19L470.578 1627.19L470.088 1627.19L469.598 1627.19L469.107 1627.19L468.617 1627.19L468.127 1627.19L467.636 1627.19L467.146 1627.19L466.656 1627.19L466.165 1627.19L465.675 1627.19L465.185 1627.19L464.695 1627.19L464.204 1627.19L463.714 1627.19L463.224 1627.19L462.733 1627.19L462.243 1627.19L461.753 1627.19L461.262 1627.19L460.772 1627.19L460.282 1627.19L459.792 1627.19L459.301 1627.19L458.811 1627.19L458.321 1627.19L457.83 1627.19L457.34 1627.19L456.85 1627.19L456.359 1627.19L455.869 1627.19L455.379 1627.19L455.379 1627.19L454.891 1627.19L454.408 1627.19L453.931 1627.19L453.458 1627.19L452.991 1627.19L452.529 1627.19L452.072 1627.19L451.62 1627.19L451.173 1627.19L450.731 1627.19L450.294 1627.19L449.863 1627.19L449.436 1627.19L449.015 1627.19L448.599 1627.19L448.188 1627.19L447.782 1627.19L447.381 1627.19L446.985 1627.19L446.594 1627.19L446.209 1627.19L445.828 1627.19L445.453 1627.19L445.082 1627.19L444.717 1627.19L444.357 1627.19L444.002 1627.19L443.652 1627.19L443.308 1627.19L442.968 1627.19L442.633 1627.19L442.304 1627.19L442.304 1627.19L441.977 1627.19L441.65 1627.17L441.323 1627.15L440.996 1627.11L440.67 1627.07L440.343 1627.01L440.016 1626.94L439.689 1626.87L439.362 1626.78L439.035 1626.68L438.708 1626.58L438.382 1626.46L438.055 1626.33L437.728 1626.19L437.401 1626.04L437.074 1625.89L436.747 1625.72L436.42 1625.54L436.093 1625.35L435.767 1625.15L435.44 1624.94L435.113 1624.72L434.786 1624.49L434.459 1624.25L434.132 1624L433.805 1623.74L433.478 1623.47L433.152 1623.19L432.825 1622.9L432.498 1622.6L432.171 1622.29L431.844 1621.96L431.844 1621.96L431.517 1621.64L431.19 1621.31L430.864 1620.98L430.537 1620.66L430.21 1620.33L429.883 1620L429.556 1619.68L429.229 1619.35L428.902 1619.02L428.575 1618.7L428.249 1618.37L427.922 1618.04L427.595 1617.71L427.268 1617.39L426.941 1617.06L426.614 1616.73L426.287 1616.41L425.96 1616.08L425.634 1615.75L425.307 1615.43L424.98 1615.1L424.653 1614.77L424.326 1614.45L423.999 1614.12L423.672 1613.79L423.345 1613.47L423.019 1613.14L422.692 1612.81L422.365 1612.48L422.038 1612.16L421.711 1611.83L421.384 1611.5L421.384 1611.5L421.052 1611.17L420.71 1610.83L420.358 1610.48L419.995 1610.11L419.622 1609.74L419.239 1609.36L418.846 1608.97L418.442 1608.56L418.029 1608.15L417.605 1607.72L417.171 1607.29L416.726 1606.85L416.272 1606.39L415.807 1605.93L415.332 1605.45L414.847 1604.97L414.351 1604.47L413.846 1603.97L413.33 1603.45L412.804 1602.92L412.268 1602.39L411.721 1601.84L411.164 1601.28L410.598 1600.72L410.02 1600.14L409.433 1599.55L408.836 1598.96L408.228 1598.35L407.61 1597.73L406.982 1597.1L406.343 1596.46L405.695 1595.81L405.695 1595.81L405.041 1595.18L404.387 1594.59L403.733 1594.04L403.08 1593.53L402.426 1593.06L401.772 1592.63L401.118 1592.24L400.465 1591.89L399.811 1591.59L399.157 1591.32L398.503 1591.1L397.85 1590.91L397.196 1590.77L396.542 1590.67L395.888 1590.6L395.235 1590.58L394.581 1590.6L393.927 1590.67L393.273 1590.77L392.62 1590.91L391.966 1591.1L391.312 1591.32L390.658 1591.59L390.005 1591.89L389.351 1592.24L388.697 1592.63L388.044 1593.06L387.39 1593.53L386.736 1594.04L386.082 1594.59L385.429 1595.18L384.775 1595.81L384.775 1595.81L384.126 1596.46L383.488 1597.1L382.86 1597.73L382.242 1598.35L381.634 1598.96L381.036 1599.55L380.449 1600.14L379.872 1600.72L379.305 1601.28L378.748 1601.84L378.202 1602.39L377.665 1602.92L377.139 1603.45L376.624 1603.97L376.118 1604.47L375.622 1604.97L375.137 1605.45L374.662 1605.93L374.198 1606.39L373.743 1606.85L373.299 1607.29L372.865 1607.72L372.441 1608.15L372.027 1608.56L371.623 1608.97L371.23 1609.36L370.847 1609.74L370.474 1610.11L370.112 1610.48L369.759 1610.83L369.417 1611.17L369.085 1611.5L369.085 1611.5L368.758 1611.83L368.431 1612.16L368.104 1612.48L367.778 1612.81L367.451 1613.14L367.124 1613.47L366.797 1613.79L366.47 1614.12L366.143 1614.45L365.816 1614.77L365.489 1615.1L365.163 1615.43L364.836 1615.75L364.509 1616.08L364.182 1616.41L363.855 1616.73L363.528 1617.06L363.201 1617.39L362.875 1617.71L362.548 1618.04L362.221 1618.37L361.894 1618.7L361.567 1619.02L361.24 1619.35L360.913 1619.68L360.586 1620L360.26 1620.33L359.933 1620.66L359.606 1620.98L359.279 1621.31L358.952 1621.64L358.625 1621.96L358.625 1621.96L358.298 1622.29L357.971 1622.6L357.645 1622.9L357.318 1623.19L356.991 1623.47L356.664 1623.74L356.337 1624L356.01 1624.25L355.683 1624.49L355.357 1624.72L355.03 1624.94L354.703 1625.15L354.376 1625.35L354.049 1625.54L353.722 1625.72L353.395 1625.89L353.068 1626.04L352.742 1626.19L352.415 1626.33L352.088 1626.46L351.761 1626.58L351.434 1626.68L351.107 1626.78L350.78 1626.87L350.453 1626.94L350.127 1627.01L349.8 1627.07L349.473 1627.11L349.146 1627.15L348.819 1627.17L348.492 1627.19L348.165 1627.19L348.165 1627.19L347.836 1627.19L347.501 1627.19L347.162 1627.19L346.817 1627.19L346.467 1627.19L346.112 1627.19L345.752 1627.19L345.387 1627.19L345.017 1627.19L344.641 1627.19L344.261 1627.19L343.875 1627.19L343.485 1627.19L343.089 1627.19L342.688 1627.19L342.282 1627.19L341.871 1627.19L341.454 1627.19L341.033 1627.19L340.607 1627.19L340.175 1627.19L339.738 1627.19L339.296 1627.19L338.85 1627.19L338.398 1627.19L337.94 1627.19L337.478 1627.19L337.011 1627.19L336.539 1627.19L336.061 1627.19L335.578 1627.19L335.091 1627.19L335.091 1627.19L334.6 1627.19L334.11 1627.19L333.62 1627.19L333.129 1627.19L332.639 1627.19L332.149 1627.19L331.658 1627.19L331.168 1627.19L330.678 1627.19L330.188 1627.19L329.697 1627.19L329.207 1627.19L328.717 1627.19L328.226 1627.19L327.736 1627.19L327.246 1627.19L326.755 1627.19L326.265 1627.19L325.775 1627.19L325.284 1627.19L324.794 1627.19L324.304 1627.19L323.814 1627.19L323.323 1627.19L322.833 1627.19L322.343 1627.19L321.852 1627.19L321.362 1627.19L320.872 1627.19L320.381 1627.19L319.891 1627.19L319.401 1627.19L319.401 1627.19L318.926 1627.19L318.481 1627.16L318.068 1627.12L317.685 1627.07L317.332 1627L317.011 1626.92L316.719 1626.82L316.459 1626.7L316.229 1626.57L316.03 1626.43L315.861 1626.27L315.724 1626.09L315.616 1625.9L315.54 1625.69L315.494 1625.47L315.478 1625.23L315.494 1624.98L315.54 1624.71L315.616 1624.43L315.724 1624.13L315.861 1623.82L316.03 1623.49L316.229 1623.14L316.459 1622.78L316.719 1622.41L317.011 1622.01L317.332 1621.61L317.685 1621.19L318.068 1620.75L318.481 1620.3L318.926 1619.83L319.401 1619.35L319.401 1619.35L319.896 1618.85L320.402 1618.35L320.918 1617.83L321.444 1617.31L321.98 1616.77L322.527 1616.22L323.083 1615.67L323.65 1615.1L324.227 1614.52L324.815 1613.94L325.412 1613.34L326.02 1612.73L326.638 1612.11L327.266 1611.48L327.905 1610.85L328.553 1610.2L329.212 1609.54L329.881 1608.87L330.56 1608.19L331.25 1607.5L331.95 1606.8L332.659 1606.09L333.38 1605.37L334.11 1604.64L334.851 1603.9L335.601 1603.15L336.362 1602.39L337.134 1601.62L337.915 1600.83L338.707 1600.04L339.508 1599.24L340.321 1598.43L340.321 1598.43L341.135 1597.61L341.945 1596.81L342.749 1596L343.548 1595.2L344.343 1594.41L345.132 1593.62L345.916 1592.83L346.694 1592.06L347.468 1591.28L348.237 1590.51L349 1589.75L349.759 1588.99L350.512 1588.24L351.26 1587.49L352.004 1586.75L352.742 1586.01L353.474 1585.28L354.202 1584.55L354.925 1583.82L355.643 1583.11L356.355 1582.39L357.062 1581.69L357.765 1580.99L358.462 1580.29L359.154 1579.6L359.841 1578.91L360.523 1578.23L361.199 1577.55L361.871 1576.88L362.537 1576.21L363.199 1575.55L363.855 1574.89L363.855 1574.89L364.488 1574.24L365.081 1573.59L365.633 1572.93L366.143 1572.28L366.613 1571.63L367.042 1570.97L367.43 1570.32L367.778 1569.66L368.084 1569.01L368.35 1568.36L368.574 1567.7L368.758 1567.05L368.901 1566.4L369.003 1565.74L369.065 1565.09L369.085 1564.43L369.065 1563.78L369.003 1563.13L368.901 1562.47L368.758 1561.82L368.574 1561.17L368.35 1560.51L368.084 1559.86L367.778 1559.2L367.43 1558.55L367.042 1557.9L366.613 1557.24L366.143 1556.59L365.633 1555.94L365.081 1555.28L364.488 1554.63L363.855 1553.97L363.855 1553.97L363.199 1553.32L362.537 1552.66L361.871 1551.99L361.199 1551.32L360.523 1550.64L359.841 1549.96L359.154 1549.27L358.462 1548.58L357.765 1547.88L357.062 1547.18L356.355 1546.47L355.643 1545.76L354.925 1545.04L354.202 1544.32L353.474 1543.59L352.742 1542.86L352.004 1542.12L351.26 1541.38L350.512 1540.63L349.759 1539.88L349 1539.12L348.237 1538.36L347.468 1537.59L346.694 1536.81L345.916 1536.04L345.132 1535.25L344.343 1534.46L343.548 1533.67L342.749 1532.87L341.945 1532.06L341.135 1531.25L340.321 1530.44L340.321 1530.44L339.508 1529.63L338.707 1528.83L337.915 1528.03L337.134 1527.25L336.362 1526.48L335.601 1525.72L334.851 1524.97L334.11 1524.23L333.38 1523.5L332.659 1522.78L331.95 1522.07L331.25 1521.37L330.56 1520.68L329.881 1520L329.212 1519.33L328.553 1518.67L327.905 1518.02L327.266 1517.39L326.638 1516.76L326.02 1516.14L325.412 1515.53L324.815 1514.93L324.227 1514.35L323.65 1513.77L323.083 1513.2L322.527 1512.65L321.98 1512.1L321.444 1511.56L320.918 1511.04L320.402 1510.52L319.896 1510.02L319.401 1509.52L319.401 1509.52L318.926 1509.04L318.481 1508.57L318.068 1508.12L317.685 1507.68L317.332 1507.26L317.011 1506.85L316.719 1506.46L316.459 1506.09L316.229 1505.73L316.03 1505.38L315.861 1505.05L315.724 1504.74L315.616 1504.44L315.54 1504.16L315.494 1503.89L315.478 1503.64L315.494 1503.4L315.54 1503.18L315.616 1502.97L315.724 1502.78L315.861 1502.6L316.03 1502.44L316.229 1502.3L316.459 1502.17L316.719 1502.05L317.011 1501.95L317.332 1501.87L317.685 1501.8L318.068 1501.74L318.481 1501.71L318.926 1501.68L319.401 1501.68L319.401 1501.68L319.891 1501.68L320.381 1501.68L320.872 1501.68L321.362 1501.68L321.852 1501.68L322.343 1501.68L322.833 1501.68L323.323 1501.68L323.814 1501.68L324.304 1501.68L324.794 1501.68L325.284 1501.68L325.775 1501.68L326.265 1501.68L326.755 1501.68L327.246 1501.68L327.736 1501.68L328.226 1501.68L328.717 1501.68L329.207 1501.68L329.697 1501.68L330.188 1501.68L330.678 1501.68L331.168 1501.68L331.658 1501.68L332.149 1501.68L332.639 1501.68L333.129 1501.68L333.62 1501.68L334.11 1501.68L334.6 1501.68L335.091 1501.68L335.091 1501.68L335.578 1501.68L336.061 1501.68L336.539 1501.68L337.011 1501.68L337.478 1501.68L337.94 1501.68L338.398 1501.68L338.85 1501.68L339.296 1501.68L339.738 1501.68L340.175 1501.68L340.607 1501.68L341.033 1501.68L341.454 1501.68L341.871 1501.68L342.282 1501.68L342.688 1501.68L343.089 1501.68L343.485 1501.68L343.875 1501.68L344.261 1501.68L344.641 1501.68L345.017 1501.68L345.387 1501.68L345.752 1501.68L346.112 1501.68L346.467 1501.68L346.817 1501.68L347.162 1501.68L347.501 1501.68L347.836 1501.68L348.165 1501.68L348.165 1501.68L348.492 1501.68L348.819 1501.7L349.146 1501.72L349.473 1501.76L349.8 1501.8L350.127 1501.86L350.453 1501.93L350.78 1502L351.107 1502.09L351.434 1502.19L351.761 1502.29L352.088 1502.41L352.415 1502.54L352.742 1502.68L353.068 1502.82L353.395 1502.98L353.722 1503.15L354.049 1503.33L354.376 1503.52L354.703 1503.72L355.03 1503.93L355.357 1504.15L355.683 1504.38L356.01 1504.62L356.337 1504.87L356.664 1505.13L356.991 1505.4L357.318 1505.68L357.645 1505.97L357.971 1506.27L358.298 1506.58L358.625 1506.91L358.625 1506.91L358.952 1507.23L359.279 1507.56L359.606 1507.89L359.933 1508.21L360.26 1508.54L360.586 1508.87L360.913 1509.19L361.24 1509.52L361.567 1509.85L361.894 1510.17L362.221 1510.5L362.548 1510.83L362.875 1511.15L363.201 1511.48L363.528 1511.81L363.855 1512.14L364.182 1512.46L364.509 1512.79L364.836 1513.12L365.163 1513.44L365.489 1513.77L365.816 1514.1L366.143 1514.42L366.47 1514.75L366.797 1515.08L367.124 1515.4L367.451 1515.73L367.778 1516.06L368.104 1516.38L368.431 1516.71L368.758 1517.04L369.085 1517.37L369.085 1517.37L369.417 1517.7L369.759 1518.04L370.112 1518.39L370.474 1518.75L370.847 1519.13L371.23 1519.51L371.623 1519.9L372.027 1520.31L372.441 1520.72L372.865 1521.14L373.299 1521.58L373.743 1522.02L374.198 1522.48L374.662 1522.94L375.137 1523.42L375.622 1523.9L376.118 1524.4L376.624 1524.9L377.139 1525.42L377.665 1525.95L378.202 1526.48L378.748 1527.03L379.305 1527.59L379.872 1528.15L380.449 1528.73L381.036 1529.32L381.634 1529.91L382.242 1530.52L382.86 1531.14L383.488 1531.77L384.126 1532.41L384.775 1533.06L384.775 1533.06L385.429 1533.69L386.082 1534.28L386.736 1534.83L387.39 1535.34L388.044 1535.81L388.697 1536.24L389.351 1536.63L390.005 1536.98L390.658 1537.28L391.312 1537.55L391.966 1537.77L392.62 1537.96L393.273 1538.1L393.927 1538.2L394.581 1538.26L395.235 1538.29L395.888 1538.26L396.542 1538.2L397.196 1538.1L397.85 1537.96L398.503 1537.77L399.157 1537.55L399.811 1537.28L400.465 1536.98L401.118 1536.63L401.772 1536.24L402.426 1535.81L403.08 1535.34L403.733 1534.83L404.387 1534.28L405.041 1533.69L405.695 1533.06L405.695 1533.06L406.343 1532.41L406.982 1531.77L407.61 1531.14L408.228 1530.52L408.836 1529.91L409.433 1529.32L410.02 1528.73L410.598 1528.15L411.164 1527.59L411.721 1527.03L412.268 1526.48L412.804 1525.95L413.33 1525.42L413.846 1524.9L414.351 1524.4L414.847 1523.9L415.332 1523.42L415.807 1522.94L416.272 1522.48L416.726 1522.02L417.171 1521.58L417.605 1521.14L418.029 1520.72L418.442 1520.31L418.846 1519.9L419.239 1519.51L419.622 1519.13L419.995 1518.75L420.358 1518.39L420.71 1518.04L421.052 1517.7L421.384 1517.37L421.384 1517.37L421.711 1517.04L422.038 1516.71L422.365 1516.38L422.692 1516.06L423.019 1515.73L423.345 1515.4L423.672 1515.08L423.999 1514.75L424.326 1514.42L424.653 1514.1L424.98 1513.77L425.307 1513.44L425.634 1513.12L425.96 1512.79L426.287 1512.46L426.614 1512.14L426.941 1511.81L427.268 1511.48L427.595 1511.15L427.922 1510.83L428.249 1510.5L428.575 1510.17L428.902 1509.85L429.229 1509.52L429.556 1509.19L429.883 1508.87L430.21 1508.54L430.537 1508.21L430.864 1507.89L431.19 1507.56L431.517 1507.23L431.844 1506.91L431.844 1506.91L432.171 1506.58L432.498 1506.27L432.825 1505.97L433.152 1505.68L433.478 1505.4L433.805 1505.13L434.132 1504.87L434.459 1504.62L434.786 1504.38L435.113 1504.15L435.44 1503.93L435.767 1503.72L436.093 1503.52L436.42 1503.33L436.747 1503.15L437.074 1502.98L437.401 1502.82L437.728 1502.68L438.055 1502.54L438.382 1502.41L438.708 1502.29L439.035 1502.19L439.362 1502.09L439.689 1502L440.016 1501.93L440.343 1501.86L440.67 1501.8L440.996 1501.76L441.323 1501.72L441.65 1501.7L441.977 1501.68L442.304 1501.68L442.304 1501.68L442.633 1501.68L442.968 1501.68L443.308 1501.68L443.652 1501.68L444.002 1501.68L444.357 1501.68L444.717 1501.68L445.082 1501.68L445.453 1501.68L445.828 1501.68L446.209 1501.68L446.594 1501.68L446.985 1501.68L447.381 1501.68L447.782 1501.68L448.188 1501.68L448.599 1501.68L449.015 1501.68L449.436 1501.68L449.863 1501.68L450.294 1501.68L450.731 1501.68L451.173 1501.68L451.62 1501.68L452.072 1501.68L452.529 1501.68L452.991 1501.68L453.458 1501.68L453.931 1501.68L454.408 1501.68L454.891 1501.68L455.379 1501.68L455.379 1501.68L455.869 1501.68L456.359 1501.68L456.85 1501.68L457.34 1501.68L457.83 1501.68L458.321 1501.68L458.811 1501.68L459.301 1501.68L459.792 1501.68L460.282 1501.68L460.772 1501.68L461.262 1501.68L461.753 1501.68L462.243 1501.68L462.733 1501.68L463.224 1501.68L463.714 1501.68L464.204 1501.68L464.695 1501.68L465.185 1501.68L465.675 1501.68L466.165 1501.68L466.656 1501.68L467.146 1501.68L467.636 1501.68L468.127 1501.68L468.617 1501.68L469.107 1501.68L469.598 1501.68L470.088 1501.68L470.578 1501.68L471.069 1501.68L471.069 1501.68L471.544 1501.68L471.988 1501.71L472.402 1501.74L472.785 1501.8L473.137 1501.87L473.459 1501.95L473.75 1502.05L474.01 1502.17L474.24 1502.3L474.439 1502.44L474.608 1502.6L474.746 1502.78L474.853 1502.97L474.93 1503.18L474.976 1503.4L474.991 1503.64L474.976 1503.89L474.93 1504.16L474.853 1504.44L474.746 1504.74L474.608 1505.05L474.439 1505.38L474.24 1505.73L474.01 1506.09L473.75 1506.46L473.459 1506.85L473.137 1507.26L472.785 1507.68L472.402 1508.12L471.988 1508.57L471.544 1509.04L471.069 1509.52L471.069 1509.52L470.571 1510.02L470.057 1510.53L469.529 1511.06L468.985 1511.6L468.425 1512.16L467.851 1512.74L467.261 1513.33L466.656 1513.93L466.035 1514.55L465.399 1515.19L464.748 1515.84L464.082 1516.51L463.4 1517.19L462.703 1517.89L461.99 1518.6L461.262 1519.33L460.519 1520.07L459.761 1520.83L458.987 1521.6L458.198 1522.39L457.394 1523.2L456.574 1524.02L455.739 1524.85L454.888 1525.7L454.023 1526.57L453.142 1527.45L452.245 1528.34L451.334 1529.26L450.407 1530.18L449.464 1531.12L448.507 1532.08L447.534 1533.06"/>
<path class="l6" d="M939.146 1564.43L2602.26 1564.43"/>
<path class="l6" d="M133.739 1564.43L269.717 1564.43"/>
<path class="l7" d="M907.767 162.816L949.606 162.816"/>
<path class="l7" d="M1116.96 372.013L1116.96 413.852"/>
<path class="l7" d="M1451.68 413.852L1493.52 413.852"/>
<path class="l7" d="M1660.88 623.049L1660.88 664.888"/>
<path class="l7" d="M907.767 664.888L949.606 664.888"/>
<path class="l7" d="M1116.96 874.085L1116.96 915.925"/>
<path class="l7" d="M1451.68 915.925L1493.52 915.925"/>
<path class="l7" d="M1660.88 1125.12L1660.88 1166.96"/>
<path class="l7" d="M907.767 1166.96L949.606 1166.96"/>
<path class="l7" d="M1116.96 1376.16L1116.96 1418"/>
<text fill="#000000"  xml:space="preserve" font-size="32.6347" transform="translate(948.56, 410.013)" >down_digital_translator</text>
<text fill="#000000"  xml:space="preserve" font-size="21.7565" transform="translate(960.066, 115.628)" >x1</text>
<text fill="#000000"  xml:space="preserve" font-size="21.7565" transform="translate(960.066, 165.984)" >PDIGVDD</text>
<text fill="#000000"  xml:space="preserve" font-size="21.7565" transform="translate(960.066, 257.882)" >DIN</text>
<text fill="#000000"  xml:space="preserve" font-size="21.7565" transform="translate(1210.86, 257.882)" >DOUT</text>
<text fill="#000000"  xml:space="preserve" font-size="21.7565" transform="translate(1064.66, 354.261)" >PDIGVSS</text>
<text fill="#000000"  xml:space="preserve" font-size="16.3174" transform="translate(949.606, 135.793)" >1.2V</text>
<text fill="#000000"  xml:space="preserve" font-size="32.6347" transform="translate(1492.47, 661.049)" >down_digital_translator</text>
<text fill="#000000"  xml:space="preserve" font-size="21.7565" transform="translate(1503.98, 366.664)" >x2</text>
<text fill="#000000"  xml:space="preserve" font-size="21.7565" transform="translate(1503.98, 417.02)" >PDIGVDD</text>
<text fill="#000000"  xml:space="preserve" font-size="21.7565" transform="translate(1503.98, 508.918)" >DIN</text>
<text fill="#000000"  xml:space="preserve" font-size="21.7565" transform="translate(1754.77, 508.918)" >DOUT</text>
<text fill="#000000"  xml:space="preserve" font-size="21.7565" transform="translate(1608.58, 605.297)" >PDIGVSS</text>
<text fill="#000000"  xml:space="preserve" font-size="16.3174" transform="translate(1493.52, 386.829)" >1.2V</text>
<text fill="#000000"  xml:space="preserve" font-size="32.6347" transform="translate(948.56, 912.085)" >down_digital_translator</text>
<text fill="#000000"  xml:space="preserve" font-size="21.7565" transform="translate(960.066, 617.7)" >x3</text>
<text fill="#000000"  xml:space="preserve" font-size="21.7565" transform="translate(960.066, 668.056)" >PDIGVDD</text>
<text fill="#000000"  xml:space="preserve" font-size="21.7565" transform="translate(960.066, 759.954)" >DIN</text>
<text fill="#000000"  xml:space="preserve" font-size="21.7565" transform="translate(1210.86, 759.954)" >DOUT</text>
<text fill="#000000"  xml:space="preserve" font-size="21.7565" transform="translate(1064.66, 856.334)" >PDIGVSS</text>
<text fill="#000000"  xml:space="preserve" font-size="16.3174" transform="translate(949.606, 637.865)" >1.2V</text>
<text fill="#000000"  xml:space="preserve" font-size="32.6347" transform="translate(1492.47, 1163.12)" >down_digital_translator</text>
<text fill="#000000"  xml:space="preserve" font-size="21.7565" transform="translate(1503.98, 868.736)" >x4</text>
<text fill="#000000"  xml:space="preserve" font-size="21.7565" transform="translate(1503.98, 919.093)" >PDIGVDD</text>
<text fill="#000000"  xml:space="preserve" font-size="21.7565" transform="translate(1503.98, 1010.99)" >DIN</text>
<text fill="#000000"  xml:space="preserve" font-size="21.7565" transform="translate(1754.77, 1010.99)" >DOUT</text>
<text fill="#000000"  xml:space="preserve" font-size="21.7565" transform="translate(1608.58, 1107.37)" >PDIGVSS</text>
<text fill="#000000"  xml:space="preserve" font-size="16.3174" transform="translate(1493.52, 888.901)" >1.2V</text>
<text fill="#000000"  xml:space="preserve" font-size="35.8982" transform="translate(612.576, 69.25)" >PDIGVDD</text>
<text fill="#000000"  xml:space="preserve" font-size="35.8982" transform="translate(622.576, 1470.87)" >PDIGVSS</text>
<text fill="#000000"  xml:space="preserve" font-size="35.8982" transform="translate(695.864, 511.822)" >DIN3</text>
<text fill="#000000"  xml:space="preserve" font-size="35.8982" transform="translate(695.864, 762.858)" >DIN2</text>
<text fill="#000000"  xml:space="preserve" font-size="35.8982" transform="translate(695.864, 1013.89)" >DIN1</text>
<text fill="#000000"  xml:space="preserve" font-size="35.8982" transform="translate(695.864, 1264.93)" >DIN0</text>
<text fill="#000000"  xml:space="preserve" font-size="32.6347" transform="translate(948.56, 1414.16)" >down_digital_translator</text>
<text fill="#000000"  xml:space="preserve" font-size="21.7565" transform="translate(960.066, 1119.77)" >x5</text>
<text fill="#000000"  xml:space="preserve" font-size="21.7565" transform="translate(960.066, 1170.13)" >PDIGVDD</text>
<text fill="#000000"  xml:space="preserve" font-size="21.7565" transform="translate(960.066, 1262.03)" >DIN</text>
<text fill="#000000"  xml:space="preserve" font-size="21.7565" transform="translate(1210.86, 1262.03)" >DOUT</text>
<text fill="#000000"  xml:space="preserve" font-size="21.7565" transform="translate(1064.66, 1358.41)" >PDIGVSS</text>
<text fill="#000000"  xml:space="preserve" font-size="16.3174" transform="translate(949.606, 1139.94)" >1.2V</text>
<text fill="#000000"  xml:space="preserve" font-size="35.8982" transform="translate(695.864, 260.785)" >DIN4</text>
<text fill="#000000"  xml:space="preserve" font-size="35.8982" transform="translate(1953.75, 511.822)" >DOUT3</text>
<text fill="#000000"  xml:space="preserve" font-size="35.8982" transform="translate(1953.75, 762.858)" >DOUT2</text>
<text fill="#000000"  xml:space="preserve" font-size="35.8982" transform="translate(1953.75, 1013.89)" >DOUT1</text>
<text fill="#000000"  xml:space="preserve" font-size="35.8982" transform="translate(1953.75, 1264.93)" >DOUT0</text>
<text fill="#000000"  xml:space="preserve" font-size="35.8982" transform="translate(1953.75, 260.785)" >DOUT4</text>
<text fill="#000000"  xml:space="preserve" font-size="43.5129" transform="translate(960.066, 1614.4)" >x1.x7.         5x_down_digital_translator.sch</text>
<text fill="#000000"  xml:space="preserve" font-size="43.5129" transform="translate(960.066, 1551.65)" >Pascal Gesell</text>
<text fill="#000000"  xml:space="preserve" font-size="43.5129" transform="translate(2120.26, 1551.65)" >2026-03-23  10:53:39</text>
<text fill="#000000"  xml:space="preserve" font-size="108.782" transform="translate(478.913, 1610.91)" >SCHEM</text>
<path class="l1" d="M1409.84 413.852L1451.68 413.852"/>
<path class="l1" d="M1660.88 664.888L1660.88 706.728"/>
<path class="l1" d="M1368 706.728L1660.88 706.728"/>
<path class="l1" d="M1368 455.692L1368 706.728"/>
<path class="l1" d="M1116.96 455.692L1368 455.692"/>
<path class="l1" d="M1116.96 413.852L1116.96 455.692"/>
<path class="l1" d="M1409.84 915.925L1451.68 915.925"/>
<path class="l1" d="M1116.96 957.764L1368 957.764"/>
<path class="l1" d="M1116.96 915.925L1116.96 957.764"/>
<path class="l1" d="M1409.84 413.852L1409.84 915.925"/>
<path class="l1" d="M1368 706.728L1368 957.764"/>
<path class="l1" d="M1326.16 748.567L1911.91 748.567"/>
<path class="l1" d="M1870.07 999.603L1911.91 999.603"/>
<path class="l1" d="M1870.07 497.531L1911.91 497.531"/>
<path class="l1" d="M1326.16 246.495L1911.91 246.495"/>
<path class="l1" d="M865.928 664.888L907.767 664.888"/>
<path class="l1" d="M865.928 162.816L865.928 664.888"/>
<path class="l1" d="M865.928 162.816L907.767 162.816"/>
<path class="l1" d="M1409.84 58.2175L1409.84 413.852"/>
<path class="l1" d="M865.928 58.2175L1409.84 58.2175"/>
<path class="l1" d="M865.928 58.2175L865.928 162.816"/>
<path class="l1" d="M824.088 58.2175L865.928 58.2175"/>
<path class="l1" d="M824.088 246.495L907.767 246.495"/>
<path class="l1" d="M824.088 497.531L1451.68 497.531"/>
<path class="l1" d="M824.088 748.567L907.767 748.567"/>
<path class="l1" d="M1116.96 1459.84L1368 1459.84"/>
<path class="l1" d="M824.088 999.603L1451.68 999.603"/>
<path class="l1" d="M1326.16 1250.64L1911.91 1250.64"/>
<path class="l1" d="M1660.88 1166.96L1660.88 1208.8"/>
<path class="l1" d="M1368 1208.8L1660.88 1208.8"/>
<path class="l1" d="M1368 957.764L1368 1208.8"/>
<path class="l1" d="M1116.96 1418L1116.96 1459.84"/>
<path class="l1" d="M1368 1208.8L1368 1459.84"/>
<path class="l1" d="M824.088 1459.84L1116.96 1459.84"/>
<path class="l1" d="M865.928 1166.96L907.767 1166.96"/>
<path class="l1" d="M865.928 664.888L865.928 1166.96"/>
<path class="l1" d="M824.088 1250.64L907.767 1250.64"/>
<circle class="l1" cx="865.928" cy="664.888" r="7.74028"/>
<circle class="l1" cx="865.928" cy="58.2175" r="7.74028"/>
<circle class="l1" cx="865.928" cy="58.2175" r="7.74028"/>
<circle class="l1" cx="865.928" cy="162.816" r="7.74028"/>
<circle class="l1" cx="865.928" cy="58.2175" r="7.74028"/>
<circle class="l1" cx="865.928" cy="162.816" r="7.74028"/>
<circle class="l1" cx="865.928" cy="162.816" r="7.74028"/>
<circle class="l1" cx="865.928" cy="664.888" r="7.74028"/>
<circle class="l1" cx="865.928" cy="664.888" r="7.74028"/>
<circle class="l1" cx="1116.96" cy="1459.84" r="7.74028"/>
<circle class="l1" cx="1409.84" cy="413.852" r="7.74028"/>
<circle class="l1" cx="1368" cy="706.728" r="7.74028"/>
<circle class="l1" cx="1368" cy="957.764" r="7.74028"/>
<circle class="l1" cx="1409.84" cy="413.852" r="7.74028"/>
<circle class="l1" cx="1368" cy="706.728" r="7.74028"/>
<circle class="l1" cx="1368" cy="706.728" r="7.74028"/>
<circle class="l1" cx="1409.84" cy="413.852" r="7.74028"/>
<circle class="l1" cx="1368" cy="1208.8" r="7.74028"/>
<circle class="l1" cx="1116.96" cy="1459.84" r="7.74028"/>
<circle class="l1" cx="1368" cy="957.764" r="7.74028"/>
<circle class="l1" cx="1368" cy="1208.8" r="7.74028"/>
<circle class="l1" cx="1368" cy="1208.8" r="7.74028"/>
<circle class="l1" cx="1116.96" cy="1459.84" r="7.74028"/>
<circle class="l1" cx="1368" cy="957.764" r="7.74028"/>
</svg>
