<svg xmlns="http://www.w3.org/2000/svg" xmlns:xlink="http://www.w3.org/1999/xlink" width="2630" height="2621" version="1.1">
<style type="text/css">
.l0{
  fill: #ffffff;
  stroke: #ffffff;
  stroke-linecap:round;
  stroke-linejoin:round;
  stroke-width: 2.85645;
}
.l1{
  fill: #000000;
  stroke: #000000;
  stroke-linecap:round;
  stroke-linejoin:round;
  stroke-width: 2.85645;
}
.l2{
  fill: #000000; fill-opacity: 0.2;
  stroke: #000000;
  stroke-linecap:round;
  stroke-linejoin:round;
  stroke-width: 2.85645;
}
.l3{
  fill: #000000; fill-opacity: 0.5;
  stroke: #000000;
  stroke-linecap:round;
  stroke-linejoin:round;
  stroke-width: 2.85645;
}
.l4{
  fill: #000000;
  stroke: #000000;
  stroke-linecap:round;
  stroke-linejoin:round;
  stroke-width: 2.85645;
}
.l5{
  fill: #000000;
  stroke: #000000;
  stroke-linecap:round;
  stroke-linejoin:round;
  stroke-width: 2.85645;
}
.l6{
  fill: #000000; fill-opacity: 0.5;
  stroke: #000000;
  stroke-linecap:round;
  stroke-linejoin:round;
  stroke-width: 2.85645;
}
.l7{
  fill: #000000; fill-opacity: 0.5;
  stroke: #000000;
  stroke-linecap:round;
  stroke-linejoin:round;
  stroke-width: 2.85645;
}
.l8{
  fill: #000000; fill-opacity: 0.5;
  stroke: #000000;
  stroke-linecap:round;
  stroke-linejoin:round;
  stroke-width: 2.85645;
}
.l9{
  fill: #000000; fill-opacity: 0.5;
  stroke: #000000;
  stroke-linecap:round;
  stroke-linejoin:round;
  stroke-width: 2.85645;
}
.l10{
  fill: #000000;
  stroke: #000000;
  stroke-linecap:round;
  stroke-linejoin:round;
  stroke-width: 2.85645;
}
.l11{
  fill: #000000; fill-opacity: 0.5;
  stroke: #000000;
  stroke-linecap:round;
  stroke-linejoin:round;
  stroke-width: 2.85645;
}
.l12{
  fill: #000000; fill-opacity: 0.5;
  stroke: #000000;
  stroke-linecap:round;
  stroke-linejoin:round;
  stroke-width: 2.85645;
}
.l13{
  fill: #000000; fill-opacity: 0.5;
  stroke: #000000;
  stroke-linecap:round;
  stroke-linejoin:round;
  stroke-width: 2.85645;
}
.l14{
  fill: #000000; fill-opacity: 0.2;
  stroke: #000000;
  stroke-linecap:round;
  stroke-linejoin:round;
  stroke-width: 2.85645;
}
.l15{
  fill: #000000; fill-opacity: 0.5;
  stroke: #000000;
  stroke-linecap:round;
  stroke-linejoin:round;
  stroke-width: 2.85645;
}
.l16{
  fill: #000000; fill-opacity: 0.5;
  stroke: #000000;
  stroke-linecap:round;
  stroke-linejoin:round;
  stroke-width: 2.85645;
}
.l17{
  fill: #000000; fill-opacity: 0.2;
  stroke: #000000;
  stroke-linecap:round;
  stroke-linejoin:round;
  stroke-width: 2.85645;
}
.l18{
  fill: #000000; fill-opacity: 0.5;
  stroke: #000000;
  stroke-linecap:round;
  stroke-linejoin:round;
  stroke-width: 2.85645;
}
.l19{
  fill: #000000; fill-opacity: 0.2;
  stroke: #000000;
  stroke-linecap:round;
  stroke-linejoin:round;
  stroke-width: 2.85645;
}
.l20{
  fill: #000000; fill-opacity: 0.2;
  stroke: #000000;
  stroke-linecap:round;
  stroke-linejoin:round;
  stroke-width: 2.85645;
}
.l21{
  fill: #000000; fill-opacity: 0.2;
  stroke: #000000;
  stroke-linecap:round;
  stroke-linejoin:round;
  stroke-width: 2.85645;
}
text {font-family: Sans-Serif;}
</style>
<rect class="l0" x="0" y="0" width="2630" height="2621"/>
<path class="l4" d="M870.663 369.177L912.981 369.177"/>
<path class="l4" d="M1251.52 369.177L1293.84 369.177"/>
<path class="l4" d="M1039.93 305.701L1039.93 411.495"/>
<path class="l4" d="M1039.93 305.701L1124.57 369.177"/>
<path class="l4" d="M1039.93 432.654L1124.57 369.177"/>
<path class="l4" d="M1039.93 411.495L1039.93 432.654"/>
<path class="l4" d="M997.616 369.177L1039.93 369.177"/>
<path class="l4" d="M1137.27 369.177L1166.89 369.177"/>
<path class="l4" d="M955.299 474.972L976.458 474.972"/>
<path class="l4" d="M976.458 474.972L997.616 432.654"/>
<path class="l4" d="M997.616 432.654L1018.78 432.654"/>
<path class="l4" d="M1145.73 390.336L1166.89 390.336"/>
<path class="l4" d="M1166.89 390.336L1188.05 474.972"/>
<path class="l4" d="M1188.05 474.972L1209.21 474.972"/>
<path class="l4" style="fill:none;" d="M1251.52 242.224L912.981 242.224L912.981 496.131L1251.52 496.131L1251.52 242.224"/>
<circle class="l4" cx="1130.71" cy="368.966" r="6.56267" style="fill:none;" />
<path class="l4" d="M1463.11 623.084L1505.43 623.084"/>
<path class="l4" d="M1843.97 623.084L1886.29 623.084"/>
<path class="l4" d="M1632.38 559.608L1632.38 665.402"/>
<path class="l4" d="M1632.38 559.608L1717.02 623.084"/>
<path class="l4" d="M1632.38 686.561L1717.02 623.084"/>
<path class="l4" d="M1632.38 665.402L1632.38 686.561"/>
<path class="l4" d="M1590.07 623.084L1632.38 623.084"/>
<path class="l4" d="M1729.71 623.084L1759.34 623.084"/>
<path class="l4" d="M1547.75 728.879L1568.91 728.879"/>
<path class="l4" d="M1568.91 728.879L1590.07 686.561"/>
<path class="l4" d="M1590.07 686.561L1611.22 686.561"/>
<path class="l4" d="M1738.18 644.243L1759.34 644.243"/>
<path class="l4" d="M1759.34 644.243L1780.5 728.879"/>
<path class="l4" d="M1780.5 728.879L1801.65 728.879"/>
<path class="l4" style="fill:none;" d="M1843.97 496.131L1505.43 496.131L1505.43 750.038L1843.97 750.038L1843.97 496.131"/>
<circle class="l4" cx="1723.16" cy="622.873" r="6.56267" style="fill:none;" />
<path class="l4" d="M870.663 876.991L912.981 876.991"/>
<path class="l4" d="M1251.52 876.991L1293.84 876.991"/>
<path class="l4" d="M1039.93 813.514L1039.93 919.309"/>
<path class="l4" d="M1039.93 813.514L1124.57 876.991"/>
<path class="l4" d="M1039.93 940.468L1124.57 876.991"/>
<path class="l4" d="M1039.93 919.309L1039.93 940.468"/>
<path class="l4" d="M997.616 876.991L1039.93 876.991"/>
<path class="l4" d="M1137.27 876.991L1166.89 876.991"/>
<path class="l4" d="M955.299 982.786L976.458 982.786"/>
<path class="l4" d="M976.458 982.786L997.616 940.468"/>
<path class="l4" d="M997.616 940.468L1018.78 940.468"/>
<path class="l4" d="M1145.73 898.15L1166.89 898.15"/>
<path class="l4" d="M1166.89 898.15L1188.05 982.786"/>
<path class="l4" d="M1188.05 982.786L1209.21 982.786"/>
<path class="l4" style="fill:none;" d="M1251.52 750.038L912.981 750.038L912.981 1003.94L1251.52 1003.94L1251.52 750.038"/>
<circle class="l4" cx="1130.71" cy="876.78" r="6.56267" style="fill:none;" />
<path class="l4" d="M1463.11 1130.9L1505.43 1130.9"/>
<path class="l4" d="M1843.97 1130.9L1886.29 1130.9"/>
<path class="l4" d="M1632.38 1067.42L1632.38 1173.22"/>
<path class="l4" d="M1632.38 1067.42L1717.02 1130.9"/>
<path class="l4" d="M1632.38 1194.37L1717.02 1130.9"/>
<path class="l4" d="M1632.38 1173.22L1632.38 1194.37"/>
<path class="l4" d="M1590.07 1130.9L1632.38 1130.9"/>
<path class="l4" d="M1729.71 1130.9L1759.34 1130.9"/>
<path class="l4" d="M1547.75 1236.69L1568.91 1236.69"/>
<path class="l4" d="M1568.91 1236.69L1590.07 1194.37"/>
<path class="l4" d="M1590.07 1194.37L1611.22 1194.37"/>
<path class="l4" d="M1738.18 1152.06L1759.34 1152.06"/>
<path class="l4" d="M1759.34 1152.06L1780.5 1236.69"/>
<path class="l4" d="M1780.5 1236.69L1801.65 1236.69"/>
<path class="l4" style="fill:none;" d="M1843.97 1003.94L1505.43 1003.94L1505.43 1257.85L1843.97 1257.85L1843.97 1003.94"/>
<circle class="l4" cx="1723.16" cy="1130.69" r="6.56267" style="fill:none;" />
<path class="l4" d="M1463.11 1638.71L1505.43 1638.71"/>
<path class="l4" d="M1843.97 1638.71L1886.29 1638.71"/>
<path class="l4" d="M1632.38 1575.23L1632.38 1681.03"/>
<path class="l4" d="M1632.38 1575.23L1717.02 1638.71"/>
<path class="l4" d="M1632.38 1702.19L1717.02 1638.71"/>
<path class="l4" d="M1632.38 1681.03L1632.38 1702.19"/>
<path class="l4" d="M1590.07 1638.71L1632.38 1638.71"/>
<path class="l4" d="M1729.71 1638.71L1759.34 1638.71"/>
<path class="l4" d="M1547.75 1744.51L1568.91 1744.51"/>
<path class="l4" d="M1568.91 1744.51L1590.07 1702.19"/>
<path class="l4" d="M1590.07 1702.19L1611.22 1702.19"/>
<path class="l4" d="M1738.18 1659.87L1759.34 1659.87"/>
<path class="l4" d="M1759.34 1659.87L1780.5 1744.51"/>
<path class="l4" d="M1780.5 1744.51L1801.65 1744.51"/>
<path class="l4" style="fill:none;" d="M1843.97 1511.76L1505.43 1511.76L1505.43 1765.67L1843.97 1765.67L1843.97 1511.76"/>
<circle class="l4" cx="1723.16" cy="1638.5" r="6.56267" style="fill:none;" />
<path class="l4" d="M870.663 1384.8L912.981 1384.8"/>
<path class="l4" d="M1251.52 1384.8L1293.84 1384.8"/>
<path class="l4" d="M1039.93 1321.33L1039.93 1427.12"/>
<path class="l4" d="M1039.93 1321.33L1124.57 1384.8"/>
<path class="l4" d="M1039.93 1448.28L1124.57 1384.8"/>
<path class="l4" d="M1039.93 1427.12L1039.93 1448.28"/>
<path class="l4" d="M997.616 1384.8L1039.93 1384.8"/>
<path class="l4" d="M1137.27 1384.8L1166.89 1384.8"/>
<path class="l4" d="M955.299 1490.6L976.458 1490.6"/>
<path class="l4" d="M976.458 1490.6L997.616 1448.28"/>
<path class="l4" d="M997.616 1448.28L1018.78 1448.28"/>
<path class="l4" d="M1145.73 1405.96L1166.89 1405.96"/>
<path class="l4" d="M1166.89 1405.96L1188.05 1490.6"/>
<path class="l4" d="M1188.05 1490.6L1209.21 1490.6"/>
<path class="l4" style="fill:none;" d="M1251.52 1257.85L912.981 1257.85L912.981 1511.76L1251.52 1511.76L1251.52 1257.85"/>
<circle class="l4" cx="1130.71" cy="1384.59" r="6.56267" style="fill:none;" />
<path class="l4" d="M870.663 1892.62L912.981 1892.62"/>
<path class="l4" d="M1251.52 1892.62L1293.84 1892.62"/>
<path class="l4" d="M1039.93 1829.14L1039.93 1934.94"/>
<path class="l4" d="M1039.93 1829.14L1124.57 1892.62"/>
<path class="l4" d="M1039.93 1956.1L1124.57 1892.62"/>
<path class="l4" d="M1039.93 1934.94L1039.93 1956.1"/>
<path class="l4" d="M997.616 1892.62L1039.93 1892.62"/>
<path class="l4" d="M1137.27 1892.62L1166.89 1892.62"/>
<path class="l4" d="M955.299 1998.41L976.458 1998.41"/>
<path class="l4" d="M976.458 1998.41L997.616 1956.1"/>
<path class="l4" d="M997.616 1956.1L1018.78 1956.1"/>
<path class="l4" d="M1145.73 1913.78L1166.89 1913.78"/>
<path class="l4" d="M1166.89 1913.78L1188.05 1998.41"/>
<path class="l4" d="M1188.05 1998.41L1209.21 1998.41"/>
<path class="l4" style="fill:none;" d="M1251.52 1765.67L912.981 1765.67L912.981 2019.57L1251.52 2019.57L1251.52 1765.67"/>
<circle class="l4" cx="1130.71" cy="1892.41" r="6.56267" style="fill:none;" />
<path class="l4" d="M1463.11 2146.53L1505.43 2146.53"/>
<path class="l4" d="M1843.97 2146.53L1886.29 2146.53"/>
<path class="l4" d="M1632.38 2083.05L1632.38 2188.84"/>
<path class="l4" d="M1632.38 2083.05L1717.02 2146.53"/>
<path class="l4" d="M1632.38 2210L1717.02 2146.53"/>
<path class="l4" d="M1632.38 2188.84L1632.38 2210"/>
<path class="l4" d="M1590.07 2146.53L1632.38 2146.53"/>
<path class="l4" d="M1729.71 2146.53L1759.34 2146.53"/>
<path class="l4" d="M1547.75 2252.32L1568.91 2252.32"/>
<path class="l4" d="M1568.91 2252.32L1590.07 2210"/>
<path class="l4" d="M1590.07 2210L1611.22 2210"/>
<path class="l4" d="M1738.18 2167.68L1759.34 2167.68"/>
<path class="l4" d="M1759.34 2167.68L1780.5 2252.32"/>
<path class="l4" d="M1780.5 2252.32L1801.65 2252.32"/>
<path class="l4" style="fill:none;" d="M1843.97 2019.57L1505.43 2019.57L1505.43 2273.48L1843.97 2273.48L1843.97 2019.57"/>
<circle class="l4" cx="1723.16" cy="2146.31" r="6.56267" style="fill:none;" />
<path class="l5" d="M1288.55 279.252L1299.13 279.252L1299.13 289.832L1288.55 289.832L1288.55 279.252z"/>
<path class="l5" d="M865.373 279.252L875.953 279.252L875.953 289.832L865.373 289.832L865.373 279.252z"/>
<path class="l5" d="M865.373 363.888L875.953 363.888L875.953 374.467L865.373 374.467L865.373 363.888z"/>
<path class="l5" d="M1288.55 363.888L1299.13 363.888L1299.13 374.467L1288.55 374.467L1288.55 363.888z"/>
<path class="l5" d="M1076.96 533.159L1087.54 533.159L1087.54 543.738L1076.96 543.738L1076.96 533.159z"/>
<path class="l5" d="M1881 533.159L1891.58 533.159L1891.58 543.738L1881 543.738L1881 533.159z"/>
<path class="l5" d="M1457.82 533.159L1468.4 533.159L1468.4 543.738L1457.82 543.738L1457.82 533.159z"/>
<path class="l5" d="M1457.82 617.795L1468.4 617.795L1468.4 628.374L1457.82 628.374L1457.82 617.795z"/>
<path class="l5" d="M1881 617.795L1891.58 617.795L1891.58 628.374L1881 628.374L1881 617.795z"/>
<path class="l5" d="M1669.41 787.066L1679.99 787.066L1679.99 797.645L1669.41 797.645L1669.41 787.066z"/>
<path class="l5" d="M1288.55 787.066L1299.13 787.066L1299.13 797.645L1288.55 797.645L1288.55 787.066z"/>
<path class="l5" d="M865.373 787.066L875.953 787.066L875.953 797.645L865.373 797.645L865.373 787.066z"/>
<path class="l5" d="M865.373 871.701L875.953 871.701L875.953 882.281L865.373 882.281L865.373 871.701z"/>
<path class="l5" d="M1288.55 871.701L1299.13 871.701L1299.13 882.281L1288.55 882.281L1288.55 871.701z"/>
<path class="l5" d="M1076.96 1040.97L1087.54 1040.97L1087.54 1051.55L1076.96 1051.55L1076.96 1040.97z"/>
<path class="l5" d="M1881 1040.97L1891.58 1040.97L1891.58 1051.55L1881 1051.55L1881 1040.97z"/>
<path class="l5" d="M1457.82 1040.97L1468.4 1040.97L1468.4 1051.55L1457.82 1051.55L1457.82 1040.97z"/>
<path class="l5" d="M1457.82 1125.61L1468.4 1125.61L1468.4 1136.19L1457.82 1136.19L1457.82 1125.61z"/>
<path class="l5" d="M1881 1125.61L1891.58 1125.61L1891.58 1136.19L1881 1136.19L1881 1125.61z"/>
<path class="l5" d="M1669.41 1294.88L1679.99 1294.88L1679.99 1305.46L1669.41 1305.46L1669.41 1294.88z"/>
<path class="l5" d="M1881 1548.79L1891.58 1548.79L1891.58 1559.37L1881 1559.37L1881 1548.79z"/>
<path class="l5" d="M1457.82 1548.79L1468.4 1548.79L1468.4 1559.37L1457.82 1559.37L1457.82 1548.79z"/>
<path class="l5" d="M1457.82 1633.42L1468.4 1633.42L1468.4 1644L1457.82 1644L1457.82 1633.42z"/>
<path class="l5" d="M1881 1633.42L1891.58 1633.42L1891.58 1644L1881 1644L1881 1633.42z"/>
<path class="l5" d="M1669.41 1802.69L1679.99 1802.69L1679.99 1813.27L1669.41 1813.27L1669.41 1802.69z"/>
<path class="l5" d="M1288.55 1294.88L1299.13 1294.88L1299.13 1305.46L1288.55 1305.46L1288.55 1294.88z"/>
<path class="l5" d="M865.373 1294.88L875.953 1294.88L875.953 1305.46L865.373 1305.46L865.373 1294.88z"/>
<path class="l5" d="M865.373 1379.52L875.953 1379.52L875.953 1390.09L865.373 1390.09L865.373 1379.52z"/>
<path class="l5" d="M1288.55 1379.52L1299.13 1379.52L1299.13 1390.09L1288.55 1390.09L1288.55 1379.52z"/>
<path class="l5" d="M1076.96 1548.79L1087.54 1548.79L1087.54 1559.37L1076.96 1559.37L1076.96 1548.79z"/>
<path class="l5" d="M1288.55 1802.69L1299.13 1802.69L1299.13 1813.27L1288.55 1813.27L1288.55 1802.69z"/>
<path class="l5" d="M865.373 1802.69L875.953 1802.69L875.953 1813.27L865.373 1813.27L865.373 1802.69z"/>
<path class="l5" d="M865.373 1887.33L875.953 1887.33L875.953 1897.91L865.373 1897.91L865.373 1887.33z"/>
<path class="l5" d="M1288.55 1887.33L1299.13 1887.33L1299.13 1897.91L1288.55 1897.91L1288.55 1887.33z"/>
<path class="l5" d="M1076.96 2056.6L1087.54 2056.6L1087.54 2067.18L1076.96 2067.18L1076.96 2056.6z"/>
<path class="l5" d="M1881 2056.6L1891.58 2056.6L1891.58 2067.18L1881 2067.18L1881 2056.6z"/>
<path class="l5" d="M1457.82 2056.6L1468.4 2056.6L1468.4 2067.18L1457.82 2067.18L1457.82 2056.6z"/>
<path class="l5" d="M1457.82 2141.24L1468.4 2141.24L1468.4 2151.82L1457.82 2151.82L1457.82 2141.24z"/>
<path class="l5" d="M1881 2141.24L1891.58 2141.24L1891.58 2151.82L1881 2151.82L1881 2141.24z"/>
<path class="l5" d="M1669.41 2310.51L1679.99 2310.51L1679.99 2321.09L1669.41 2321.09L1669.41 2310.51z"/>
<path class="l5" d="M690.812 369.177L701.392 369.177"/>
<path class="l5" d="M690.812 369.177L682.878 358.598L664.364 358.598L672.298 369.177L664.364 379.757L682.878 379.757L690.812 369.177"/>
<path class="l5" d="M698.747 366.533L704.037 366.533L704.037 371.822L698.747 371.822L698.747 366.533z"/>
<path class="l5" d="M2055.56 369.177L2074.08 369.177"/>
<path class="l5" d="M2092.59 369.177L2084.66 358.598L2066.14 358.598L2074.08 369.177L2066.14 379.757L2084.66 379.757L2092.59 369.177"/>
<path class="l5" d="M2052.92 366.533L2058.21 366.533L2058.21 371.822L2052.92 371.822L2052.92 366.533z"/>
<path class="l5" d="M694.78 72.9528L701.392 72.9528"/>
<path class="l5" d="M672.298 62.3734L664.364 72.9528L672.298 83.5323L686.845 83.5323L694.78 72.9528L686.845 62.3734L672.298 62.3734"/>
<path class="l5" d="M698.747 70.3079L704.037 70.3079L704.037 75.5977L698.747 75.5977L698.747 70.3079z"/>
<path class="l5" d="M694.78 157.588L701.392 157.588"/>
<path class="l5" d="M672.298 147.009L664.364 157.588L672.298 168.168L686.845 168.168L694.78 157.588L686.845 147.009L672.298 147.009"/>
<path class="l5" d="M698.747 154.944L704.037 154.944L704.037 160.233L698.747 160.233L698.747 154.944z"/>
<path class="l5" d="M694.78 2358.11L701.392 2358.11"/>
<path class="l5" d="M672.298 2347.53L664.364 2358.11L672.298 2368.69L686.845 2368.69L694.78 2358.11L686.845 2347.53L672.298 2347.53"/>
<path class="l5" d="M698.747 2355.47L704.037 2355.47L704.037 2360.76L698.747 2360.76L698.747 2355.47z"/>
<path class="l5" d="M690.812 623.084L701.392 623.084"/>
<path class="l5" d="M690.812 623.084L682.878 612.505L664.364 612.505L672.298 623.084L664.364 633.664L682.878 633.664L690.812 623.084"/>
<path class="l5" d="M698.747 620.439L704.037 620.439L704.037 625.729L698.747 625.729L698.747 620.439z"/>
<path class="l5" d="M690.812 876.991L701.392 876.991"/>
<path class="l5" d="M690.812 876.991L682.878 866.412L664.364 866.412L672.298 876.991L664.364 887.571L682.878 887.571L690.812 876.991"/>
<path class="l5" d="M698.747 874.346L704.037 874.346L704.037 879.636L698.747 879.636L698.747 874.346z"/>
<path class="l5" d="M690.812 1130.9L701.392 1130.9"/>
<path class="l5" d="M690.812 1130.9L682.878 1120.32L664.364 1120.32L672.298 1130.9L664.364 1141.48L682.878 1141.48L690.812 1130.9"/>
<path class="l5" d="M698.747 1128.25L704.037 1128.25L704.037 1133.54L698.747 1133.54L698.747 1128.25z"/>
<path class="l5" d="M690.812 1384.8L701.392 1384.8"/>
<path class="l5" d="M690.812 1384.8L682.878 1374.23L664.364 1374.23L672.298 1384.8L664.364 1395.38L682.878 1395.38L690.812 1384.8"/>
<path class="l5" d="M698.747 1382.16L704.037 1382.16L704.037 1387.45L698.747 1387.45L698.747 1382.16z"/>
<path class="l5" d="M690.812 1638.71L701.392 1638.71"/>
<path class="l5" d="M690.812 1638.71L682.878 1628.13L664.364 1628.13L672.298 1638.71L664.364 1649.29L682.878 1649.29L690.812 1638.71"/>
<path class="l5" d="M698.747 1636.07L704.037 1636.07L704.037 1641.36L698.747 1641.36L698.747 1636.07z"/>
<path class="l5" d="M690.812 1892.62L701.392 1892.62"/>
<path class="l5" d="M690.812 1892.62L682.878 1882.04L664.364 1882.04L672.298 1892.62L664.364 1903.2L682.878 1903.2L690.812 1892.62"/>
<path class="l5" d="M698.747 1889.97L704.037 1889.97L704.037 1895.26L698.747 1895.26L698.747 1889.97z"/>
<path class="l5" d="M690.812 2146.53L701.392 2146.53"/>
<path class="l5" d="M690.812 2146.53L682.878 2135.95L664.364 2135.95L672.298 2146.53L664.364 2157.1L682.878 2157.1L690.812 2146.53"/>
<path class="l5" d="M698.747 2143.88L704.037 2143.88L704.037 2149.17L698.747 2149.17L698.747 2143.88z"/>
<path class="l5" d="M2055.56 623.084L2074.08 623.084"/>
<path class="l5" d="M2092.59 623.084L2084.66 612.505L2066.14 612.505L2074.08 623.084L2066.14 633.664L2084.66 633.664L2092.59 623.084"/>
<path class="l5" d="M2052.92 620.439L2058.21 620.439L2058.21 625.729L2052.92 625.729L2052.92 620.439z"/>
<path class="l5" d="M2055.56 876.991L2074.08 876.991"/>
<path class="l5" d="M2092.59 876.991L2084.66 866.412L2066.14 866.412L2074.08 876.991L2066.14 887.571L2084.66 887.571L2092.59 876.991"/>
<path class="l5" d="M2052.92 874.346L2058.21 874.346L2058.21 879.636L2052.92 879.636L2052.92 874.346z"/>
<path class="l5" d="M2055.56 1130.9L2074.08 1130.9"/>
<path class="l5" d="M2092.59 1130.9L2084.66 1120.32L2066.14 1120.32L2074.08 1130.9L2066.14 1141.48L2084.66 1141.48L2092.59 1130.9"/>
<path class="l5" d="M2052.92 1128.25L2058.21 1128.25L2058.21 1133.54L2052.92 1133.54L2052.92 1128.25z"/>
<path class="l5" d="M2055.56 1384.8L2074.08 1384.8"/>
<path class="l5" d="M2092.59 1384.8L2084.66 1374.23L2066.14 1374.23L2074.08 1384.8L2066.14 1395.38L2084.66 1395.38L2092.59 1384.8"/>
<path class="l5" d="M2052.92 1382.16L2058.21 1382.16L2058.21 1387.45L2052.92 1387.45L2052.92 1382.16z"/>
<path class="l5" d="M2055.56 1638.71L2074.08 1638.71"/>
<path class="l5" d="M2092.59 1638.71L2084.66 1628.13L2066.14 1628.13L2074.08 1638.71L2066.14 1649.29L2084.66 1649.29L2092.59 1638.71"/>
<path class="l5" d="M2052.92 1636.07L2058.21 1636.07L2058.21 1641.36L2052.92 1641.36L2052.92 1636.07z"/>
<path class="l5" d="M2055.56 1892.62L2074.08 1892.62"/>
<path class="l5" d="M2092.59 1892.62L2084.66 1882.04L2066.14 1882.04L2074.08 1892.62L2066.14 1903.2L2084.66 1903.2L2092.59 1892.62"/>
<path class="l5" d="M2052.92 1889.97L2058.21 1889.97L2058.21 1895.26L2052.92 1895.26L2052.92 1889.97z"/>
<path class="l5" d="M2055.56 2146.53L2074.08 2146.53"/>
<path class="l5" d="M2092.59 2146.53L2084.66 2135.95L2066.14 2135.95L2074.08 2146.53L2066.14 2157.1L2084.66 2157.1L2092.59 2146.53"/>
<path class="l5" d="M2052.92 2143.88L2058.21 2143.88L2058.21 2149.17L2052.92 2149.17L2052.92 2143.88z"/>
<path class="l5" d="M384.008 2474.49L383.347 2475.15L382.686 2475.81L382.025 2476.47L381.363 2477.13L380.702 2477.79L380.041 2478.46L379.38 2479.12L378.719 2479.78L378.057 2480.44L377.396 2481.1L376.735 2481.76L376.074 2482.42L375.412 2483.08L374.751 2483.75L374.09 2484.41L373.429 2485.07L372.768 2485.73L372.106 2486.39L371.445 2487.05L370.784 2487.71L370.123 2488.37L369.462 2489.04L368.8 2489.7L368.139 2490.36L367.478 2491.02L366.817 2491.68L366.155 2492.34L365.494 2493L364.833 2493.66L364.172 2494.32L363.511 2494.99L362.849 2495.65L362.849 2495.65L362.209 2496.31L361.61 2496.97L361.052 2497.63L360.535 2498.29L360.06 2498.95L359.626 2499.61L359.233 2500.28L358.882 2500.94L358.572 2501.6L358.304 2502.26L358.076 2502.92L357.89 2503.58L357.746 2504.24L357.642 2504.9L357.58 2505.57L357.56 2506.23L357.58 2506.89L357.642 2507.55L357.746 2508.21L357.89 2508.87L358.076 2509.53L358.304 2510.19L358.572 2510.86L358.882 2511.52L359.233 2512.18L359.626 2512.84L360.06 2513.5L360.535 2514.16L361.052 2514.82L361.61 2515.48L362.209 2516.14L362.849 2516.81L362.849 2516.81L363.513 2517.47L364.182 2518.14L364.856 2518.81L365.536 2519.49L366.22 2520.18L366.91 2520.87L367.604 2521.56L368.304 2522.26L369.01 2522.97L369.72 2523.68L370.435 2524.39L371.156 2525.11L371.882 2525.84L372.613 2526.57L373.349 2527.31L374.09 2528.05L374.836 2528.79L375.588 2529.54L376.345 2530.3L377.107 2531.06L377.874 2531.83L378.646 2532.6L379.424 2533.38L380.206 2534.16L380.994 2534.95L381.787 2535.74L382.585 2536.54L383.388 2537.35L384.197 2538.15L385.01 2538.97L385.829 2539.79L386.653 2540.61L386.653 2540.61L387.474 2541.43L388.286 2542.24L389.086 2543.04L389.877 2543.83L390.657 2544.61L391.426 2545.38L392.186 2546.14L392.935 2546.89L393.673 2547.63L394.402 2548.36L395.12 2549.08L395.827 2549.78L396.525 2550.48L397.212 2551.17L397.889 2551.85L398.555 2552.51L399.211 2553.17L399.857 2553.81L400.492 2554.45L401.117 2555.07L401.732 2555.69L402.336 2556.29L402.93 2556.89L403.514 2557.47L404.088 2558.04L404.651 2558.61L405.203 2559.16L405.746 2559.7L406.278 2560.23L406.8 2560.76L407.311 2561.27L407.812 2561.77L407.812 2561.77L408.292 2562.26L408.742 2562.73L409.16 2563.19L409.548 2563.63L409.904 2564.05L410.23 2564.47L410.524 2564.86L410.787 2565.24L411.02 2565.6L411.221 2565.95L411.392 2566.29L411.531 2566.6L411.64 2566.91L411.717 2567.19L411.764 2567.46L411.779 2567.72L411.764 2567.96L411.717 2568.18L411.64 2568.39L411.531 2568.59L411.392 2568.77L411.221 2568.93L411.02 2569.08L410.787 2569.21L410.524 2569.32L410.23 2569.42L409.904 2569.51L409.548 2569.58L409.16 2569.63L408.742 2569.67L408.292 2569.7L407.812 2569.7L407.812 2569.7L407.316 2569.7L406.82 2569.7L406.324 2569.7L405.828 2569.7L405.332 2569.7L404.837 2569.7L404.341 2569.7L403.845 2569.7L403.349 2569.7L402.853 2569.7L402.357 2569.7L401.861 2569.7L401.365 2569.7L400.869 2569.7L400.373 2569.7L399.877 2569.7L399.382 2569.7L398.886 2569.7L398.39 2569.7L397.894 2569.7L397.398 2569.7L396.902 2569.7L396.406 2569.7L395.91 2569.7L395.414 2569.7L394.918 2569.7L394.422 2569.7L393.926 2569.7L393.431 2569.7L392.935 2569.7L392.439 2569.7L391.943 2569.7L391.943 2569.7L391.45 2569.7L390.961 2569.7L390.478 2569.7L390.001 2569.7L389.528 2569.7L389.06 2569.7L388.598 2569.7L388.141 2569.7L387.689 2569.7L387.242 2569.7L386.8 2569.7L386.364 2569.7L385.933 2569.7L385.506 2569.7L385.085 2569.7L384.669 2569.7L384.259 2569.7L383.853 2569.7L383.453 2569.7L383.058 2569.7L382.668 2569.7L382.283 2569.7L381.903 2569.7L381.529 2569.7L381.159 2569.7L380.795 2569.7L380.436 2569.7L380.082 2569.7L379.734 2569.7L379.39 2569.7L379.052 2569.7L378.719 2569.7L378.719 2569.7L378.388 2569.7L378.057 2569.68L377.727 2569.66L377.396 2569.62L377.065 2569.57L376.735 2569.52L376.404 2569.45L376.074 2569.37L375.743 2569.28L375.412 2569.19L375.082 2569.08L374.751 2568.96L374.421 2568.83L374.09 2568.69L373.759 2568.54L373.429 2568.38L373.098 2568.21L372.768 2568.03L372.437 2567.84L372.106 2567.64L371.776 2567.43L371.445 2567.2L371.115 2566.97L370.784 2566.73L370.453 2566.47L370.123 2566.21L369.792 2565.94L369.462 2565.65L369.131 2565.36L368.8 2565.05L368.47 2564.74L368.139 2564.41L368.139 2564.41L367.808 2564.08L367.478 2563.75L367.147 2563.42L366.817 2563.09L366.486 2562.76L366.155 2562.43L365.825 2562.1L365.494 2561.77L365.164 2561.44L364.833 2561.11L364.502 2560.78L364.172 2560.45L363.841 2560.12L363.511 2559.79L363.18 2559.45L362.849 2559.12L362.519 2558.79L362.188 2558.46L361.858 2558.13L361.527 2557.8L361.196 2557.47L360.866 2557.14L360.535 2556.81L360.204 2556.48L359.874 2556.15L359.543 2555.82L359.213 2555.49L358.882 2555.16L358.551 2554.83L358.221 2554.5L357.89 2554.16L357.56 2553.83L357.56 2553.83L357.224 2553.5L356.878 2553.15L356.521 2552.8L356.155 2552.43L355.777 2552.05L355.39 2551.66L354.992 2551.27L354.584 2550.86L354.166 2550.44L353.737 2550.01L353.298 2549.57L352.848 2549.12L352.389 2548.66L351.919 2548.19L351.438 2547.71L350.947 2547.22L350.446 2546.72L349.935 2546.21L349.413 2545.69L348.881 2545.16L348.339 2544.61L347.786 2544.06L347.223 2543.5L346.65 2542.92L346.066 2542.34L345.472 2541.75L344.867 2541.14L344.253 2540.53L343.628 2539.9L342.992 2539.27L342.347 2538.62L341.69 2537.97L341.69 2537.97L341.029 2537.32L340.368 2536.73L339.707 2536.17L339.046 2535.65L338.384 2535.18L337.723 2534.74L337.062 2534.35L336.401 2534L335.74 2533.69L335.078 2533.42L334.417 2533.19L333.756 2533.01L333.095 2532.86L332.433 2532.76L331.772 2532.7L331.111 2532.68L330.45 2532.7L329.789 2532.76L329.127 2532.86L328.466 2533.01L327.805 2533.19L327.144 2533.42L326.482 2533.69L325.821 2534L325.16 2534.35L324.499 2534.74L323.838 2535.18L323.176 2535.65L322.515 2536.17L321.854 2536.73L321.193 2537.32L320.532 2537.97L320.532 2537.97L319.876 2538.62L319.23 2539.27L318.594 2539.9L317.969 2540.53L317.355 2541.14L316.75 2541.75L316.156 2542.34L315.572 2542.92L314.999 2543.5L314.436 2544.06L313.883 2544.61L313.341 2545.16L312.809 2545.69L312.287 2546.21L311.776 2546.72L311.275 2547.22L310.784 2547.71L310.303 2548.19L309.833 2548.66L309.374 2549.12L308.924 2549.57L308.485 2550.01L308.056 2550.44L307.638 2550.86L307.23 2551.27L306.832 2551.66L306.445 2552.05L306.067 2552.43L305.701 2552.8L305.344 2553.15L304.998 2553.5L304.662 2553.83L304.662 2553.83L304.332 2554.16L304.001 2554.5L303.671 2554.83L303.34 2555.16L303.009 2555.49L302.679 2555.82L302.348 2556.15L302.018 2556.48L301.687 2556.81L301.356 2557.14L301.026 2557.47L300.695 2557.8L300.364 2558.13L300.034 2558.46L299.703 2558.79L299.373 2559.12L299.042 2559.45L298.711 2559.79L298.381 2560.12L298.05 2560.45L297.72 2560.78L297.389 2561.11L297.058 2561.44L296.728 2561.77L296.397 2562.1L296.067 2562.43L295.736 2562.76L295.405 2563.09L295.075 2563.42L294.744 2563.75L294.414 2564.08L294.083 2564.41L294.083 2564.41L293.752 2564.74L293.422 2565.05L293.091 2565.36L292.76 2565.65L292.43 2565.94L292.099 2566.21L291.769 2566.47L291.438 2566.73L291.107 2566.97L290.777 2567.2L290.446 2567.43L290.116 2567.64L289.785 2567.84L289.454 2568.03L289.124 2568.21L288.793 2568.38L288.463 2568.54L288.132 2568.69L287.801 2568.83L287.471 2568.96L287.14 2569.08L286.81 2569.19L286.479 2569.28L286.148 2569.37L285.818 2569.45L285.487 2569.52L285.157 2569.57L284.826 2569.62L284.495 2569.66L284.165 2569.68L283.834 2569.7L283.503 2569.7L283.503 2569.7L283.17 2569.7L282.832 2569.7L282.488 2569.7L282.14 2569.7L281.786 2569.7L281.427 2569.7L281.063 2569.7L280.693 2569.7L280.319 2569.7L279.939 2569.7L279.554 2569.7L279.164 2569.7L278.769 2569.7L278.369 2569.7L277.963 2569.7L277.553 2569.7L277.137 2569.7L276.716 2569.7L276.29 2569.7L275.858 2569.7L275.422 2569.7L274.98 2569.7L274.533 2569.7L274.081 2569.7L273.624 2569.7L273.162 2569.7L272.694 2569.7L272.221 2569.7L271.744 2569.7L271.261 2569.7L270.772 2569.7L270.279 2569.7L270.279 2569.7L269.783 2569.7L269.287 2569.7L268.791 2569.7L268.296 2569.7L267.8 2569.7L267.304 2569.7L266.808 2569.7L266.312 2569.7L265.816 2569.7L265.32 2569.7L264.824 2569.7L264.328 2569.7L263.832 2569.7L263.336 2569.7L262.84 2569.7L262.345 2569.7L261.849 2569.7L261.353 2569.7L260.857 2569.7L260.361 2569.7L259.865 2569.7L259.369 2569.7L258.873 2569.7L258.377 2569.7L257.881 2569.7L257.385 2569.7L256.89 2569.7L256.394 2569.7L255.898 2569.7L255.402 2569.7L254.906 2569.7L254.41 2569.7L254.41 2569.7L253.93 2569.7L253.48 2569.67L253.062 2569.63L252.674 2569.58L252.318 2569.51L251.992 2569.42L251.698 2569.32L251.435 2569.21L251.202 2569.08L251.001 2568.93L250.83 2568.77L250.691 2568.59L250.582 2568.39L250.505 2568.18L250.458 2567.96L250.443 2567.72L250.458 2567.46L250.505 2567.19L250.582 2566.91L250.691 2566.6L250.83 2566.29L251.001 2565.95L251.202 2565.6L251.435 2565.24L251.698 2564.86L251.992 2564.47L252.318 2564.05L252.674 2563.63L253.062 2563.19L253.48 2562.73L253.93 2562.26L254.41 2561.77L254.41 2561.77L254.911 2561.27L255.422 2560.76L255.944 2560.23L256.476 2559.7L257.019 2559.16L257.571 2558.61L258.134 2558.04L258.708 2557.47L259.292 2556.89L259.886 2556.29L260.49 2555.69L261.105 2555.07L261.73 2554.45L262.365 2553.81L263.011 2553.17L263.667 2552.51L264.333 2551.85L265.01 2551.17L265.697 2550.48L266.395 2549.78L267.102 2549.08L267.82 2548.36L268.549 2547.63L269.287 2546.89L270.036 2546.14L270.796 2545.38L271.565 2544.61L272.345 2543.83L273.136 2543.04L273.937 2542.24L274.748 2541.43L275.569 2540.61L275.569 2540.61L276.393 2539.79L277.212 2538.97L278.025 2538.15L278.834 2537.35L279.637 2536.54L280.435 2535.74L281.228 2534.95L282.016 2534.16L282.798 2533.38L283.576 2532.6L284.348 2531.83L285.115 2531.06L285.877 2530.3L286.634 2529.54L287.386 2528.79L288.132 2528.05L288.873 2527.31L289.609 2526.57L290.34 2525.84L291.066 2525.11L291.787 2524.39L292.502 2523.68L293.212 2522.97L293.918 2522.26L294.618 2521.56L295.312 2520.87L296.002 2520.18L296.686 2519.49L297.366 2518.81L298.04 2518.14L298.709 2517.47L299.373 2516.81L299.373 2516.81L300.013 2516.14L300.612 2515.48L301.17 2514.82L301.687 2514.16L302.162 2513.5L302.596 2512.84L302.989 2512.18L303.34 2511.52L303.65 2510.86L303.919 2510.19L304.146 2509.53L304.332 2508.87L304.476 2508.21L304.58 2507.55L304.642 2506.89L304.662 2506.23L304.642 2505.57L304.58 2504.9L304.476 2504.24L304.332 2503.58L304.146 2502.92L303.919 2502.26L303.65 2501.6L303.34 2500.94L302.989 2500.28L302.596 2499.61L302.162 2498.95L301.687 2498.29L301.17 2497.63L300.612 2496.97L300.013 2496.31L299.373 2495.65L299.373 2495.65L298.709 2494.98L298.04 2494.31L297.366 2493.64L296.686 2492.96L296.002 2492.28L295.312 2491.59L294.618 2490.89L293.918 2490.19L293.212 2489.49L292.502 2488.78L291.787 2488.06L291.066 2487.34L290.34 2486.61L289.609 2485.88L288.873 2485.15L288.132 2484.41L287.386 2483.66L286.634 2482.91L285.877 2482.15L285.115 2481.39L284.348 2480.62L283.576 2479.85L282.798 2479.07L282.016 2478.29L281.228 2477.5L280.435 2476.71L279.637 2475.91L278.834 2475.11L278.025 2474.3L277.212 2473.49L276.393 2472.67L275.569 2471.84L275.569 2471.84L274.748 2471.02L273.937 2470.21L273.136 2469.41L272.345 2468.62L271.565 2467.84L270.796 2467.07L270.036 2466.31L269.287 2465.56L268.549 2464.82L267.82 2464.09L267.102 2463.38L266.395 2462.67L265.697 2461.97L265.01 2461.28L264.333 2460.61L263.667 2459.94L263.011 2459.29L262.365 2458.64L261.73 2458L261.105 2457.38L260.49 2456.76L259.886 2456.16L259.292 2455.57L258.708 2454.98L258.134 2454.41L257.571 2453.85L257.019 2453.29L256.476 2452.75L255.944 2452.22L255.422 2451.7L254.911 2451.19L254.41 2450.68L254.41 2450.68L253.93 2450.2L253.48 2449.72L253.062 2449.27L252.674 2448.82L252.318 2448.4L251.992 2447.99L251.698 2447.59L251.435 2447.21L251.202 2446.85L251.001 2446.5L250.83 2446.17L250.691 2445.85L250.582 2445.55L250.505 2445.26L250.458 2444.99L250.443 2444.73L250.458 2444.49L250.505 2444.27L250.582 2444.06L250.691 2443.87L250.83 2443.69L251.001 2443.52L251.202 2443.38L251.435 2443.25L251.698 2443.13L251.992 2443.03L252.318 2442.94L252.674 2442.87L253.062 2442.82L253.48 2442.78L253.93 2442.76L254.41 2442.75L254.41 2442.75L254.906 2442.75L255.402 2442.75L255.898 2442.75L256.394 2442.75L256.89 2442.75L257.385 2442.75L257.881 2442.75L258.377 2442.75L258.873 2442.75L259.369 2442.75L259.865 2442.75L260.361 2442.75L260.857 2442.75L261.353 2442.75L261.849 2442.75L262.345 2442.75L262.84 2442.75L263.336 2442.75L263.832 2442.75L264.328 2442.75L264.824 2442.75L265.32 2442.75L265.816 2442.75L266.312 2442.75L266.808 2442.75L267.304 2442.75L267.8 2442.75L268.296 2442.75L268.791 2442.75L269.287 2442.75L269.783 2442.75L270.279 2442.75L270.279 2442.75L270.772 2442.75L271.261 2442.75L271.744 2442.75L272.221 2442.75L272.694 2442.75L273.162 2442.75L273.624 2442.75L274.081 2442.75L274.533 2442.75L274.98 2442.75L275.422 2442.75L275.858 2442.75L276.29 2442.75L276.716 2442.75L277.137 2442.75L277.553 2442.75L277.963 2442.75L278.369 2442.75L278.769 2442.75L279.164 2442.75L279.554 2442.75L279.939 2442.75L280.319 2442.75L280.693 2442.75L281.063 2442.75L281.427 2442.75L281.786 2442.75L282.14 2442.75L282.488 2442.75L282.832 2442.75L283.17 2442.75L283.503 2442.75L283.503 2442.75L283.834 2442.76L284.165 2442.77L284.495 2442.8L284.826 2442.83L285.157 2442.88L285.487 2442.94L285.818 2443L286.148 2443.08L286.479 2443.17L286.81 2443.27L287.14 2443.38L287.471 2443.49L287.801 2443.62L288.132 2443.76L288.463 2443.91L288.793 2444.07L289.124 2444.24L289.454 2444.42L289.785 2444.61L290.116 2444.82L290.446 2445.03L290.777 2445.25L291.107 2445.48L291.438 2445.73L291.769 2445.98L292.099 2446.24L292.43 2446.52L292.76 2446.8L293.091 2447.09L293.422 2447.4L293.752 2447.71L294.083 2448.04L294.083 2448.04L294.414 2448.37L294.744 2448.7L295.075 2449.03L295.405 2449.36L295.736 2449.69L296.067 2450.02L296.397 2450.35L296.728 2450.68L297.058 2451.02L297.389 2451.35L297.72 2451.68L298.05 2452.01L298.381 2452.34L298.711 2452.67L299.042 2453L299.373 2453.33L299.703 2453.66L300.034 2453.99L300.364 2454.32L300.695 2454.65L301.026 2454.98L301.356 2455.31L301.687 2455.64L302.018 2455.97L302.348 2456.3L302.679 2456.64L303.009 2456.97L303.34 2457.3L303.671 2457.63L304.001 2457.96L304.332 2458.29L304.662 2458.62L304.662 2458.62L304.998 2458.95L305.344 2459.3L305.701 2459.66L306.067 2460.02L306.445 2460.4L306.832 2460.79L307.23 2461.19L307.638 2461.59L308.056 2462.01L308.485 2462.44L308.924 2462.88L309.374 2463.33L309.833 2463.79L310.303 2464.26L310.784 2464.74L311.275 2465.23L311.776 2465.73L312.287 2466.24L312.809 2466.77L313.341 2467.3L313.883 2467.84L314.436 2468.39L314.999 2468.96L315.572 2469.53L316.156 2470.11L316.75 2470.71L317.355 2471.31L317.969 2471.93L318.594 2472.55L319.23 2473.19L319.876 2473.83L320.532 2474.49L320.532 2474.49L321.193 2475.13L321.854 2475.73L322.515 2476.29L323.176 2476.8L323.838 2477.28L324.499 2477.71L325.16 2478.1L325.821 2478.46L326.482 2478.77L327.144 2479.03L327.805 2479.26L328.466 2479.45L329.127 2479.59L329.789 2479.7L330.45 2479.76L331.111 2479.78L331.772 2479.76L332.433 2479.7L333.095 2479.59L333.756 2479.45L334.417 2479.26L335.078 2479.03L335.74 2478.77L336.401 2478.46L337.062 2478.1L337.723 2477.71L338.384 2477.28L339.046 2476.8L339.707 2476.29L340.368 2475.73L341.029 2475.13L341.69 2474.49L341.69 2474.49L342.347 2473.83L342.992 2473.19L343.628 2472.55L344.253 2471.93L344.867 2471.31L345.472 2470.71L346.066 2470.11L346.65 2469.53L347.223 2468.96L347.786 2468.39L348.339 2467.84L348.881 2467.3L349.413 2466.77L349.935 2466.24L350.446 2465.73L350.947 2465.23L351.438 2464.74L351.919 2464.26L352.389 2463.79L352.848 2463.33L353.298 2462.88L353.737 2462.44L354.166 2462.01L354.584 2461.59L354.992 2461.19L355.39 2460.79L355.777 2460.4L356.155 2460.02L356.521 2459.66L356.878 2459.3L357.224 2458.95L357.56 2458.62L357.56 2458.62L357.89 2458.29L358.221 2457.96L358.551 2457.63L358.882 2457.3L359.213 2456.97L359.543 2456.64L359.874 2456.3L360.204 2455.97L360.535 2455.64L360.866 2455.31L361.196 2454.98L361.527 2454.65L361.858 2454.32L362.188 2453.99L362.519 2453.66L362.849 2453.33L363.18 2453L363.511 2452.67L363.841 2452.34L364.172 2452.01L364.502 2451.68L364.833 2451.35L365.164 2451.02L365.494 2450.68L365.825 2450.35L366.155 2450.02L366.486 2449.69L366.817 2449.36L367.147 2449.03L367.478 2448.7L367.808 2448.37L368.139 2448.04L368.139 2448.04L368.47 2447.71L368.8 2447.4L369.131 2447.09L369.462 2446.8L369.792 2446.52L370.123 2446.24L370.453 2445.98L370.784 2445.73L371.115 2445.48L371.445 2445.25L371.776 2445.03L372.106 2444.82L372.437 2444.61L372.768 2444.42L373.098 2444.24L373.429 2444.07L373.759 2443.91L374.09 2443.76L374.421 2443.62L374.751 2443.49L375.082 2443.38L375.412 2443.27L375.743 2443.17L376.074 2443.08L376.404 2443L376.735 2442.94L377.065 2442.88L377.396 2442.83L377.727 2442.8L378.057 2442.77L378.388 2442.76L378.719 2442.75L378.719 2442.75L379.052 2442.75L379.39 2442.75L379.734 2442.75L380.082 2442.75L380.436 2442.75L380.795 2442.75L381.159 2442.75L381.529 2442.75L381.903 2442.75L382.283 2442.75L382.668 2442.75L383.058 2442.75L383.453 2442.75L383.853 2442.75L384.259 2442.75L384.669 2442.75L385.085 2442.75L385.506 2442.75L385.933 2442.75L386.364 2442.75L386.8 2442.75L387.242 2442.75L387.689 2442.75L388.141 2442.75L388.598 2442.75L389.06 2442.75L389.528 2442.75L390.001 2442.75L390.478 2442.75L390.961 2442.75L391.45 2442.75L391.943 2442.75L391.943 2442.75L392.439 2442.75L392.935 2442.75L393.431 2442.75L393.926 2442.75L394.422 2442.75L394.918 2442.75L395.414 2442.75L395.91 2442.75L396.406 2442.75L396.902 2442.75L397.398 2442.75L397.894 2442.75L398.39 2442.75L398.886 2442.75L399.382 2442.75L399.877 2442.75L400.373 2442.75L400.869 2442.75L401.365 2442.75L401.861 2442.75L402.357 2442.75L402.853 2442.75L403.349 2442.75L403.845 2442.75L404.341 2442.75L404.837 2442.75L405.332 2442.75L405.828 2442.75L406.324 2442.75L406.82 2442.75L407.316 2442.75L407.812 2442.75L407.812 2442.75L408.292 2442.76L408.742 2442.78L409.16 2442.82L409.548 2442.87L409.904 2442.94L410.23 2443.03L410.524 2443.13L410.787 2443.25L411.02 2443.38L411.221 2443.52L411.392 2443.69L411.531 2443.87L411.64 2444.06L411.717 2444.27L411.764 2444.49L411.779 2444.73L411.764 2444.99L411.717 2445.26L411.64 2445.55L411.531 2445.85L411.392 2446.17L411.221 2446.5L411.02 2446.85L410.787 2447.21L410.524 2447.59L410.23 2447.99L409.904 2448.4L409.548 2448.82L409.16 2449.27L408.742 2449.72L408.292 2450.2L407.812 2450.68L407.812 2450.68L407.308 2451.19L406.789 2451.71L406.255 2452.24L405.704 2452.79L405.139 2453.36L404.558 2453.94L403.961 2454.54L403.349 2455.15L402.721 2455.78L402.078 2456.42L401.419 2457.08L400.745 2457.75L400.056 2458.44L399.351 2459.15L398.63 2459.87L397.894 2460.6L397.142 2461.35L396.375 2462.12L395.592 2462.9L394.794 2463.7L393.981 2464.52L393.152 2465.34L392.307 2466.19L391.447 2467.05L390.571 2467.93L389.68 2468.82L388.774 2469.72L387.852 2470.65L386.914 2471.58L385.961 2472.54L384.992 2473.5L384.008 2474.49"/>
<path class="l6" d="M881.242 2506.23L2563.38 2506.23"/>
<path class="l6" d="M66.6247 2506.23L204.158 2506.23"/>
<path class="l7" d="M1251.52 284.542L1293.84 284.542"/>
<path class="l7" d="M870.663 284.542L912.981 284.542"/>
<path class="l7" d="M1082.25 496.131L1082.25 538.449"/>
<path class="l7" d="M1843.97 538.449L1886.29 538.449"/>
<path class="l7" d="M1463.11 538.449L1505.43 538.449"/>
<path class="l7" d="M1674.7 750.038L1674.7 792.356"/>
<path class="l7" d="M1251.52 792.356L1293.84 792.356"/>
<path class="l7" d="M870.663 792.356L912.981 792.356"/>
<path class="l7" d="M1082.25 1003.94L1082.25 1046.26"/>
<path class="l7" d="M1843.97 1046.26L1886.29 1046.26"/>
<path class="l7" d="M1463.11 1046.26L1505.43 1046.26"/>
<path class="l7" d="M1674.7 1257.85L1674.7 1300.17"/>
<path class="l7" d="M1843.97 1554.08L1886.29 1554.08"/>
<path class="l7" d="M1463.11 1554.08L1505.43 1554.08"/>
<path class="l7" d="M1674.7 1765.67L1674.7 1807.98"/>
<path class="l7" d="M1251.52 1300.17L1293.84 1300.17"/>
<path class="l7" d="M870.663 1300.17L912.981 1300.17"/>
<path class="l7" d="M1082.25 1511.76L1082.25 1554.08"/>
<path class="l7" d="M1251.52 1807.98L1293.84 1807.98"/>
<path class="l7" d="M870.663 1807.98L912.981 1807.98"/>
<path class="l7" d="M1082.25 2019.57L1082.25 2061.89"/>
<path class="l7" d="M1843.97 2061.89L1886.29 2061.89"/>
<path class="l7" d="M1463.11 2061.89L1505.43 2061.89"/>
<path class="l7" d="M1674.7 2273.48L1674.7 2315.8"/>
<text fill="#000000"  xml:space="preserve" font-size="33.0079" transform="translate(911.923, 534.566)" >inverting_digital_level_translator</text>
<text fill="#000000"  xml:space="preserve" font-size="22.0053" transform="translate(923.56, 236.814)" >x1</text>
<text fill="#000000"  xml:space="preserve" font-size="22.0053" transform="translate(1151.94, 296.059)" >PLAVDD</text>
<text fill="#000000"  xml:space="preserve" font-size="22.0053" transform="translate(923.56, 287.746)" >PLDVDD</text>
<text fill="#000000"  xml:space="preserve" font-size="22.0053" transform="translate(923.56, 380.695)" >LIN</text>
<text fill="#000000"  xml:space="preserve" font-size="22.0053" transform="translate(1168.94, 380.695)" >nLOUT</text>
<text fill="#000000"  xml:space="preserve" font-size="22.0053" transform="translate(1085.46, 485.551) rotate(270)" >PLVSS</text>
<text fill="#000000"  xml:space="preserve" font-size="16.5039" transform="translate(912.981, 257.21)" >1.2V</text>
<text fill="#000000"  xml:space="preserve" font-size="16.5039" transform="translate(1209.21, 257.21)" >3.3V</text>
<text fill="#000000"  xml:space="preserve" font-size="33.0079" transform="translate(1504.37, 788.472)" >inverting_digital_level_translator</text>
<text fill="#000000"  xml:space="preserve" font-size="22.0053" transform="translate(1516.01, 490.721)" >x2</text>
<text fill="#000000"  xml:space="preserve" font-size="22.0053" transform="translate(1744.39, 549.966)" >PLAVDD</text>
<text fill="#000000"  xml:space="preserve" font-size="22.0053" transform="translate(1516.01, 541.653)" >PLDVDD</text>
<text fill="#000000"  xml:space="preserve" font-size="22.0053" transform="translate(1516.01, 634.602)" >LIN</text>
<text fill="#000000"  xml:space="preserve" font-size="22.0053" transform="translate(1761.39, 634.602)" >nLOUT</text>
<text fill="#000000"  xml:space="preserve" font-size="22.0053" transform="translate(1677.91, 739.458) rotate(270)" >PLVSS</text>
<text fill="#000000"  xml:space="preserve" font-size="16.5039" transform="translate(1505.43, 511.116)" >1.2V</text>
<text fill="#000000"  xml:space="preserve" font-size="16.5039" transform="translate(1801.65, 511.116)" >3.3V</text>
<text fill="#000000"  xml:space="preserve" font-size="33.0079" transform="translate(911.923, 1042.38)" >inverting_digital_level_translator</text>
<text fill="#000000"  xml:space="preserve" font-size="22.0053" transform="translate(923.56, 744.628)" >x3</text>
<text fill="#000000"  xml:space="preserve" font-size="22.0053" transform="translate(1151.94, 803.873)" >PLAVDD</text>
<text fill="#000000"  xml:space="preserve" font-size="22.0053" transform="translate(923.56, 795.56)" >PLDVDD</text>
<text fill="#000000"  xml:space="preserve" font-size="22.0053" transform="translate(923.56, 888.508)" >LIN</text>
<text fill="#000000"  xml:space="preserve" font-size="22.0053" transform="translate(1168.94, 888.508)" >nLOUT</text>
<text fill="#000000"  xml:space="preserve" font-size="22.0053" transform="translate(1085.46, 993.365) rotate(270)" >PLVSS</text>
<text fill="#000000"  xml:space="preserve" font-size="16.5039" transform="translate(912.981, 765.023)" >1.2V</text>
<text fill="#000000"  xml:space="preserve" font-size="16.5039" transform="translate(1209.21, 765.023)" >3.3V</text>
<text fill="#000000"  xml:space="preserve" font-size="33.0079" transform="translate(1504.37, 1296.29)" >inverting_digital_level_translator</text>
<text fill="#000000"  xml:space="preserve" font-size="22.0053" transform="translate(1516.01, 998.535)" >x4</text>
<text fill="#000000"  xml:space="preserve" font-size="22.0053" transform="translate(1744.39, 1057.78)" >PLAVDD</text>
<text fill="#000000"  xml:space="preserve" font-size="22.0053" transform="translate(1516.01, 1049.47)" >PLDVDD</text>
<text fill="#000000"  xml:space="preserve" font-size="22.0053" transform="translate(1516.01, 1142.42)" >LIN</text>
<text fill="#000000"  xml:space="preserve" font-size="22.0053" transform="translate(1761.39, 1142.42)" >nLOUT</text>
<text fill="#000000"  xml:space="preserve" font-size="22.0053" transform="translate(1677.91, 1247.27) rotate(270)" >PLVSS</text>
<text fill="#000000"  xml:space="preserve" font-size="16.5039" transform="translate(1505.43, 1018.93)" >1.2V</text>
<text fill="#000000"  xml:space="preserve" font-size="16.5039" transform="translate(1801.65, 1018.93)" >3.3V</text>
<text fill="#000000"  xml:space="preserve" font-size="33.0079" transform="translate(1504.37, 1804.1)" >inverting_digital_level_translator</text>
<text fill="#000000"  xml:space="preserve" font-size="22.0053" transform="translate(1516.01, 1506.35)" >x5</text>
<text fill="#000000"  xml:space="preserve" font-size="22.0053" transform="translate(1744.39, 1565.59)" >PLAVDD</text>
<text fill="#000000"  xml:space="preserve" font-size="22.0053" transform="translate(1516.01, 1557.28)" >PLDVDD</text>
<text fill="#000000"  xml:space="preserve" font-size="22.0053" transform="translate(1516.01, 1650.23)" >LIN</text>
<text fill="#000000"  xml:space="preserve" font-size="22.0053" transform="translate(1761.39, 1650.23)" >nLOUT</text>
<text fill="#000000"  xml:space="preserve" font-size="22.0053" transform="translate(1677.91, 1755.09) rotate(270)" >PLVSS</text>
<text fill="#000000"  xml:space="preserve" font-size="16.5039" transform="translate(1505.43, 1526.74)" >1.2V</text>
<text fill="#000000"  xml:space="preserve" font-size="16.5039" transform="translate(1801.65, 1526.74)" >3.3V</text>
<text fill="#000000"  xml:space="preserve" font-size="33.0079" transform="translate(911.923, 1550.19)" >inverting_digital_level_translator</text>
<text fill="#000000"  xml:space="preserve" font-size="22.0053" transform="translate(923.56, 1252.44)" >x6</text>
<text fill="#000000"  xml:space="preserve" font-size="22.0053" transform="translate(1151.94, 1311.69)" >PLAVDD</text>
<text fill="#000000"  xml:space="preserve" font-size="22.0053" transform="translate(923.56, 1303.37)" >PLDVDD</text>
<text fill="#000000"  xml:space="preserve" font-size="22.0053" transform="translate(923.56, 1396.32)" >LIN</text>
<text fill="#000000"  xml:space="preserve" font-size="22.0053" transform="translate(1168.94, 1396.32)" >nLOUT</text>
<text fill="#000000"  xml:space="preserve" font-size="22.0053" transform="translate(1085.46, 1501.18) rotate(270)" >PLVSS</text>
<text fill="#000000"  xml:space="preserve" font-size="16.5039" transform="translate(912.981, 1272.84)" >1.2V</text>
<text fill="#000000"  xml:space="preserve" font-size="16.5039" transform="translate(1209.21, 1272.84)" >3.3V</text>
<text fill="#000000"  xml:space="preserve" font-size="33.0079" transform="translate(911.923, 2058.01)" >inverting_digital_level_translator</text>
<text fill="#000000"  xml:space="preserve" font-size="22.0053" transform="translate(923.56, 1760.26)" >x7</text>
<text fill="#000000"  xml:space="preserve" font-size="22.0053" transform="translate(1151.94, 1819.5)" >PLAVDD</text>
<text fill="#000000"  xml:space="preserve" font-size="22.0053" transform="translate(923.56, 1811.19)" >PLDVDD</text>
<text fill="#000000"  xml:space="preserve" font-size="22.0053" transform="translate(923.56, 1904.14)" >LIN</text>
<text fill="#000000"  xml:space="preserve" font-size="22.0053" transform="translate(1168.94, 1904.14)" >nLOUT</text>
<text fill="#000000"  xml:space="preserve" font-size="22.0053" transform="translate(1085.46, 2008.99) rotate(270)" >PLVSS</text>
<text fill="#000000"  xml:space="preserve" font-size="16.5039" transform="translate(912.981, 1780.65)" >1.2V</text>
<text fill="#000000"  xml:space="preserve" font-size="16.5039" transform="translate(1209.21, 1780.65)" >3.3V</text>
<text fill="#000000"  xml:space="preserve" font-size="33.0079" transform="translate(1504.37, 2311.91)" >inverting_digital_level_translator</text>
<text fill="#000000"  xml:space="preserve" font-size="22.0053" transform="translate(1516.01, 2014.16)" >x8</text>
<text fill="#000000"  xml:space="preserve" font-size="22.0053" transform="translate(1744.39, 2073.41)" >PLAVDD</text>
<text fill="#000000"  xml:space="preserve" font-size="22.0053" transform="translate(1516.01, 2065.09)" >PLDVDD</text>
<text fill="#000000"  xml:space="preserve" font-size="22.0053" transform="translate(1516.01, 2158.04)" >LIN</text>
<text fill="#000000"  xml:space="preserve" font-size="22.0053" transform="translate(1761.39, 2158.04)" >nLOUT</text>
<text fill="#000000"  xml:space="preserve" font-size="22.0053" transform="translate(1677.91, 2262.9) rotate(270)" >PLVSS</text>
<text fill="#000000"  xml:space="preserve" font-size="16.5039" transform="translate(1505.43, 2034.56)" >1.2V</text>
<text fill="#000000"  xml:space="preserve" font-size="16.5039" transform="translate(1801.65, 2034.56)" >3.3V</text>
<text fill="#000000"  xml:space="preserve" font-size="36.3087" transform="translate(580.719, 383.632)" >LIN7</text>
<text fill="#000000"  xml:space="preserve" font-size="36.3087" transform="translate(2097.88, 383.632)" >nLOUT7</text>
<text fill="#000000"  xml:space="preserve" font-size="36.3087" transform="translate(508.405, 84.1115)" >PLDVDD</text>
<text fill="#000000"  xml:space="preserve" font-size="36.3087" transform="translate(511.405, 168.747)" >PLAVDD</text>
<text fill="#000000"  xml:space="preserve" font-size="36.3087" transform="translate(546.405, 2369.27)" >PLVSS</text>
<text fill="#000000"  xml:space="preserve" font-size="36.3087" transform="translate(580.719, 637.539)" >LIN6</text>
<text fill="#000000"  xml:space="preserve" font-size="36.3087" transform="translate(580.719, 891.445)" >LIN5</text>
<text fill="#000000"  xml:space="preserve" font-size="36.3087" transform="translate(580.719, 1145.35)" >LIN4</text>
<text fill="#000000"  xml:space="preserve" font-size="36.3087" transform="translate(580.719, 1399.26)" >LIN3</text>
<text fill="#000000"  xml:space="preserve" font-size="36.3087" transform="translate(580.719, 1653.17)" >LIN2</text>
<text fill="#000000"  xml:space="preserve" font-size="36.3087" transform="translate(580.719, 1907.07)" >LIN1</text>
<text fill="#000000"  xml:space="preserve" font-size="36.3087" transform="translate(580.719, 2160.98)" >LIN0</text>
<text fill="#000000"  xml:space="preserve" font-size="36.3087" transform="translate(2097.88, 637.539)" >nLOUT6</text>
<text fill="#000000"  xml:space="preserve" font-size="36.3087" transform="translate(2097.88, 891.445)" >nLOUT5</text>
<text fill="#000000"  xml:space="preserve" font-size="36.3087" transform="translate(2097.88, 1145.35)" >nLOUT4</text>
<text fill="#000000"  xml:space="preserve" font-size="36.3087" transform="translate(2097.88, 1399.26)" >nLOUT3</text>
<text fill="#000000"  xml:space="preserve" font-size="36.3087" transform="translate(2097.88, 1653.17)" >nLOUT2</text>
<text fill="#000000"  xml:space="preserve" font-size="36.3087" transform="translate(2097.88, 1907.07)" >nLOUT1</text>
<text fill="#000000"  xml:space="preserve" font-size="36.3087" transform="translate(2097.88, 2160.98)" >nLOUT0</text>
<text fill="#000000"  xml:space="preserve" font-size="44.0105" transform="translate(902.401, 2556.77)" >x1.x8.         8x_inverting_digital_level_translator.sch</text>
<text fill="#000000"  xml:space="preserve" font-size="44.0105" transform="translate(902.401, 2493.29)" >Pascal Gesell</text>
<text fill="#000000"  xml:space="preserve" font-size="44.0105" transform="translate(2081.38, 2493.29)" >2026-03-23  10:49:50</text>
<text fill="#000000"  xml:space="preserve" font-size="110.026" transform="translate(415.747, 2553.23)" >SCHEM</text>
<path class="l1" d="M1293.84 284.542L1336.16 284.542"/>
<path class="l1" d="M1336.16 1300.17L1336.16 1807.98"/>
<path class="l1" d="M1293.84 1807.98L1336.16 1807.98"/>
<path class="l1" d="M1420.79 2061.89L1463.11 2061.89"/>
<path class="l1" d="M1420.79 1554.08L1420.79 2061.89"/>
<path class="l1" d="M1420.79 538.449L1463.11 538.449"/>
<path class="l1" d="M1420.79 1046.26L1463.11 1046.26"/>
<path class="l1" d="M1420.79 538.449L1420.79 1046.26"/>
<path class="l1" d="M1420.79 1554.08L1463.11 1554.08"/>
<path class="l1" d="M1420.79 1046.26L1420.79 1554.08"/>
<path class="l1" d="M1674.7 1807.98L1674.7 1850.3"/>
<path class="l1" d="M1378.48 1850.3L1674.7 1850.3"/>
<path class="l1" d="M1378.48 1596.39L1378.48 1850.3"/>
<path class="l1" d="M1082.25 580.766L1378.48 580.766"/>
<path class="l1" d="M1082.25 538.449L1082.25 580.766"/>
<path class="l1" d="M1674.7 792.356L1674.7 834.673"/>
<path class="l1" d="M1378.48 834.673L1674.7 834.673"/>
<path class="l1" d="M1378.48 580.766L1378.48 834.673"/>
<path class="l1" d="M1082.25 1046.26L1082.25 1088.58"/>
<path class="l1" d="M1082.25 1088.58L1378.48 1088.58"/>
<path class="l1" d="M1378.48 834.673L1378.48 1088.58"/>
<path class="l1" d="M1674.7 1300.17L1674.7 1342.49"/>
<path class="l1" d="M1378.48 1342.49L1674.7 1342.49"/>
<path class="l1" d="M1378.48 1088.58L1378.48 1342.49"/>
<path class="l1" d="M1082.25 1554.08L1082.25 1596.39"/>
<path class="l1" d="M1082.25 1596.39L1378.48 1596.39"/>
<path class="l1" d="M1378.48 1342.49L1378.48 1596.39"/>
<path class="l1" d="M1082.25 2061.89L1082.25 2104.21"/>
<path class="l1" d="M1082.25 2104.21L1378.48 2104.21"/>
<path class="l1" d="M1378.48 1850.3L1378.48 2104.21"/>
<path class="l1" d="M1674.7 2315.8L1674.7 2358.11"/>
<path class="l1" d="M1378.48 2358.11L1674.7 2358.11"/>
<path class="l1" d="M1378.48 2104.21L1378.48 2358.11"/>
<path class="l1" d="M1293.84 369.177L2055.56 369.177"/>
<path class="l1" d="M1886.29 538.449L1928.61 538.449"/>
<path class="l1" d="M1928.61 1554.08L1928.61 2061.89"/>
<path class="l1" d="M1886.29 2061.89L1928.61 2061.89"/>
<path class="l1" d="M1886.29 1554.08L1928.61 1554.08"/>
<path class="l1" d="M1928.61 1046.26L1928.61 1554.08"/>
<path class="l1" d="M1886.29 1046.26L1928.61 1046.26"/>
<path class="l1" d="M1928.61 538.449L1928.61 1046.26"/>
<path class="l1" d="M828.345 1807.98L870.663 1807.98"/>
<path class="l1" d="M828.345 1300.17L828.345 1807.98"/>
<path class="l1" d="M828.345 284.542L870.663 284.542"/>
<path class="l1" d="M828.345 792.356L870.663 792.356"/>
<path class="l1" d="M828.345 284.542L828.345 792.356"/>
<path class="l1" d="M828.345 1300.17L870.663 1300.17"/>
<path class="l1" d="M828.345 792.356L828.345 1300.17"/>
<path class="l1" d="M1293.84 1300.17L1336.16 1300.17"/>
<path class="l1" d="M1336.16 792.356L1336.16 1300.17"/>
<path class="l1" d="M1293.84 792.356L1336.16 792.356"/>
<path class="l1" d="M1336.16 284.542L1336.16 792.356"/>
<path class="l1" d="M1293.84 1892.62L2055.56 1892.62"/>
<path class="l1" d="M1886.29 2146.53L2055.56 2146.53"/>
<path class="l1" d="M1886.29 1638.71L2055.56 1638.71"/>
<path class="l1" d="M1886.29 1130.9L2055.56 1130.9"/>
<path class="l1" d="M1886.29 623.084L2055.56 623.084"/>
<path class="l1" d="M1293.84 876.991L2055.56 876.991"/>
<path class="l1" d="M1293.84 1384.8L2055.56 1384.8"/>
<path class="l1" d="M828.345 72.9528L828.345 284.542"/>
<path class="l1" d="M701.392 72.9528L828.345 72.9528"/>
<path class="l1" d="M1420.79 72.9528L1420.79 538.449"/>
<path class="l1" d="M828.345 72.9528L1420.79 72.9528"/>
<path class="l1" d="M701.392 157.588L1336.16 157.588"/>
<path class="l1" d="M1336.16 157.588L1336.16 284.542"/>
<path class="l1" d="M1336.16 157.588L1928.61 157.588"/>
<path class="l1" d="M1928.61 157.588L1928.61 538.449"/>
<path class="l1" d="M701.392 2358.11L1378.48 2358.11"/>
<path class="l1" d="M701.392 2146.53L1463.11 2146.53"/>
<path class="l1" d="M701.392 1892.62L870.663 1892.62"/>
<path class="l1" d="M701.392 1638.71L1463.11 1638.71"/>
<path class="l1" d="M701.392 1384.8L870.663 1384.8"/>
<path class="l1" d="M701.392 1130.9L1463.11 1130.9"/>
<path class="l1" d="M701.392 876.991L870.663 876.991"/>
<path class="l1" d="M701.392 623.084L1463.11 623.084"/>
<path class="l1" d="M701.392 369.177L870.663 369.177"/>
<circle class="l1" cx="1336.16" cy="157.588" r="7.82879"/>
<circle class="l1" cx="828.345" cy="72.9528" r="7.82879"/>
<circle class="l1" cx="828.345" cy="72.9528" r="7.82879"/>
<circle class="l1" cx="828.345" cy="72.9528" r="7.82879"/>
<circle class="l1" cx="828.345" cy="284.542" r="7.82879"/>
<circle class="l1" cx="828.345" cy="792.356" r="7.82879"/>
<circle class="l1" cx="828.345" cy="1300.17" r="7.82879"/>
<circle class="l1" cx="828.345" cy="284.542" r="7.82879"/>
<circle class="l1" cx="828.345" cy="792.356" r="7.82879"/>
<circle class="l1" cx="828.345" cy="792.356" r="7.82879"/>
<circle class="l1" cx="828.345" cy="284.542" r="7.82879"/>
<circle class="l1" cx="828.345" cy="1300.17" r="7.82879"/>
<circle class="l1" cx="828.345" cy="1300.17" r="7.82879"/>
<circle class="l1" cx="1378.48" cy="2358.11" r="7.82879"/>
<circle class="l1" cx="1336.16" cy="157.588" r="7.82879"/>
<circle class="l1" cx="1336.16" cy="157.588" r="7.82879"/>
<circle class="l1" cx="1336.16" cy="284.542" r="7.82879"/>
<circle class="l1" cx="1420.79" cy="538.449" r="7.82879"/>
<circle class="l1" cx="1336.16" cy="284.542" r="7.82879"/>
<circle class="l1" cx="1336.16" cy="792.356" r="7.82879"/>
<circle class="l1" cx="1336.16" cy="792.356" r="7.82879"/>
<circle class="l1" cx="1336.16" cy="792.356" r="7.82879"/>
<circle class="l1" cx="1336.16" cy="1300.17" r="7.82879"/>
<circle class="l1" cx="1378.48" cy="834.673" r="7.82879"/>
<circle class="l1" cx="1420.79" cy="538.449" r="7.82879"/>
<circle class="l1" cx="1420.79" cy="1046.26" r="7.82879"/>
<circle class="l1" cx="1420.79" cy="538.449" r="7.82879"/>
<circle class="l1" cx="1336.16" cy="284.542" r="7.82879"/>
<circle class="l1" cx="1336.16" cy="1300.17" r="7.82879"/>
<circle class="l1" cx="1378.48" cy="1342.49" r="7.82879"/>
<circle class="l1" cx="1378.48" cy="1596.39" r="7.82879"/>
<circle class="l1" cx="1378.48" cy="1596.39" r="7.82879"/>
<circle class="l1" cx="1378.48" cy="1088.58" r="7.82879"/>
<circle class="l1" cx="1378.48" cy="1342.49" r="7.82879"/>
<circle class="l1" cx="1378.48" cy="1342.49" r="7.82879"/>
<circle class="l1" cx="1378.48" cy="834.673" r="7.82879"/>
<circle class="l1" cx="1378.48" cy="1088.58" r="7.82879"/>
<circle class="l1" cx="1378.48" cy="1088.58" r="7.82879"/>
<circle class="l1" cx="1378.48" cy="834.673" r="7.82879"/>
<circle class="l1" cx="1378.48" cy="1596.39" r="7.82879"/>
<circle class="l1" cx="1378.48" cy="1850.3" r="7.82879"/>
<circle class="l1" cx="1420.79" cy="1046.26" r="7.82879"/>
<circle class="l1" cx="1420.79" cy="1554.08" r="7.82879"/>
<circle class="l1" cx="1420.79" cy="1554.08" r="7.82879"/>
<circle class="l1" cx="1420.79" cy="1046.26" r="7.82879"/>
<circle class="l1" cx="1420.79" cy="1554.08" r="7.82879"/>
<circle class="l1" cx="1336.16" cy="1300.17" r="7.82879"/>
<circle class="l1" cx="1378.48" cy="2104.21" r="7.82879"/>
<circle class="l1" cx="1378.48" cy="2358.11" r="7.82879"/>
<circle class="l1" cx="1378.48" cy="2358.11" r="7.82879"/>
<circle class="l1" cx="1378.48" cy="1850.3" r="7.82879"/>
<circle class="l1" cx="1378.48" cy="2104.21" r="7.82879"/>
<circle class="l1" cx="1378.48" cy="2104.21" r="7.82879"/>
<circle class="l1" cx="1378.48" cy="1850.3" r="7.82879"/>
<circle class="l1" cx="1928.61" cy="538.449" r="7.82879"/>
<circle class="l1" cx="1928.61" cy="538.449" r="7.82879"/>
<circle class="l1" cx="1928.61" cy="1046.26" r="7.82879"/>
<circle class="l1" cx="1928.61" cy="538.449" r="7.82879"/>
<circle class="l1" cx="1928.61" cy="1046.26" r="7.82879"/>
<circle class="l1" cx="1928.61" cy="1046.26" r="7.82879"/>
<circle class="l1" cx="1928.61" cy="1554.08" r="7.82879"/>
<circle class="l1" cx="1928.61" cy="1554.08" r="7.82879"/>
<circle class="l1" cx="1928.61" cy="1554.08" r="7.82879"/>
</svg>
