<svg xmlns="http://www.w3.org/2000/svg" xmlns:xlink="http://www.w3.org/1999/xlink" width="6880" height="2621" version="1.1">
<style type="text/css">
.l0{
  fill: #ffffff;
  stroke: #ffffff;
  stroke-linecap:round;
  stroke-linejoin:round;
  stroke-width: 7.63505;
}
.l1{
  fill: #000000;
  stroke: #000000;
  stroke-linecap:round;
  stroke-linejoin:round;
  stroke-width: 7.63505;
}
.l2{
  fill: #000000; fill-opacity: 0.2;
  stroke: #000000;
  stroke-linecap:round;
  stroke-linejoin:round;
  stroke-width: 7.63505;
}
.l3{
  fill: #000000; fill-opacity: 0.5;
  stroke: #000000;
  stroke-linecap:round;
  stroke-linejoin:round;
  stroke-width: 7.63505;
}
.l4{
  fill: #000000;
  stroke: #000000;
  stroke-linecap:round;
  stroke-linejoin:round;
  stroke-width: 7.63505;
}
.l5{
  fill: #000000;
  stroke: #000000;
  stroke-linecap:round;
  stroke-linejoin:round;
  stroke-width: 7.63505;
}
.l6{
  fill: #000000; fill-opacity: 0.5;
  stroke: #000000;
  stroke-linecap:round;
  stroke-linejoin:round;
  stroke-width: 7.63505;
}
.l7{
  fill: #000000; fill-opacity: 0.5;
  stroke: #000000;
  stroke-linecap:round;
  stroke-linejoin:round;
  stroke-width: 7.63505;
}
.l8{
  fill: #000000; fill-opacity: 0.5;
  stroke: #000000;
  stroke-linecap:round;
  stroke-linejoin:round;
  stroke-width: 7.63505;
}
.l9{
  fill: #000000; fill-opacity: 0.5;
  stroke: #000000;
  stroke-linecap:round;
  stroke-linejoin:round;
  stroke-width: 7.63505;
}
.l10{
  fill: #000000;
  stroke: #000000;
  stroke-linecap:round;
  stroke-linejoin:round;
  stroke-width: 7.63505;
}
.l11{
  fill: #000000; fill-opacity: 0.5;
  stroke: #000000;
  stroke-linecap:round;
  stroke-linejoin:round;
  stroke-width: 7.63505;
}
.l12{
  fill: #000000; fill-opacity: 0.5;
  stroke: #000000;
  stroke-linecap:round;
  stroke-linejoin:round;
  stroke-width: 7.63505;
}
.l13{
  fill: #000000; fill-opacity: 0.5;
  stroke: #000000;
  stroke-linecap:round;
  stroke-linejoin:round;
  stroke-width: 7.63505;
}
.l14{
  fill: #000000; fill-opacity: 0.2;
  stroke: #000000;
  stroke-linecap:round;
  stroke-linejoin:round;
  stroke-width: 7.63505;
}
.l15{
  fill: #000000; fill-opacity: 0.5;
  stroke: #000000;
  stroke-linecap:round;
  stroke-linejoin:round;
  stroke-width: 7.63505;
}
.l16{
  fill: #000000; fill-opacity: 0.5;
  stroke: #000000;
  stroke-linecap:round;
  stroke-linejoin:round;
  stroke-width: 7.63505;
}
.l17{
  fill: #000000; fill-opacity: 0.2;
  stroke: #000000;
  stroke-linecap:round;
  stroke-linejoin:round;
  stroke-width: 7.63505;
}
.l18{
  fill: #000000; fill-opacity: 0.5;
  stroke: #000000;
  stroke-linecap:round;
  stroke-linejoin:round;
  stroke-width: 7.63505;
}
.l19{
  fill: #000000; fill-opacity: 0.2;
  stroke: #000000;
  stroke-linecap:round;
  stroke-linejoin:round;
  stroke-width: 7.63505;
}
.l20{
  fill: #000000; fill-opacity: 0.2;
  stroke: #000000;
  stroke-linecap:round;
  stroke-linejoin:round;
  stroke-width: 7.63505;
}
.l21{
  fill: #000000; fill-opacity: 0.2;
  stroke: #000000;
  stroke-linecap:round;
  stroke-linejoin:round;
  stroke-width: 7.63505;
}
text {font-family: Sans-Serif;}
</style>
<rect class="l0" x="0" y="0" width="6880" height="2621"/>
<path class="l4" d="M3199.64 1184.72L3199.64 1439.23"/>
<path class="l4" d="M3270.33 1142.31L3270.33 1213"/>
<path class="l4" d="M3270.33 1410.95L3270.33 1481.64"/>
<path class="l4" d="M3199.64 1410.95L3270.33 1410.95"/>
<path class="l4" d="M3199.64 1213L3270.33 1213"/>
<path class="l4" d="M3044.11 1311.97L3168.53 1311.97"/>
<path class="l4" d="M3242.05 1425.09L3270.33 1410.95L3242.05 1396.81L3242.05 1425.09"/>
<path class="l4" d="M3162.88 1221.49L3174.19 1221.49L3174.19 1402.46L3162.88 1402.46L3162.88 1221.49z"/>
<path class="l4" d="M3199.64 732.276L3199.64 986.778"/>
<path class="l4" d="M3270.33 689.859L3270.33 760.554"/>
<path class="l4" d="M3270.33 958.5L3270.33 1029.19"/>
<path class="l4" d="M3171.36 774.693L3171.36 944.361"/>
<path class="l4" d="M3199.64 958.5L3270.33 958.5"/>
<path class="l4" d="M3199.64 760.554L3270.33 760.554"/>
<path class="l4" d="M3044.11 859.527L3168.53 859.527"/>
<path class="l4" d="M3227.92 746.415L3199.64 760.554L3227.92 774.693L3227.92 746.415"/>
<path class="l4" d="M3162.88 769.038L3174.19 769.038L3174.19 950.017L3162.88 950.017L3162.88 769.038z"/>
<path class="l4" d="M4104.53 1184.72L4104.53 1439.23"/>
<path class="l4" d="M4175.23 1142.31L4175.23 1213"/>
<path class="l4" d="M4175.23 1410.95L4175.23 1481.64"/>
<path class="l4" d="M4104.53 1410.95L4175.23 1410.95"/>
<path class="l4" d="M4104.53 1213L4175.23 1213"/>
<path class="l4" d="M3949 1311.97L4073.43 1311.97"/>
<path class="l4" d="M4146.95 1425.09L4175.23 1410.95L4146.95 1396.81L4146.95 1425.09"/>
<path class="l4" d="M4067.77 1221.49L4079.08 1221.49L4079.08 1402.46L4067.77 1402.46L4067.77 1221.49z"/>
<path class="l4" d="M4104.53 732.276L4104.53 986.778"/>
<path class="l4" d="M4175.23 689.859L4175.23 760.554"/>
<path class="l4" d="M4175.23 958.5L4175.23 1029.19"/>
<path class="l4" d="M4076.25 774.693L4076.25 944.361"/>
<path class="l4" d="M4104.53 958.5L4175.23 958.5"/>
<path class="l4" d="M4104.53 760.554L4175.23 760.554"/>
<path class="l4" d="M3949 859.527L4073.43 859.527"/>
<path class="l4" d="M4132.81 746.415L4104.53 760.554L4132.81 774.693L4132.81 746.415"/>
<path class="l4" d="M4067.77 769.038L4079.08 769.038L4079.08 950.017L4067.77 950.017L4067.77 769.038z"/>
<path class="l5" d="M3270.33 1326.11L3242.05 1311.97L3270.33 1297.84L3270.33 1326.11"/>
<path class="l5" d="M3256.19 1128.17L3284.47 1128.17L3284.47 1156.45L3256.19 1156.45L3256.19 1128.17z"/>
<path class="l5" d="M3029.97 1297.84L3058.25 1297.84L3058.25 1326.11L3029.97 1326.11L3029.97 1297.84z"/>
<path class="l5" d="M3256.19 1467.5L3284.47 1467.5L3284.47 1495.78L3256.19 1495.78L3256.19 1467.5z"/>
<path class="l5" d="M3269.89 1311.53L3270.77 1311.53L3270.77 1312.42L3269.89 1312.42L3269.89 1311.53z"/>
<path class="l5" d="M3242.05 845.388L3270.33 859.527L3242.05 873.666L3242.05 845.388"/>
<path class="l5" d="M3256.19 1015.06L3284.47 1015.06L3284.47 1043.33L3256.19 1043.33L3256.19 1015.06z"/>
<path class="l5" d="M3029.97 845.388L3058.25 845.388L3058.25 873.666L3029.97 873.666L3029.97 845.388z"/>
<path class="l5" d="M3256.19 675.72L3284.47 675.72L3284.47 703.998L3256.19 703.998L3256.19 675.72z"/>
<path class="l5" d="M3269.89 859.085L3270.77 859.085L3270.77 859.969L3269.89 859.969L3269.89 859.085z"/>
<path class="l5" d="M2800.21 576.748L2817.88 576.748"/>
<path class="l5" d="M2740.12 548.47L2718.91 576.748L2740.12 605.025L2779 605.025L2800.21 576.748L2779 548.47L2740.12 548.47"/>
<path class="l5" d="M2810.82 569.678L2824.95 569.678L2824.95 583.817L2810.82 583.817L2810.82 569.678z"/>
<path class="l5" d="M2789.61 1085.75L2817.88 1085.75"/>
<path class="l5" d="M2789.61 1085.75L2768.4 1057.47L2718.91 1057.47L2740.12 1085.75L2718.91 1114.03L2768.4 1114.03L2789.61 1085.75"/>
<path class="l5" d="M2810.82 1078.68L2824.95 1078.68L2824.95 1092.82L2810.82 1092.82L2810.82 1078.68z"/>
<path class="l5" d="M4740.79 1085.75L4790.27 1085.75"/>
<path class="l5" d="M4839.76 1085.75L4818.55 1057.47L4769.06 1057.47L4790.27 1085.75L4769.06 1114.03L4818.55 1114.03L4839.76 1085.75"/>
<path class="l5" d="M4733.72 1078.68L4747.86 1078.68L4747.86 1092.82L4733.72 1092.82L4733.72 1078.68z"/>
<path class="l5" d="M2800.21 1594.75L2817.88 1594.75"/>
<path class="l5" d="M2740.12 1566.48L2718.91 1594.75L2740.12 1623.03L2779 1623.03L2800.21 1594.75L2779 1566.48L2740.12 1566.48"/>
<path class="l5" d="M2810.82 1587.68L2824.95 1587.68L2824.95 1601.82L2810.82 1601.82L2810.82 1587.68z"/>
<path class="l5" d="M4175.23 1326.11L4146.95 1311.97L4175.23 1297.84L4175.23 1326.11"/>
<path class="l5" d="M4161.09 1128.17L4189.37 1128.17L4189.37 1156.45L4161.09 1156.45L4161.09 1128.17z"/>
<path class="l5" d="M3934.86 1297.84L3963.14 1297.84L3963.14 1326.11L3934.86 1326.11L3934.86 1297.84z"/>
<path class="l5" d="M4161.09 1467.5L4189.37 1467.5L4189.37 1495.78L4161.09 1495.78L4161.09 1467.5z"/>
<path class="l5" d="M4174.79 1311.53L4175.67 1311.53L4175.67 1312.42L4174.79 1312.42L4174.79 1311.53z"/>
<path class="l5" d="M4146.95 845.388L4175.23 859.527L4146.95 873.666L4146.95 845.388"/>
<path class="l5" d="M4161.09 1015.06L4189.37 1015.06L4189.37 1043.33L4161.09 1043.33L4161.09 1015.06z"/>
<path class="l5" d="M3934.86 845.388L3963.14 845.388L3963.14 873.666L3934.86 873.666L3934.86 845.388z"/>
<path class="l5" d="M4161.09 675.72L4189.37 675.72L4189.37 703.998L4161.09 703.998L4161.09 675.72z"/>
<path class="l5" d="M4174.79 859.085L4175.67 859.085L4175.67 859.969L4174.79 859.969L4174.79 859.085z"/>
<path class="l5" d="M951.539 1849.26L949.772 1851.02L948.004 1852.79L946.237 1854.56L944.469 1856.33L942.702 1858.09L940.935 1859.86L939.167 1861.63L937.4 1863.39L935.633 1865.16L933.865 1866.93L932.098 1868.7L930.331 1870.46L928.563 1872.23L926.796 1874L925.028 1875.77L923.261 1877.53L921.494 1879.3L919.726 1881.07L917.959 1882.84L916.192 1884.6L914.424 1886.37L912.657 1888.14L910.889 1889.91L909.122 1891.67L907.355 1893.44L905.587 1895.21L903.82 1896.98L902.053 1898.74L900.285 1900.51L898.518 1902.28L896.75 1904.04L894.983 1905.81L894.983 1905.81L893.271 1907.58L891.669 1909.35L890.178 1911.11L888.797 1912.88L887.527 1914.65L886.367 1916.42L885.318 1918.18L884.379 1919.95L883.55 1921.72L882.832 1923.49L882.225 1925.25L881.728 1927.02L881.341 1928.79L881.065 1930.56L880.899 1932.32L880.844 1934.09L880.899 1935.86L881.065 1937.62L881.341 1939.39L881.728 1941.16L882.225 1942.93L882.832 1944.69L883.55 1946.46L884.379 1948.23L885.318 1950L886.367 1951.76L887.527 1953.53L888.797 1955.3L890.178 1957.07L891.669 1958.83L893.271 1960.6L894.983 1962.37L894.983 1962.37L896.757 1964.14L898.545 1965.93L900.347 1967.73L902.163 1969.55L903.993 1971.38L905.836 1973.22L907.693 1975.08L909.564 1976.95L911.449 1978.83L913.347 1980.73L915.26 1982.64L917.186 1984.57L919.126 1986.51L921.079 1988.46L923.047 1990.43L925.028 1992.41L927.024 1994.41L929.033 1996.42L931.055 1998.44L933.092 2000.48L935.142 2002.53L937.207 2004.59L939.285 2006.67L941.377 2008.76L943.482 2010.87L945.602 2012.99L947.735 2015.12L949.882 2017.27L952.043 2019.43L954.218 2021.6L956.406 2023.79L958.608 2025.99L958.608 2025.99L960.804 2028.19L962.972 2030.36L965.112 2032.5L967.224 2034.61L969.309 2036.69L971.367 2038.75L973.396 2040.78L975.399 2042.78L977.373 2044.76L979.32 2046.7L981.239 2048.62L983.131 2050.52L984.995 2052.38L986.831 2054.22L988.64 2056.02L990.421 2057.81L992.175 2059.56L993.901 2061.29L995.599 2062.98L997.27 2064.65L998.913 2066.3L1000.53 2067.91L1002.12 2069.5L1003.68 2071.06L1005.21 2072.59L1006.71 2074.1L1008.19 2075.58L1009.64 2077.03L1011.06 2078.45L1012.46 2079.84L1013.83 2081.21L1015.16 2082.55L1015.16 2082.55L1016.45 2083.85L1017.65 2085.12L1018.77 2086.34L1019.8 2087.52L1020.76 2088.66L1021.63 2089.76L1022.41 2090.81L1023.12 2091.83L1023.74 2092.8L1024.28 2093.73L1024.73 2094.62L1025.11 2095.47L1025.4 2096.28L1025.6 2097.05L1025.73 2097.77L1025.77 2098.46L1025.73 2099.1L1025.6 2099.7L1025.4 2100.26L1025.11 2100.78L1024.73 2101.25L1024.28 2101.69L1023.74 2102.08L1023.12 2102.43L1022.41 2102.74L1021.63 2103.01L1020.76 2103.24L1019.8 2103.43L1018.77 2103.57L1017.65 2103.67L1016.45 2103.74L1015.16 2103.76L1015.16 2103.76L1013.84 2103.76L1012.51 2103.76L1011.19 2103.76L1009.86 2103.76L1008.54 2103.76L1007.21 2103.76L1005.89 2103.76L1004.56 2103.76L1003.23 2103.76L1001.91 2103.76L1000.58 2103.76L999.258 2103.76L997.933 2103.76L996.607 2103.76L995.281 2103.76L993.956 2103.76L992.63 2103.76L991.305 2103.76L989.979 2103.76L988.654 2103.76L987.328 2103.76L986.003 2103.76L984.677 2103.76L983.352 2103.76L982.026 2103.76L980.701 2103.76L979.375 2103.76L978.05 2103.76L976.724 2103.76L975.399 2103.76L974.073 2103.76L972.747 2103.76L972.747 2103.76L971.429 2103.76L970.124 2103.76L968.833 2103.76L967.556 2103.76L966.292 2103.76L965.043 2103.76L963.807 2103.76L962.585 2103.76L961.377 2103.76L960.183 2103.76L959.002 2103.76L957.835 2103.76L956.682 2103.76L955.543 2103.76L954.418 2103.76L953.306 2103.76L952.209 2103.76L951.125 2103.76L950.055 2103.76L948.998 2103.76L947.956 2103.76L946.927 2103.76L945.912 2103.76L944.911 2103.76L943.924 2103.76L942.951 2103.76L941.991 2103.76L941.045 2103.76L940.113 2103.76L939.195 2103.76L938.291 2103.76L937.4 2103.76L937.4 2103.76L936.516 2103.74L935.633 2103.7L934.749 2103.63L933.865 2103.54L932.982 2103.41L932.098 2103.26L931.214 2103.08L930.331 2102.87L929.447 2102.64L928.563 2102.38L927.679 2102.09L926.796 2101.77L925.912 2101.42L925.028 2101.05L924.145 2100.65L923.261 2100.22L922.377 2099.77L921.494 2099.28L920.61 2098.77L919.726 2098.23L918.843 2097.67L917.959 2097.07L917.075 2096.45L916.192 2095.8L915.308 2095.13L914.424 2094.42L913.54 2093.69L912.657 2092.93L911.773 2092.15L910.889 2091.33L910.006 2090.49L909.122 2089.62L909.122 2089.62L908.238 2088.74L907.355 2087.85L906.471 2086.97L905.587 2086.08L904.704 2085.2L903.82 2084.32L902.936 2083.43L902.053 2082.55L901.169 2081.67L900.285 2080.78L899.401 2079.9L898.518 2079.01L897.634 2078.13L896.75 2077.25L895.867 2076.36L894.983 2075.48L894.099 2074.6L893.216 2073.71L892.332 2072.83L891.448 2071.94L890.565 2071.06L889.681 2070.18L888.797 2069.29L887.914 2068.41L887.03 2067.53L886.146 2066.64L885.263 2065.76L884.379 2064.88L883.495 2063.99L882.611 2063.11L881.728 2062.22L880.844 2061.34L880.844 2061.34L879.947 2060.44L879.021 2059.52L878.069 2058.57L877.088 2057.59L876.08 2056.58L875.045 2055.54L873.982 2054.48L872.891 2053.39L871.772 2052.27L870.626 2051.12L869.453 2049.95L868.252 2048.75L867.023 2047.52L865.766 2046.26L864.482 2044.98L863.17 2043.67L861.831 2042.33L860.464 2040.96L859.069 2039.57L857.647 2038.14L856.198 2036.69L854.72 2035.22L853.215 2033.71L851.682 2032.18L850.122 2030.62L848.534 2029.03L846.919 2027.42L845.276 2025.77L843.605 2024.1L841.907 2022.4L840.181 2020.68L838.427 2018.92L838.427 2018.92L836.66 2017.21L834.892 2015.61L833.125 2014.12L831.358 2012.74L829.59 2011.47L827.823 2010.31L826.056 2009.26L824.288 2008.32L822.521 2007.49L820.753 2006.77L818.986 2006.17L817.219 2005.67L815.451 2005.28L813.684 2005.01L811.917 2004.84L810.149 2004.78L808.382 2004.84L806.614 2005.01L804.847 2005.28L803.08 2005.67L801.312 2006.17L799.545 2006.77L797.778 2007.49L796.01 2008.32L794.243 2009.26L792.475 2010.31L790.708 2011.47L788.941 2012.74L787.173 2014.12L785.406 2015.61L783.639 2017.21L781.871 2018.92L781.871 2018.92L780.118 2020.68L778.392 2022.4L776.693 2024.1L775.023 2025.77L773.38 2027.42L771.764 2029.03L770.176 2030.62L768.616 2032.18L767.083 2033.71L765.578 2035.22L764.101 2036.69L762.651 2038.14L761.229 2039.57L759.834 2040.96L758.467 2042.33L757.128 2043.67L755.816 2044.98L754.532 2046.26L753.276 2047.52L752.047 2048.75L750.846 2049.95L749.672 2051.12L748.526 2052.27L747.407 2053.39L746.317 2054.48L745.253 2055.54L744.218 2056.58L743.21 2057.59L742.23 2058.57L741.277 2059.52L740.352 2060.44L739.454 2061.34L739.454 2061.34L738.571 2062.22L737.687 2063.11L736.803 2063.99L735.919 2064.88L735.036 2065.76L734.152 2066.64L733.268 2067.53L732.385 2068.41L731.501 2069.29L730.617 2070.18L729.734 2071.06L728.85 2071.94L727.966 2072.83L727.083 2073.71L726.199 2074.6L725.315 2075.48L724.432 2076.36L723.548 2077.25L722.664 2078.13L721.781 2079.01L720.897 2079.9L720.013 2080.78L719.129 2081.67L718.246 2082.55L717.362 2083.43L716.478 2084.32L715.595 2085.2L714.711 2086.08L713.827 2086.97L712.944 2087.85L712.06 2088.74L711.176 2089.62L711.176 2089.62L710.293 2090.49L709.409 2091.33L708.525 2092.15L707.642 2092.93L706.758 2093.69L705.874 2094.42L704.99 2095.13L704.107 2095.8L703.223 2096.45L702.339 2097.07L701.456 2097.67L700.572 2098.23L699.688 2098.77L698.805 2099.28L697.921 2099.77L697.037 2100.22L696.154 2100.65L695.27 2101.05L694.386 2101.42L693.503 2101.77L692.619 2102.09L691.735 2102.38L690.851 2102.64L689.968 2102.87L689.084 2103.08L688.2 2103.26L687.317 2103.41L686.433 2103.54L685.549 2103.63L684.666 2103.7L683.782 2103.74L682.898 2103.76L682.898 2103.76L682.008 2103.76L681.103 2103.76L680.185 2103.76L679.253 2103.76L678.307 2103.76L677.348 2103.76L676.374 2103.76L675.387 2103.76L674.386 2103.76L673.371 2103.76L672.342 2103.76L671.3 2103.76L670.244 2103.76L669.174 2103.76L668.09 2103.76L666.992 2103.76L665.88 2103.76L664.755 2103.76L663.616 2103.76L662.463 2103.76L661.296 2103.76L660.116 2103.76L658.921 2103.76L657.713 2103.76L656.491 2103.76L655.255 2103.76L654.006 2103.76L652.743 2103.76L651.465 2103.76L650.174 2103.76L648.869 2103.76L647.551 2103.76L647.551 2103.76L646.225 2103.76L644.9 2103.76L643.574 2103.76L642.249 2103.76L640.923 2103.76L639.598 2103.76L638.272 2103.76L636.947 2103.76L635.621 2103.76L634.296 2103.76L632.97 2103.76L631.644 2103.76L630.319 2103.76L628.993 2103.76L627.668 2103.76L626.342 2103.76L625.017 2103.76L623.691 2103.76L622.366 2103.76L621.04 2103.76L619.715 2103.76L618.389 2103.76L617.064 2103.76L615.738 2103.76L614.413 2103.76L613.087 2103.76L611.762 2103.76L610.436 2103.76L609.11 2103.76L607.785 2103.76L606.459 2103.76L605.134 2103.76L605.134 2103.76L603.85 2103.74L602.649 2103.67L601.53 2103.57L600.495 2103.43L599.542 2103.24L598.672 2103.01L597.885 2102.74L597.181 2102.43L596.559 2102.08L596.021 2101.69L595.565 2101.25L595.192 2100.78L594.902 2100.26L594.695 2099.7L594.571 2099.1L594.53 2098.46L594.571 2097.77L594.695 2097.05L594.902 2096.28L595.192 2095.47L595.565 2094.62L596.021 2093.73L596.559 2092.8L597.181 2091.83L597.885 2090.81L598.672 2089.76L599.542 2088.66L600.495 2087.52L601.53 2086.34L602.649 2085.12L603.85 2083.85L605.134 2082.55L605.134 2082.55L606.473 2081.21L607.84 2079.84L609.235 2078.45L610.657 2077.03L612.107 2075.58L613.584 2074.1L615.089 2072.59L616.622 2071.06L618.182 2069.5L619.77 2067.91L621.385 2066.3L623.029 2064.65L624.699 2062.98L626.398 2061.29L628.124 2059.56L629.877 2057.81L631.658 2056.02L633.467 2054.22L635.304 2052.38L637.168 2050.52L639.059 2048.62L640.978 2046.7L642.925 2044.76L644.9 2042.78L646.902 2040.78L648.932 2038.75L650.989 2036.69L653.074 2034.61L655.186 2032.5L657.327 2030.36L659.494 2028.19L661.69 2025.99L661.69 2025.99L663.892 2023.79L666.081 2021.6L668.255 2019.43L670.416 2017.27L672.563 2015.12L674.697 2012.99L676.816 2010.87L678.922 2008.76L681.014 2006.67L683.092 2004.59L685.156 2002.53L687.206 2000.48L689.243 1998.44L691.266 1996.42L693.275 1994.41L695.27 1992.41L697.251 1990.43L699.219 1988.46L701.173 1986.51L703.113 1984.57L705.039 1982.64L706.951 1980.73L708.85 1978.83L710.734 1976.95L712.605 1975.08L714.462 1973.22L716.306 1971.38L718.135 1969.55L719.951 1967.73L721.753 1965.93L723.541 1964.14L725.315 1962.37L725.315 1962.37L727.027 1960.6L728.629 1958.83L730.12 1957.07L731.501 1955.3L732.771 1953.53L733.931 1951.76L734.981 1950L735.919 1948.23L736.748 1946.46L737.466 1944.69L738.073 1942.93L738.571 1941.16L738.957 1939.39L739.233 1937.62L739.399 1935.86L739.454 1934.09L739.399 1932.32L739.233 1930.56L738.957 1928.79L738.571 1927.02L738.073 1925.25L737.466 1923.49L736.748 1921.72L735.919 1919.95L734.981 1918.18L733.931 1916.42L732.771 1914.65L731.501 1912.88L730.12 1911.11L728.629 1909.35L727.027 1907.58L725.315 1905.81L725.315 1905.81L723.541 1904.04L721.753 1902.25L719.951 1900.45L718.135 1898.63L716.306 1896.8L714.462 1894.96L712.605 1893.1L710.734 1891.23L708.85 1889.35L706.951 1887.45L705.039 1885.54L703.113 1883.61L701.173 1881.67L699.219 1879.72L697.251 1877.75L695.27 1875.77L693.275 1873.77L691.266 1871.76L689.243 1869.74L687.206 1867.7L685.156 1865.65L683.092 1863.59L681.014 1861.51L678.922 1859.42L676.816 1857.31L674.697 1855.19L672.563 1853.06L670.416 1850.91L668.255 1848.75L666.081 1846.58L663.892 1844.39L661.69 1842.19L661.69 1842.19L659.494 1839.99L657.327 1837.82L655.186 1835.68L653.074 1833.57L650.989 1831.49L648.932 1829.43L646.902 1827.4L644.9 1825.4L642.925 1823.42L640.978 1821.48L639.059 1819.56L637.168 1817.66L635.304 1815.8L633.467 1813.96L631.658 1812.15L629.877 1810.37L628.124 1808.62L626.398 1806.89L624.699 1805.2L623.029 1803.53L621.385 1801.88L619.77 1800.27L618.182 1798.68L616.622 1797.12L615.089 1795.59L613.584 1794.08L612.107 1792.6L610.657 1791.15L609.235 1789.73L607.84 1788.34L606.473 1786.97L605.134 1785.63L605.134 1785.63L603.85 1784.33L602.649 1783.06L601.53 1781.84L600.495 1780.66L599.542 1779.52L598.672 1778.42L597.885 1777.37L597.181 1776.35L596.559 1775.38L596.021 1774.45L595.565 1773.56L595.192 1772.71L594.902 1771.9L594.695 1771.13L594.571 1770.41L594.53 1769.72L594.571 1769.08L594.695 1768.48L594.902 1767.92L595.192 1767.4L595.565 1766.93L596.021 1766.49L596.559 1766.1L597.181 1765.75L597.885 1765.44L598.672 1765.17L599.542 1764.94L600.495 1764.75L601.53 1764.61L602.649 1764.5L603.85 1764.44L605.134 1764.42L605.134 1764.42L606.459 1764.42L607.785 1764.42L609.11 1764.42L610.436 1764.42L611.762 1764.42L613.087 1764.42L614.413 1764.42L615.738 1764.42L617.064 1764.42L618.389 1764.42L619.715 1764.42L621.04 1764.42L622.366 1764.42L623.691 1764.42L625.017 1764.42L626.342 1764.42L627.668 1764.42L628.993 1764.42L630.319 1764.42L631.644 1764.42L632.97 1764.42L634.296 1764.42L635.621 1764.42L636.947 1764.42L638.272 1764.42L639.598 1764.42L640.923 1764.42L642.249 1764.42L643.574 1764.42L644.9 1764.42L646.225 1764.42L647.551 1764.42L647.551 1764.42L648.869 1764.42L650.174 1764.42L651.465 1764.42L652.743 1764.42L654.006 1764.42L655.255 1764.42L656.491 1764.42L657.713 1764.42L658.921 1764.42L660.116 1764.42L661.296 1764.42L662.463 1764.42L663.616 1764.42L664.755 1764.42L665.88 1764.42L666.992 1764.42L668.09 1764.42L669.174 1764.42L670.244 1764.42L671.3 1764.42L672.342 1764.42L673.371 1764.42L674.386 1764.42L675.387 1764.42L676.374 1764.42L677.348 1764.42L678.307 1764.42L679.253 1764.42L680.185 1764.42L681.103 1764.42L682.008 1764.42L682.898 1764.42L682.898 1764.42L683.782 1764.44L684.666 1764.48L685.549 1764.55L686.433 1764.64L687.317 1764.77L688.2 1764.92L689.084 1765.1L689.968 1765.31L690.851 1765.54L691.735 1765.8L692.619 1766.09L693.503 1766.41L694.386 1766.76L695.27 1767.13L696.154 1767.53L697.037 1767.96L697.921 1768.41L698.805 1768.9L699.688 1769.41L700.572 1769.95L701.456 1770.51L702.339 1771.1L703.223 1771.73L704.107 1772.38L704.99 1773.05L705.874 1773.76L706.758 1774.49L707.642 1775.25L708.525 1776.03L709.409 1776.85L710.293 1777.69L711.176 1778.56L711.176 1778.56L712.06 1779.44L712.944 1780.33L713.827 1781.21L714.711 1782.1L715.595 1782.98L716.478 1783.86L717.362 1784.75L718.246 1785.63L719.129 1786.51L720.013 1787.4L720.897 1788.28L721.781 1789.17L722.664 1790.05L723.548 1790.93L724.432 1791.82L725.315 1792.7L726.199 1793.58L727.083 1794.47L727.966 1795.35L728.85 1796.23L729.734 1797.12L730.617 1798L731.501 1798.89L732.385 1799.77L733.268 1800.65L734.152 1801.54L735.036 1802.42L735.919 1803.3L736.803 1804.19L737.687 1805.07L738.571 1805.96L739.454 1806.84L739.454 1806.84L740.352 1807.74L741.277 1808.66L742.23 1809.61L743.21 1810.59L744.218 1811.6L745.253 1812.64L746.317 1813.7L747.407 1814.79L748.526 1815.91L749.672 1817.06L750.846 1818.23L752.047 1819.43L753.276 1820.66L754.532 1821.92L755.816 1823.2L757.128 1824.51L758.467 1825.85L759.834 1827.22L761.229 1828.61L762.651 1830.04L764.101 1831.49L765.578 1832.96L767.083 1834.47L768.616 1836L770.176 1837.56L771.764 1839.15L773.38 1840.76L775.023 1842.41L776.693 1844.08L778.392 1845.78L780.118 1847.5L781.871 1849.26L781.871 1849.26L783.639 1850.97L785.406 1852.57L787.173 1854.06L788.941 1855.44L790.708 1856.71L792.475 1857.87L794.243 1858.92L796.01 1859.86L797.778 1860.69L799.545 1861.41L801.312 1862.01L803.08 1862.51L804.847 1862.9L806.614 1863.17L808.382 1863.34L810.149 1863.39L811.917 1863.34L813.684 1863.17L815.451 1862.9L817.219 1862.51L818.986 1862.01L820.753 1861.41L822.521 1860.69L824.288 1859.86L826.056 1858.92L827.823 1857.87L829.59 1856.71L831.358 1855.44L833.125 1854.06L834.892 1852.57L836.66 1850.97L838.427 1849.26L838.427 1849.26L840.181 1847.5L841.907 1845.78L843.605 1844.08L845.276 1842.41L846.919 1840.76L848.534 1839.15L850.122 1837.56L851.682 1836L853.215 1834.47L854.72 1832.96L856.198 1831.49L857.647 1830.04L859.069 1828.61L860.464 1827.22L861.831 1825.85L863.17 1824.51L864.482 1823.2L865.766 1821.92L867.023 1820.66L868.252 1819.43L869.453 1818.23L870.626 1817.06L871.772 1815.91L872.891 1814.79L873.982 1813.7L875.045 1812.64L876.08 1811.6L877.088 1810.59L878.069 1809.61L879.021 1808.66L879.947 1807.74L880.844 1806.84L880.844 1806.84L881.728 1805.96L882.611 1805.07L883.495 1804.19L884.379 1803.3L885.263 1802.42L886.146 1801.54L887.03 1800.65L887.914 1799.77L888.797 1798.89L889.681 1798L890.565 1797.12L891.448 1796.23L892.332 1795.35L893.216 1794.47L894.099 1793.58L894.983 1792.7L895.867 1791.82L896.75 1790.93L897.634 1790.05L898.518 1789.17L899.401 1788.28L900.285 1787.4L901.169 1786.51L902.053 1785.63L902.936 1784.75L903.82 1783.86L904.704 1782.98L905.587 1782.1L906.471 1781.21L907.355 1780.33L908.238 1779.44L909.122 1778.56L909.122 1778.56L910.006 1777.69L910.889 1776.85L911.773 1776.03L912.657 1775.25L913.54 1774.49L914.424 1773.76L915.308 1773.05L916.192 1772.38L917.075 1771.73L917.959 1771.1L918.843 1770.51L919.726 1769.95L920.61 1769.41L921.494 1768.9L922.377 1768.41L923.261 1767.96L924.145 1767.53L925.028 1767.13L925.912 1766.76L926.796 1766.41L927.679 1766.09L928.563 1765.8L929.447 1765.54L930.331 1765.31L931.214 1765.1L932.098 1764.92L932.982 1764.77L933.865 1764.64L934.749 1764.55L935.633 1764.48L936.516 1764.44L937.4 1764.42L937.4 1764.42L938.291 1764.42L939.195 1764.42L940.113 1764.42L941.045 1764.42L941.991 1764.42L942.951 1764.42L943.924 1764.42L944.911 1764.42L945.912 1764.42L946.927 1764.42L947.956 1764.42L948.998 1764.42L950.055 1764.42L951.125 1764.42L952.209 1764.42L953.306 1764.42L954.418 1764.42L955.543 1764.42L956.682 1764.42L957.835 1764.42L959.002 1764.42L960.183 1764.42L961.377 1764.42L962.585 1764.42L963.807 1764.42L965.043 1764.42L966.292 1764.42L967.556 1764.42L968.833 1764.42L970.124 1764.42L971.429 1764.42L972.747 1764.42L972.747 1764.42L974.073 1764.42L975.399 1764.42L976.724 1764.42L978.05 1764.42L979.375 1764.42L980.701 1764.42L982.026 1764.42L983.352 1764.42L984.677 1764.42L986.003 1764.42L987.328 1764.42L988.654 1764.42L989.979 1764.42L991.305 1764.42L992.63 1764.42L993.956 1764.42L995.281 1764.42L996.607 1764.42L997.933 1764.42L999.258 1764.42L1000.58 1764.42L1001.91 1764.42L1003.23 1764.42L1004.56 1764.42L1005.89 1764.42L1007.21 1764.42L1008.54 1764.42L1009.86 1764.42L1011.19 1764.42L1012.51 1764.42L1013.84 1764.42L1015.16 1764.42L1015.16 1764.42L1016.45 1764.44L1017.65 1764.5L1018.77 1764.61L1019.8 1764.75L1020.76 1764.94L1021.63 1765.17L1022.41 1765.44L1023.12 1765.75L1023.74 1766.1L1024.28 1766.49L1024.73 1766.93L1025.11 1767.4L1025.4 1767.92L1025.6 1768.48L1025.73 1769.08L1025.77 1769.72L1025.73 1770.41L1025.6 1771.13L1025.4 1771.9L1025.11 1772.71L1024.73 1773.56L1024.28 1774.45L1023.74 1775.38L1023.12 1776.35L1022.41 1777.37L1021.63 1778.42L1020.76 1779.52L1019.8 1780.66L1018.77 1781.84L1017.65 1783.06L1016.45 1784.33L1015.16 1785.63L1015.16 1785.63L1013.82 1786.98L1012.43 1788.36L1011 1789.79L1009.53 1791.26L1008.02 1792.78L1006.47 1794.33L1004.87 1795.92L1003.23 1797.56L1001.56 1799.24L999.838 1800.96L998.078 1802.72L996.276 1804.52L994.432 1806.36L992.548 1808.25L990.621 1810.17L988.654 1812.14L986.645 1814.15L984.594 1816.2L982.503 1818.29L980.369 1820.43L978.195 1822.6L975.978 1824.82L973.721 1827.07L971.422 1829.37L969.082 1831.71L966.7 1834.1L964.276 1836.52L961.812 1838.98L959.306 1841.49L956.758 1844.04L954.169 1846.63L951.539 1849.26"/>
<path class="l6" d="M2280.6 1934.09L6776.8 1934.09"/>
<path class="l6" d="M103.2 1934.09L470.814 1934.09"/>
<text fill="#000000"  xml:space="preserve" font-size="58.8182" transform="translate(3097.5, 1195.71)" >M1</text>
<text fill="#000000"  xml:space="preserve" font-size="44.1136" transform="translate(3066.66, 1295.47)" >G</text>
<text fill="#000000"  xml:space="preserve" font-size="58.8182" transform="translate(3326.89, 1474.65)" >sg13_hv_nmos</text>
<text fill="#000000"  xml:space="preserve" font-size="44.1136" transform="translate(3284.47, 1451)" >S</text>
<text fill="#000000"  xml:space="preserve" font-size="44.1136" transform="translate(3284.47, 1202.46)" >D</text>
<text fill="#000000"  xml:space="preserve" font-size="44.1136" transform="translate(3270.33, 1295.47)" >B</text>
<text fill="#000000"  xml:space="preserve" font-size="58.8182" transform="translate(3333.96, 1400.73)" >m=1</text>
<text fill="#000000"  xml:space="preserve" font-size="58.8182" transform="translate(3333.96, 1351.24)" >ng=1</text>
<text fill="#000000"  xml:space="preserve" font-size="58.8182" transform="translate(3333.96, 1280.55)" >l=0.45u</text>
<text fill="#000000"  xml:space="preserve" font-size="58.8182" transform="translate(3333.96, 1216.92)" >w=0.3u</text>
<text fill="#000000"  xml:space="preserve" font-size="58.8182" transform="translate(3097.5, 743.266)" >M2</text>
<text fill="#000000"  xml:space="preserve" font-size="44.1136" transform="translate(3066.66, 843.026)" >G</text>
<text fill="#000000"  xml:space="preserve" font-size="58.8182" transform="translate(3326.89, 1022.21)" >sg13_hv_pmos</text>
<text fill="#000000"  xml:space="preserve" font-size="44.1136" transform="translate(3284.47, 998.555)" >D</text>
<text fill="#000000"  xml:space="preserve" font-size="44.1136" transform="translate(3284.47, 750.011)" >S</text>
<text fill="#000000"  xml:space="preserve" font-size="44.1136" transform="translate(3270.33, 843.026)" >B</text>
<text fill="#000000"  xml:space="preserve" font-size="58.8182" transform="translate(3333.96, 948.282)" >m=1</text>
<text fill="#000000"  xml:space="preserve" font-size="58.8182" transform="translate(3333.96, 898.795)" >ng=1</text>
<text fill="#000000"  xml:space="preserve" font-size="58.8182" transform="translate(3333.96, 828.1)" >l=0.45u</text>
<text fill="#000000"  xml:space="preserve" font-size="58.8182" transform="translate(3333.96, 764.475)" >w=0.6u</text>
<text fill="#000000"  xml:space="preserve" font-size="97.05" transform="translate(2251.66, 606.574)" >PDIGVDD</text>
<text fill="#000000"  xml:space="preserve" font-size="58.8182" transform="translate(2828.49, 540.598)" >1.2</text>
<text fill="#000000"  xml:space="preserve" font-size="97.05" transform="translate(2534.84, 1124.39)" >DIN</text>
<text fill="#000000"  xml:space="preserve" font-size="58.8182" transform="translate(2828.49, 1161.25)" >3.3</text>
<text fill="#000000"  xml:space="preserve" font-size="97.05" transform="translate(4853.9, 1124.39)" >DOUT</text>
<text fill="#000000"  xml:space="preserve" font-size="58.8182" transform="translate(4526.18, 1161.25)" >1.1971</text>
<text fill="#000000"  xml:space="preserve" font-size="97.05" transform="translate(2277.66, 1624.58)" >PDIGVSS</text>
<text fill="#000000"  xml:space="preserve" font-size="58.8182" transform="translate(2828.49, 1558.6)" >0.0</text>
<text fill="#000000"  xml:space="preserve" font-size="58.8182" transform="translate(4002.39, 1195.71)" >M3</text>
<text fill="#000000"  xml:space="preserve" font-size="44.1136" transform="translate(3971.56, 1295.47)" >G</text>
<text fill="#000000"  xml:space="preserve" font-size="58.8182" transform="translate(4231.78, 1474.65)" >sg13_hv_nmos</text>
<text fill="#000000"  xml:space="preserve" font-size="44.1136" transform="translate(4189.37, 1451)" >S</text>
<text fill="#000000"  xml:space="preserve" font-size="44.1136" transform="translate(4189.37, 1202.46)" >D</text>
<text fill="#000000"  xml:space="preserve" font-size="44.1136" transform="translate(4175.23, 1295.47)" >B</text>
<text fill="#000000"  xml:space="preserve" font-size="58.8182" transform="translate(4238.85, 1400.73)" >m=1</text>
<text fill="#000000"  xml:space="preserve" font-size="58.8182" transform="translate(4238.85, 1351.24)" >ng=1</text>
<text fill="#000000"  xml:space="preserve" font-size="58.8182" transform="translate(4238.85, 1280.55)" >l=0.45u</text>
<text fill="#000000"  xml:space="preserve" font-size="58.8182" transform="translate(4238.85, 1216.92)" >w=0.3u</text>
<text fill="#000000"  xml:space="preserve" font-size="58.8182" transform="translate(4002.39, 743.266)" >M4</text>
<text fill="#000000"  xml:space="preserve" font-size="44.1136" transform="translate(3971.56, 843.026)" >G</text>
<text fill="#000000"  xml:space="preserve" font-size="58.8182" transform="translate(4231.78, 1022.21)" >sg13_hv_pmos</text>
<text fill="#000000"  xml:space="preserve" font-size="44.1136" transform="translate(4189.37, 998.555)" >D</text>
<text fill="#000000"  xml:space="preserve" font-size="44.1136" transform="translate(4189.37, 750.011)" >S</text>
<text fill="#000000"  xml:space="preserve" font-size="44.1136" transform="translate(4175.23, 843.026)" >B</text>
<text fill="#000000"  xml:space="preserve" font-size="58.8182" transform="translate(4238.85, 948.282)" >m=1</text>
<text fill="#000000"  xml:space="preserve" font-size="58.8182" transform="translate(4238.85, 898.795)" >ng=1</text>
<text fill="#000000"  xml:space="preserve" font-size="58.8182" transform="translate(4238.85, 828.1)" >l=0.45u</text>
<text fill="#000000"  xml:space="preserve" font-size="58.8182" transform="translate(4238.85, 764.475)" >w=0.6u</text>
<text fill="#000000"  xml:space="preserve" font-size="117.636" transform="translate(2337.16, 2069.18)" >x3.         down_digital_translator.sch</text>
<text fill="#000000"  xml:space="preserve" font-size="117.636" transform="translate(2337.16, 1899.51)" >Pascal Gesell</text>
<text fill="#000000"  xml:space="preserve" font-size="117.636" transform="translate(5488.8, 1899.51)" >2026-03-23  10:54:08</text>
<text fill="#000000"  xml:space="preserve" font-size="294.091" transform="translate(1036.37, 2059.73)" >SCHEM</text>
<path class="l1" d="M3270.33 1085.75L3270.33 1142.31"/>
<path class="l1" d="M3270.33 1029.19L3270.33 1085.75"/>
<path class="l1" d="M3270.33 576.748L3270.33 689.859"/>
<path class="l1" d="M3270.33 576.748L3326.89 576.748"/>
<path class="l1" d="M3326.89 576.748L3326.89 859.527"/>
<path class="l1" d="M3270.33 859.527L3326.89 859.527"/>
<path class="l1" d="M3270.33 1481.64L3270.33 1594.75"/>
<path class="l1" d="M3270.33 1594.75L3326.89 1594.75"/>
<path class="l1" d="M3326.89 1311.97L3326.89 1594.75"/>
<path class="l1" d="M3270.33 1311.97L3326.89 1311.97"/>
<path class="l1" d="M2931 1311.97L3044.11 1311.97"/>
<path class="l1" d="M2931 1085.75L2931 1311.97"/>
<path class="l1" d="M2931 859.527L3044.11 859.527"/>
<path class="l1" d="M2817.88 1594.75L3270.33 1594.75"/>
<path class="l1" d="M2817.88 576.748L3270.33 576.748"/>
<path class="l1" d="M2817.88 1085.75L2931 1085.75"/>
<path class="l1" d="M2931 859.527L2931 1085.75"/>
<path class="l1" d="M4175.23 576.748L4231.78 576.748"/>
<path class="l1" d="M4175.23 1594.75L4231.78 1594.75"/>
<path class="l1" d="M4175.23 1085.75L4175.23 1142.31"/>
<path class="l1" d="M4175.23 1085.75L4740.79 1085.75"/>
<path class="l1" d="M4175.23 1029.19L4175.23 1085.75"/>
<path class="l1" d="M4175.23 576.748L4175.23 689.859"/>
<path class="l1" d="M4231.78 576.748L4231.78 859.527"/>
<path class="l1" d="M4175.23 859.527L4231.78 859.527"/>
<path class="l1" d="M4175.23 1481.64L4175.23 1594.75"/>
<path class="l1" d="M4231.78 1311.97L4231.78 1594.75"/>
<path class="l1" d="M4175.23 1311.97L4231.78 1311.97"/>
<path class="l1" d="M3835.89 1311.97L3949 1311.97"/>
<path class="l1" d="M3835.89 1085.75L3835.89 1311.97"/>
<path class="l1" d="M3835.89 859.527L3949 859.527"/>
<path class="l1" d="M3835.89 859.527L3835.89 1085.75"/>
<path class="l1" d="M3326.89 1594.75L4175.23 1594.75"/>
<path class="l1" d="M3326.89 576.748L4175.23 576.748"/>
<path class="l1" d="M3270.33 1085.75L3835.89 1085.75"/>
<circle class="l1" cx="3270.33" cy="1085.75" r="20.9257"/>
<circle class="l1" cx="3835.89" cy="1085.75" r="20.9257"/>
<circle class="l1" cx="3326.89" cy="576.748" r="20.9257"/>
<circle class="l1" cx="4175.23" cy="576.748" r="20.9257"/>
<circle class="l1" cx="3326.89" cy="1594.75" r="20.9257"/>
<circle class="l1" cx="4175.23" cy="1594.75" r="20.9257"/>
<circle class="l1" cx="3835.89" cy="1085.75" r="20.9257"/>
<circle class="l1" cx="3835.89" cy="1085.75" r="20.9257"/>
<circle class="l1" cx="4175.23" cy="1594.75" r="20.9257"/>
<circle class="l1" cx="4175.23" cy="576.748" r="20.9257"/>
<circle class="l1" cx="4175.23" cy="1085.75" r="20.9257"/>
<circle class="l1" cx="4175.23" cy="1085.75" r="20.9257"/>
<circle class="l1" cx="4175.23" cy="1085.75" r="20.9257"/>
<circle class="l1" cx="4175.23" cy="1594.75" r="20.9257"/>
<circle class="l1" cx="4175.23" cy="576.748" r="20.9257"/>
<circle class="l1" cx="2931" cy="1085.75" r="20.9257"/>
<circle class="l1" cx="2931" cy="1085.75" r="20.9257"/>
<circle class="l1" cx="3270.33" cy="576.748" r="20.9257"/>
<circle class="l1" cx="3270.33" cy="1594.75" r="20.9257"/>
<circle class="l1" cx="2931" cy="1085.75" r="20.9257"/>
<circle class="l1" cx="3326.89" cy="1594.75" r="20.9257"/>
<circle class="l1" cx="3270.33" cy="1594.75" r="20.9257"/>
<circle class="l1" cx="3326.89" cy="1594.75" r="20.9257"/>
<circle class="l1" cx="3270.33" cy="1594.75" r="20.9257"/>
<circle class="l1" cx="3326.89" cy="576.748" r="20.9257"/>
<circle class="l1" cx="3270.33" cy="576.748" r="20.9257"/>
<circle class="l1" cx="3326.89" cy="576.748" r="20.9257"/>
<circle class="l1" cx="3270.33" cy="576.748" r="20.9257"/>
<circle class="l1" cx="3270.33" cy="1085.75" r="20.9257"/>
<circle class="l1" cx="3270.33" cy="1085.75" r="20.9257"/>
</svg>
