<svg xmlns="http://www.w3.org/2000/svg" xmlns:xlink="http://www.w3.org/1999/xlink" width="6880" height="2621" version="1.1">
<style type="text/css">
.l0{
  fill: #ffffff;
  stroke: #ffffff;
  stroke-linecap:round;
  stroke-linejoin:round;
  stroke-width: 7.63505;
}
.l1{
  fill: #000000;
  stroke: #000000;
  stroke-linecap:round;
  stroke-linejoin:round;
  stroke-width: 7.63505;
}
.l2{
  fill: #000000; fill-opacity: 0.2;
  stroke: #000000;
  stroke-linecap:round;
  stroke-linejoin:round;
  stroke-width: 7.63505;
}
.l3{
  fill: #000000; fill-opacity: 0.5;
  stroke: #000000;
  stroke-linecap:round;
  stroke-linejoin:round;
  stroke-width: 7.63505;
}
.l4{
  fill: #000000;
  stroke: #000000;
  stroke-linecap:round;
  stroke-linejoin:round;
  stroke-width: 7.63505;
}
.l5{
  fill: #000000;
  stroke: #000000;
  stroke-linecap:round;
  stroke-linejoin:round;
  stroke-width: 7.63505;
}
.l6{
  fill: #000000; fill-opacity: 0.5;
  stroke: #000000;
  stroke-linecap:round;
  stroke-linejoin:round;
  stroke-width: 7.63505;
}
.l7{
  fill: #000000; fill-opacity: 0.5;
  stroke: #000000;
  stroke-linecap:round;
  stroke-linejoin:round;
  stroke-width: 7.63505;
}
.l8{
  fill: #000000; fill-opacity: 0.5;
  stroke: #000000;
  stroke-linecap:round;
  stroke-linejoin:round;
  stroke-width: 7.63505;
}
.l9{
  fill: #000000; fill-opacity: 0.5;
  stroke: #000000;
  stroke-linecap:round;
  stroke-linejoin:round;
  stroke-width: 7.63505;
}
.l10{
  fill: #000000;
  stroke: #000000;
  stroke-linecap:round;
  stroke-linejoin:round;
  stroke-width: 7.63505;
}
.l11{
  fill: #000000; fill-opacity: 0.5;
  stroke: #000000;
  stroke-linecap:round;
  stroke-linejoin:round;
  stroke-width: 7.63505;
}
.l12{
  fill: #000000; fill-opacity: 0.5;
  stroke: #000000;
  stroke-linecap:round;
  stroke-linejoin:round;
  stroke-width: 7.63505;
}
.l13{
  fill: #000000; fill-opacity: 0.5;
  stroke: #000000;
  stroke-linecap:round;
  stroke-linejoin:round;
  stroke-width: 7.63505;
}
.l14{
  fill: #000000; fill-opacity: 0.2;
  stroke: #000000;
  stroke-linecap:round;
  stroke-linejoin:round;
  stroke-width: 7.63505;
}
.l15{
  fill: #000000; fill-opacity: 0.5;
  stroke: #000000;
  stroke-linecap:round;
  stroke-linejoin:round;
  stroke-width: 7.63505;
}
.l16{
  fill: #000000; fill-opacity: 0.5;
  stroke: #000000;
  stroke-linecap:round;
  stroke-linejoin:round;
  stroke-width: 7.63505;
}
.l17{
  fill: #000000; fill-opacity: 0.2;
  stroke: #000000;
  stroke-linecap:round;
  stroke-linejoin:round;
  stroke-width: 7.63505;
}
.l18{
  fill: #000000; fill-opacity: 0.5;
  stroke: #000000;
  stroke-linecap:round;
  stroke-linejoin:round;
  stroke-width: 7.63505;
}
.l19{
  fill: #000000; fill-opacity: 0.2;
  stroke: #000000;
  stroke-linecap:round;
  stroke-linejoin:round;
  stroke-width: 7.63505;
}
.l20{
  fill: #000000; fill-opacity: 0.2;
  stroke: #000000;
  stroke-linecap:round;
  stroke-linejoin:round;
  stroke-width: 7.63505;
}
.l21{
  fill: #000000; fill-opacity: 0.2;
  stroke: #000000;
  stroke-linecap:round;
  stroke-linejoin:round;
  stroke-width: 7.63505;
}
text {font-family: Sans-Serif;}
</style>
<rect class="l0" x="0" y="0" width="6880" height="2621"/>
<path class="l4" d="M3312.75 1297.83L3312.75 1552.33"/>
<path class="l4" d="M3383.44 1255.41L3383.44 1326.11"/>
<path class="l4" d="M3383.44 1524.05L3383.44 1594.75"/>
<path class="l4" d="M3284.47 1340.25L3284.47 1509.91"/>
<path class="l4" d="M3312.75 1524.05L3383.44 1524.05"/>
<path class="l4" d="M3312.75 1326.11L3383.44 1326.11"/>
<path class="l4" d="M3157.22 1425.08L3281.64 1425.08"/>
<path class="l4" d="M3355.17 1538.19L3383.44 1524.05L3355.17 1509.91L3355.17 1538.19"/>
<path class="l4" d="M3821.75 619.158L3821.75 873.659"/>
<path class="l4" d="M3892.45 576.741L3892.45 647.436"/>
<path class="l4" d="M3892.45 845.382L3892.45 916.076"/>
<path class="l4" d="M3793.47 661.575L3793.47 831.243"/>
<path class="l4" d="M3821.75 845.382L3892.45 845.382"/>
<path class="l4" d="M3821.75 647.436L3892.45 647.436"/>
<path class="l4" d="M3666.22 746.409L3790.65 746.409"/>
<path class="l4" d="M3850.03 633.297L3821.75 647.436L3850.03 661.575L3850.03 633.297"/>
<path class="l4" d="M4161.09 1297.83L4161.09 1552.33"/>
<path class="l4" d="M4231.78 1255.41L4231.78 1326.11"/>
<path class="l4" d="M4231.78 1524.05L4231.78 1594.75"/>
<path class="l4" d="M4132.81 1340.25L4132.81 1509.91"/>
<path class="l4" d="M4161.09 1524.05L4231.78 1524.05"/>
<path class="l4" d="M4161.09 1326.11L4231.78 1326.11"/>
<path class="l4" d="M4005.56 1425.08L4129.98 1425.08"/>
<path class="l4" d="M4203.51 1538.19L4231.78 1524.05L4203.51 1509.91L4203.51 1538.19"/>
<path class="l4" d="M2803.75 619.158L2803.75 873.659"/>
<path class="l4" d="M2874.44 576.741L2874.44 647.436"/>
<path class="l4" d="M2874.44 845.382L2874.44 916.076"/>
<path class="l4" d="M2775.47 661.575L2775.47 831.243"/>
<path class="l4" d="M2803.75 845.382L2874.44 845.382"/>
<path class="l4" d="M2803.75 647.436L2874.44 647.436"/>
<path class="l4" d="M2648.22 746.409L2772.64 746.409"/>
<path class="l4" d="M2832.02 633.297L2803.75 647.436L2832.02 661.575L2832.02 633.297"/>
<path class="l5" d="M3383.44 1439.22L3355.17 1425.08L3383.44 1410.94L3383.44 1439.22"/>
<path class="l5" d="M3369.31 1241.27L3397.58 1241.27L3397.58 1269.55L3369.31 1269.55L3369.31 1241.27z"/>
<path class="l5" d="M3143.08 1410.94L3171.36 1410.94L3171.36 1439.22L3143.08 1439.22L3143.08 1410.94z"/>
<path class="l5" d="M3369.31 1580.61L3397.58 1580.61L3397.58 1608.89L3369.31 1608.89L3369.31 1580.61z"/>
<path class="l5" d="M3383 1424.64L3383.89 1424.64L3383.89 1425.52L3383 1425.52L3383 1424.64z"/>
<path class="l5" d="M3864.17 732.27L3892.45 746.409L3864.17 760.548L3864.17 732.27"/>
<path class="l5" d="M3878.31 901.937L3906.59 901.937L3906.59 930.215L3878.31 930.215L3878.31 901.937z"/>
<path class="l5" d="M3652.08 732.27L3680.36 732.27L3680.36 760.548L3652.08 760.548L3652.08 732.27z"/>
<path class="l5" d="M3878.31 562.602L3906.59 562.602L3906.59 590.88L3878.31 590.88L3878.31 562.602z"/>
<path class="l5" d="M3892.01 745.967L3892.89 745.967L3892.89 746.85L3892.01 746.85L3892.01 745.967z"/>
<path class="l5" d="M4231.78 1439.22L4203.51 1425.08L4231.78 1410.94L4231.78 1439.22"/>
<path class="l5" d="M4217.64 1241.27L4245.92 1241.27L4245.92 1269.55L4217.64 1269.55L4217.64 1241.27z"/>
<path class="l5" d="M3991.42 1410.94L4019.7 1410.94L4019.7 1439.22L3991.42 1439.22L3991.42 1410.94z"/>
<path class="l5" d="M4217.64 1580.61L4245.92 1580.61L4245.92 1608.89L4217.64 1608.89L4217.64 1580.61z"/>
<path class="l5" d="M4231.34 1424.64L4232.22 1424.64L4232.22 1425.52L4231.34 1425.52L4231.34 1424.64z"/>
<path class="l5" d="M2846.16 732.27L2874.44 746.409L2846.16 760.548L2846.16 732.27"/>
<path class="l5" d="M2860.3 901.937L2888.58 901.937L2888.58 930.215L2860.3 930.215L2860.3 901.937z"/>
<path class="l5" d="M2634.08 732.27L2662.36 732.27L2662.36 760.548L2634.08 760.548L2634.08 732.27z"/>
<path class="l5" d="M2860.3 562.602L2888.58 562.602L2888.58 590.88L2860.3 590.88L2860.3 562.602z"/>
<path class="l5" d="M2874 745.967L2874.88 745.967L2874.88 746.85L2874 746.85L2874 745.967z"/>
<path class="l5" d="M2573.99 463.629L2591.66 463.629"/>
<path class="l5" d="M2513.9 435.351L2492.69 463.629L2513.9 491.907L2552.78 491.907L2573.99 463.629L2552.78 435.351L2513.9 435.351"/>
<path class="l5" d="M2584.59 456.559L2598.73 456.559L2598.73 470.698L2584.59 470.698L2584.59 456.559z"/>
<path class="l5" d="M2573.99 1707.86L2591.66 1707.86"/>
<path class="l5" d="M2513.9 1679.58L2492.69 1707.86L2513.9 1736.14L2552.78 1736.14L2573.99 1707.86L2552.78 1679.58L2513.9 1679.58"/>
<path class="l5" d="M2584.59 1700.79L2598.73 1700.79L2598.73 1714.93L2584.59 1714.93L2584.59 1700.79z"/>
<path class="l5" d="M4627.67 1142.3L4677.16 1142.3"/>
<path class="l5" d="M4726.65 1142.3L4705.44 1114.02L4655.95 1114.02L4677.16 1142.3L4655.95 1170.58L4705.44 1170.58L4726.65 1142.3"/>
<path class="l5" d="M4620.61 1135.23L4634.74 1135.23L4634.74 1149.37L4620.61 1149.37L4620.61 1135.23z"/>
<path class="l5" d="M951.539 1962.36L949.772 1964.13L948.004 1965.9L946.237 1967.66L944.469 1969.43L942.702 1971.2L940.935 1972.97L939.167 1974.73L937.4 1976.5L935.633 1978.27L933.865 1980.03L932.098 1981.8L930.331 1983.57L928.563 1985.34L926.796 1987.1L925.028 1988.87L923.261 1990.64L921.494 1992.41L919.726 1994.17L917.959 1995.94L916.192 1997.71L914.424 1999.48L912.657 2001.24L910.889 2003.01L909.122 2004.78L907.355 2006.55L905.587 2008.31L903.82 2010.08L902.053 2011.85L900.285 2013.61L898.518 2015.38L896.75 2017.15L894.983 2018.92L894.983 2018.92L893.271 2020.68L891.669 2022.45L890.178 2024.22L888.797 2025.99L887.527 2027.75L886.367 2029.52L885.318 2031.29L884.379 2033.06L883.55 2034.82L882.832 2036.59L882.225 2038.36L881.728 2040.13L881.341 2041.89L881.065 2043.66L880.899 2045.43L880.844 2047.2L880.899 2048.96L881.065 2050.73L881.341 2052.5L881.728 2054.26L882.225 2056.03L882.832 2057.8L883.55 2059.57L884.379 2061.33L885.318 2063.1L886.367 2064.87L887.527 2066.64L888.797 2068.4L890.178 2070.17L891.669 2071.94L893.271 2073.71L894.983 2075.47L894.983 2075.47L896.757 2077.25L898.545 2079.04L900.347 2080.84L902.163 2082.65L903.993 2084.48L905.836 2086.33L907.693 2088.18L909.564 2090.05L911.449 2091.94L913.347 2093.84L915.26 2095.75L917.186 2097.68L919.126 2099.62L921.079 2101.57L923.047 2103.54L925.028 2105.52L927.024 2107.51L929.033 2109.52L931.055 2111.55L933.092 2113.58L935.142 2115.63L937.207 2117.7L939.285 2119.77L941.377 2121.87L943.482 2123.97L945.602 2126.09L947.735 2128.22L949.882 2130.37L952.043 2132.53L954.218 2134.71L956.406 2136.9L958.608 2139.1L958.608 2139.1L960.804 2141.29L962.972 2143.46L965.112 2145.6L967.224 2147.71L969.309 2149.8L971.367 2151.86L973.396 2153.89L975.399 2155.89L977.373 2157.86L979.32 2159.81L981.239 2161.73L983.131 2163.62L984.995 2165.48L986.831 2167.32L988.64 2169.13L990.421 2170.91L992.175 2172.66L993.901 2174.39L995.599 2176.09L997.27 2177.76L998.913 2179.4L1000.53 2181.02L1002.12 2182.61L1003.68 2184.17L1005.21 2185.7L1006.71 2187.2L1008.19 2188.68L1009.64 2190.13L1011.06 2191.55L1012.46 2192.95L1013.83 2194.32L1015.16 2195.65L1015.16 2195.65L1016.45 2196.96L1017.65 2198.22L1018.77 2199.44L1019.8 2200.63L1020.76 2201.76L1021.63 2202.86L1022.41 2203.92L1023.12 2204.93L1023.74 2205.91L1024.28 2206.84L1024.73 2207.73L1025.11 2208.58L1025.4 2209.39L1025.6 2210.15L1025.73 2210.88L1025.77 2211.56L1025.73 2212.2L1025.6 2212.8L1025.4 2213.36L1025.11 2213.88L1024.73 2214.36L1024.28 2214.79L1023.74 2215.19L1023.12 2215.54L1022.41 2215.85L1021.63 2216.12L1020.76 2216.35L1019.8 2216.53L1018.77 2216.68L1017.65 2216.78L1016.45 2216.84L1015.16 2216.86L1015.16 2216.86L1013.84 2216.86L1012.51 2216.86L1011.19 2216.86L1009.86 2216.86L1008.54 2216.86L1007.21 2216.86L1005.89 2216.86L1004.56 2216.86L1003.23 2216.86L1001.91 2216.86L1000.58 2216.86L999.258 2216.86L997.933 2216.86L996.607 2216.86L995.281 2216.86L993.956 2216.86L992.63 2216.86L991.305 2216.86L989.979 2216.86L988.654 2216.86L987.328 2216.86L986.003 2216.86L984.677 2216.86L983.352 2216.86L982.026 2216.86L980.701 2216.86L979.375 2216.86L978.05 2216.86L976.724 2216.86L975.399 2216.86L974.073 2216.86L972.747 2216.86L972.747 2216.86L971.429 2216.86L970.124 2216.86L968.833 2216.86L967.556 2216.86L966.292 2216.86L965.043 2216.86L963.807 2216.86L962.585 2216.86L961.377 2216.86L960.183 2216.86L959.002 2216.86L957.835 2216.86L956.682 2216.86L955.543 2216.86L954.418 2216.86L953.306 2216.86L952.209 2216.86L951.125 2216.86L950.055 2216.86L948.998 2216.86L947.956 2216.86L946.927 2216.86L945.912 2216.86L944.911 2216.86L943.924 2216.86L942.951 2216.86L941.991 2216.86L941.045 2216.86L940.113 2216.86L939.195 2216.86L938.291 2216.86L937.4 2216.86L937.4 2216.86L936.516 2216.85L935.633 2216.81L934.749 2216.74L933.865 2216.64L932.982 2216.52L932.098 2216.37L931.214 2216.19L930.331 2215.98L929.447 2215.74L928.563 2215.48L927.679 2215.19L926.796 2214.87L925.912 2214.53L925.028 2214.16L924.145 2213.76L923.261 2213.33L922.377 2212.87L921.494 2212.39L920.61 2211.88L919.726 2211.34L918.843 2210.77L917.959 2210.18L917.075 2209.56L916.192 2208.91L915.308 2208.23L914.424 2207.53L913.54 2206.8L912.657 2206.04L911.773 2205.25L910.889 2204.44L910.006 2203.59L909.122 2202.72L909.122 2202.72L908.238 2201.84L907.355 2200.96L906.471 2200.07L905.587 2199.19L904.704 2198.31L903.82 2197.42L902.936 2196.54L902.053 2195.65L901.169 2194.77L900.285 2193.89L899.401 2193L898.518 2192.12L897.634 2191.24L896.75 2190.35L895.867 2189.47L894.983 2188.58L894.099 2187.7L893.216 2186.82L892.332 2185.93L891.448 2185.05L890.565 2184.17L889.681 2183.28L888.797 2182.4L887.914 2181.52L887.03 2180.63L886.146 2179.75L885.263 2178.86L884.379 2177.98L883.495 2177.1L882.611 2176.21L881.728 2175.33L880.844 2174.45L880.844 2174.45L879.947 2173.55L879.021 2172.62L878.069 2171.67L877.088 2170.69L876.08 2169.68L875.045 2168.65L873.982 2167.58L872.891 2166.49L871.772 2165.37L870.626 2164.23L869.453 2163.05L868.252 2161.85L867.023 2160.62L865.766 2159.37L864.482 2158.08L863.17 2156.77L861.831 2155.43L860.464 2154.07L859.069 2152.67L857.647 2151.25L856.198 2149.8L854.72 2148.32L853.215 2146.82L851.682 2145.28L850.122 2143.72L848.534 2142.14L846.919 2140.52L845.276 2138.88L843.605 2137.21L841.907 2135.51L840.181 2133.78L838.427 2132.03L838.427 2132.03L836.66 2130.32L834.892 2128.72L833.125 2127.22L831.358 2125.84L829.59 2124.57L827.823 2123.41L826.056 2122.36L824.288 2121.42L822.521 2120.6L820.753 2119.88L818.986 2119.27L817.219 2118.77L815.451 2118.39L813.684 2118.11L811.917 2117.95L810.149 2117.89L808.382 2117.95L806.614 2118.11L804.847 2118.39L803.08 2118.77L801.312 2119.27L799.545 2119.88L797.778 2120.6L796.01 2121.42L794.243 2122.36L792.475 2123.41L790.708 2124.57L788.941 2125.84L787.173 2127.22L785.406 2128.72L783.639 2130.32L781.871 2132.03L781.871 2132.03L780.118 2133.78L778.392 2135.51L776.693 2137.21L775.023 2138.88L773.38 2140.52L771.764 2142.14L770.176 2143.72L768.616 2145.28L767.083 2146.82L765.578 2148.32L764.101 2149.8L762.651 2151.25L761.229 2152.67L759.834 2154.07L758.467 2155.43L757.128 2156.77L755.816 2158.08L754.532 2159.37L753.276 2160.62L752.047 2161.85L750.846 2163.05L749.672 2164.23L748.526 2165.37L747.407 2166.49L746.317 2167.58L745.253 2168.65L744.218 2169.68L743.21 2170.69L742.23 2171.67L741.277 2172.62L740.352 2173.55L739.454 2174.45L739.454 2174.45L738.571 2175.33L737.687 2176.21L736.803 2177.1L735.919 2177.98L735.036 2178.86L734.152 2179.75L733.268 2180.63L732.385 2181.52L731.501 2182.4L730.617 2183.28L729.734 2184.17L728.85 2185.05L727.966 2185.93L727.083 2186.82L726.199 2187.7L725.315 2188.58L724.432 2189.47L723.548 2190.35L722.664 2191.24L721.781 2192.12L720.897 2193L720.013 2193.89L719.129 2194.77L718.246 2195.65L717.362 2196.54L716.478 2197.42L715.595 2198.31L714.711 2199.19L713.827 2200.07L712.944 2200.96L712.06 2201.84L711.176 2202.72L711.176 2202.72L710.293 2203.59L709.409 2204.44L708.525 2205.25L707.642 2206.04L706.758 2206.8L705.874 2207.53L704.99 2208.23L704.107 2208.91L703.223 2209.56L702.339 2210.18L701.456 2210.77L700.572 2211.34L699.688 2211.88L698.805 2212.39L697.921 2212.87L697.037 2213.33L696.154 2213.76L695.27 2214.16L694.386 2214.53L693.503 2214.87L692.619 2215.19L691.735 2215.48L690.851 2215.74L689.968 2215.98L689.084 2216.19L688.2 2216.37L687.317 2216.52L686.433 2216.64L685.549 2216.74L684.666 2216.81L683.782 2216.85L682.898 2216.86L682.898 2216.86L682.008 2216.86L681.103 2216.86L680.185 2216.86L679.253 2216.86L678.307 2216.86L677.348 2216.86L676.374 2216.86L675.387 2216.86L674.386 2216.86L673.371 2216.86L672.342 2216.86L671.3 2216.86L670.244 2216.86L669.174 2216.86L668.09 2216.86L666.992 2216.86L665.88 2216.86L664.755 2216.86L663.616 2216.86L662.463 2216.86L661.296 2216.86L660.116 2216.86L658.921 2216.86L657.713 2216.86L656.491 2216.86L655.255 2216.86L654.006 2216.86L652.743 2216.86L651.465 2216.86L650.174 2216.86L648.869 2216.86L647.551 2216.86L647.551 2216.86L646.225 2216.86L644.9 2216.86L643.574 2216.86L642.249 2216.86L640.923 2216.86L639.598 2216.86L638.272 2216.86L636.947 2216.86L635.621 2216.86L634.296 2216.86L632.97 2216.86L631.644 2216.86L630.319 2216.86L628.993 2216.86L627.668 2216.86L626.342 2216.86L625.017 2216.86L623.691 2216.86L622.366 2216.86L621.04 2216.86L619.715 2216.86L618.389 2216.86L617.064 2216.86L615.738 2216.86L614.413 2216.86L613.087 2216.86L611.762 2216.86L610.436 2216.86L609.11 2216.86L607.785 2216.86L606.459 2216.86L605.134 2216.86L605.134 2216.86L603.85 2216.84L602.649 2216.78L601.53 2216.68L600.495 2216.53L599.542 2216.35L598.672 2216.12L597.885 2215.85L597.181 2215.54L596.559 2215.19L596.021 2214.79L595.565 2214.36L595.192 2213.88L594.902 2213.36L594.695 2212.8L594.571 2212.2L594.53 2211.56L594.571 2210.88L594.695 2210.15L594.902 2209.39L595.192 2208.58L595.565 2207.73L596.021 2206.84L596.559 2205.91L597.181 2204.93L597.885 2203.92L598.672 2202.86L599.542 2201.76L600.495 2200.63L601.53 2199.44L602.649 2198.22L603.85 2196.96L605.134 2195.65L605.134 2195.65L606.473 2194.32L607.84 2192.95L609.235 2191.55L610.657 2190.13L612.107 2188.68L613.584 2187.2L615.089 2185.7L616.622 2184.17L618.182 2182.61L619.77 2181.02L621.385 2179.4L623.029 2177.76L624.699 2176.09L626.398 2174.39L628.124 2172.66L629.877 2170.91L631.658 2169.13L633.467 2167.32L635.304 2165.48L637.168 2163.62L639.059 2161.73L640.978 2159.81L642.925 2157.86L644.9 2155.89L646.902 2153.89L648.932 2151.86L650.989 2149.8L653.074 2147.71L655.186 2145.6L657.327 2143.46L659.494 2141.29L661.69 2139.1L661.69 2139.1L663.892 2136.9L666.081 2134.71L668.255 2132.53L670.416 2130.37L672.563 2128.22L674.697 2126.09L676.816 2123.97L678.922 2121.87L681.014 2119.77L683.092 2117.7L685.156 2115.63L687.206 2113.58L689.243 2111.55L691.266 2109.52L693.275 2107.51L695.27 2105.52L697.251 2103.54L699.219 2101.57L701.173 2099.62L703.113 2097.68L705.039 2095.75L706.951 2093.84L708.85 2091.94L710.734 2090.05L712.605 2088.18L714.462 2086.33L716.306 2084.48L718.135 2082.65L719.951 2080.84L721.753 2079.04L723.541 2077.25L725.315 2075.47L725.315 2075.47L727.027 2073.71L728.629 2071.94L730.12 2070.17L731.501 2068.4L732.771 2066.64L733.931 2064.87L734.981 2063.1L735.919 2061.33L736.748 2059.57L737.466 2057.8L738.073 2056.03L738.571 2054.26L738.957 2052.5L739.233 2050.73L739.399 2048.96L739.454 2047.2L739.399 2045.43L739.233 2043.66L738.957 2041.89L738.571 2040.13L738.073 2038.36L737.466 2036.59L736.748 2034.82L735.919 2033.06L734.981 2031.29L733.931 2029.52L732.771 2027.75L731.501 2025.99L730.12 2024.22L728.629 2022.45L727.027 2020.68L725.315 2018.92L725.315 2018.92L723.541 2017.14L721.753 2015.35L719.951 2013.55L718.135 2011.74L716.306 2009.91L714.462 2008.06L712.605 2006.21L710.734 2004.34L708.85 2002.45L706.951 2000.55L705.039 1998.64L703.113 1996.71L701.173 1994.77L699.219 1992.82L697.251 1990.85L695.27 1988.87L693.275 1986.88L691.266 1984.87L689.243 1982.84L687.206 1980.81L685.156 1978.76L683.092 1976.69L681.014 1974.62L678.922 1972.52L676.816 1970.42L674.697 1968.3L672.563 1966.17L670.416 1964.02L668.255 1961.86L666.081 1959.68L663.892 1957.49L661.69 1955.29L661.69 1955.29L659.494 1953.1L657.327 1950.93L655.186 1948.79L653.074 1946.68L650.989 1944.59L648.932 1942.53L646.902 1940.5L644.9 1938.5L642.925 1936.53L640.978 1934.58L639.059 1932.66L637.168 1930.77L635.304 1928.91L633.467 1927.07L631.658 1925.26L629.877 1923.48L628.124 1921.73L626.398 1920L624.699 1918.3L623.029 1916.63L621.385 1914.99L619.77 1913.37L618.182 1911.78L616.622 1910.22L615.089 1908.69L613.584 1907.19L612.107 1905.71L610.657 1904.26L609.235 1902.84L607.84 1901.44L606.473 1900.08L605.134 1898.74L605.134 1898.74L603.85 1897.43L602.649 1896.17L601.53 1894.95L600.495 1893.77L599.542 1892.63L598.672 1891.53L597.885 1890.47L597.181 1889.46L596.559 1888.48L596.021 1887.55L595.565 1886.66L595.192 1885.81L594.902 1885L594.695 1884.24L594.571 1883.51L594.53 1882.83L594.571 1882.19L594.695 1881.59L594.902 1881.03L595.192 1880.51L595.565 1880.03L596.021 1879.6L596.559 1879.2L597.181 1878.85L597.885 1878.54L598.672 1878.27L599.542 1878.05L600.495 1877.86L601.53 1877.71L602.649 1877.61L603.85 1877.55L605.134 1877.53L605.134 1877.53L606.459 1877.53L607.785 1877.53L609.11 1877.53L610.436 1877.53L611.762 1877.53L613.087 1877.53L614.413 1877.53L615.738 1877.53L617.064 1877.53L618.389 1877.53L619.715 1877.53L621.04 1877.53L622.366 1877.53L623.691 1877.53L625.017 1877.53L626.342 1877.53L627.668 1877.53L628.993 1877.53L630.319 1877.53L631.644 1877.53L632.97 1877.53L634.296 1877.53L635.621 1877.53L636.947 1877.53L638.272 1877.53L639.598 1877.53L640.923 1877.53L642.249 1877.53L643.574 1877.53L644.9 1877.53L646.225 1877.53L647.551 1877.53L647.551 1877.53L648.869 1877.53L650.174 1877.53L651.465 1877.53L652.743 1877.53L654.006 1877.53L655.255 1877.53L656.491 1877.53L657.713 1877.53L658.921 1877.53L660.116 1877.53L661.296 1877.53L662.463 1877.53L663.616 1877.53L664.755 1877.53L665.88 1877.53L666.992 1877.53L668.09 1877.53L669.174 1877.53L670.244 1877.53L671.3 1877.53L672.342 1877.53L673.371 1877.53L674.386 1877.53L675.387 1877.53L676.374 1877.53L677.348 1877.53L678.307 1877.53L679.253 1877.53L680.185 1877.53L681.103 1877.53L682.008 1877.53L682.898 1877.53L682.898 1877.53L683.782 1877.54L684.666 1877.58L685.549 1877.65L686.433 1877.75L687.317 1877.87L688.2 1878.02L689.084 1878.2L689.968 1878.41L690.851 1878.65L691.735 1878.91L692.619 1879.2L693.503 1879.52L694.386 1879.86L695.27 1880.23L696.154 1880.63L697.037 1881.06L697.921 1881.52L698.805 1882L699.688 1882.51L700.572 1883.05L701.456 1883.62L702.339 1884.21L703.223 1884.83L704.107 1885.48L704.99 1886.16L705.874 1886.86L706.758 1887.59L707.642 1888.35L708.525 1889.14L709.409 1889.95L710.293 1890.8L711.176 1891.67L711.176 1891.67L712.06 1892.55L712.944 1893.43L713.827 1894.32L714.711 1895.2L715.595 1896.08L716.478 1896.97L717.362 1897.85L718.246 1898.74L719.129 1899.62L720.013 1900.5L720.897 1901.39L721.781 1902.27L722.664 1903.15L723.548 1904.04L724.432 1904.92L725.315 1905.81L726.199 1906.69L727.083 1907.57L727.966 1908.46L728.85 1909.34L729.734 1910.22L730.617 1911.11L731.501 1911.99L732.385 1912.87L733.268 1913.76L734.152 1914.64L735.036 1915.53L735.919 1916.41L736.803 1917.29L737.687 1918.18L738.571 1919.06L739.454 1919.94L739.454 1919.94L740.352 1920.84L741.277 1921.77L742.23 1922.72L743.21 1923.7L744.218 1924.71L745.253 1925.74L746.317 1926.81L747.407 1927.9L748.526 1929.02L749.672 1930.16L750.846 1931.34L752.047 1932.54L753.276 1933.77L754.532 1935.02L755.816 1936.31L757.128 1937.62L758.467 1938.96L759.834 1940.32L761.229 1941.72L762.651 1943.14L764.101 1944.59L765.578 1946.07L767.083 1947.57L768.616 1949.11L770.176 1950.67L771.764 1952.25L773.38 1953.87L775.023 1955.51L776.693 1957.18L778.392 1958.88L780.118 1960.61L781.871 1962.36L781.871 1962.36L783.639 1964.07L785.406 1965.67L787.173 1967.17L788.941 1968.55L790.708 1969.82L792.475 1970.98L794.243 1972.03L796.01 1972.97L797.778 1973.79L799.545 1974.51L801.312 1975.12L803.08 1975.62L804.847 1976L806.614 1976.28L808.382 1976.44L810.149 1976.5L811.917 1976.44L813.684 1976.28L815.451 1976L817.219 1975.62L818.986 1975.12L820.753 1974.51L822.521 1973.79L824.288 1972.97L826.056 1972.03L827.823 1970.98L829.59 1969.82L831.358 1968.55L833.125 1967.17L834.892 1965.67L836.66 1964.07L838.427 1962.36L838.427 1962.36L840.181 1960.61L841.907 1958.88L843.605 1957.18L845.276 1955.51L846.919 1953.87L848.534 1952.25L850.122 1950.67L851.682 1949.11L853.215 1947.57L854.72 1946.07L856.198 1944.59L857.647 1943.14L859.069 1941.72L860.464 1940.32L861.831 1938.96L863.17 1937.62L864.482 1936.31L865.766 1935.02L867.023 1933.77L868.252 1932.54L869.453 1931.34L870.626 1930.16L871.772 1929.02L872.891 1927.9L873.982 1926.81L875.045 1925.74L876.08 1924.71L877.088 1923.7L878.069 1922.72L879.021 1921.77L879.947 1920.84L880.844 1919.94L880.844 1919.94L881.728 1919.06L882.611 1918.18L883.495 1917.29L884.379 1916.41L885.263 1915.53L886.146 1914.64L887.03 1913.76L887.914 1912.87L888.797 1911.99L889.681 1911.11L890.565 1910.22L891.448 1909.34L892.332 1908.46L893.216 1907.57L894.099 1906.69L894.983 1905.81L895.867 1904.92L896.75 1904.04L897.634 1903.15L898.518 1902.27L899.401 1901.39L900.285 1900.5L901.169 1899.62L902.053 1898.74L902.936 1897.85L903.82 1896.97L904.704 1896.08L905.587 1895.2L906.471 1894.32L907.355 1893.43L908.238 1892.55L909.122 1891.67L909.122 1891.67L910.006 1890.8L910.889 1889.95L911.773 1889.14L912.657 1888.35L913.54 1887.59L914.424 1886.86L915.308 1886.16L916.192 1885.48L917.075 1884.83L917.959 1884.21L918.843 1883.62L919.726 1883.05L920.61 1882.51L921.494 1882L922.377 1881.52L923.261 1881.06L924.145 1880.63L925.028 1880.23L925.912 1879.86L926.796 1879.52L927.679 1879.2L928.563 1878.91L929.447 1878.65L930.331 1878.41L931.214 1878.2L932.098 1878.02L932.982 1877.87L933.865 1877.75L934.749 1877.65L935.633 1877.58L936.516 1877.54L937.4 1877.53L937.4 1877.53L938.291 1877.53L939.195 1877.53L940.113 1877.53L941.045 1877.53L941.991 1877.53L942.951 1877.53L943.924 1877.53L944.911 1877.53L945.912 1877.53L946.927 1877.53L947.956 1877.53L948.998 1877.53L950.055 1877.53L951.125 1877.53L952.209 1877.53L953.306 1877.53L954.418 1877.53L955.543 1877.53L956.682 1877.53L957.835 1877.53L959.002 1877.53L960.183 1877.53L961.377 1877.53L962.585 1877.53L963.807 1877.53L965.043 1877.53L966.292 1877.53L967.556 1877.53L968.833 1877.53L970.124 1877.53L971.429 1877.53L972.747 1877.53L972.747 1877.53L974.073 1877.53L975.399 1877.53L976.724 1877.53L978.05 1877.53L979.375 1877.53L980.701 1877.53L982.026 1877.53L983.352 1877.53L984.677 1877.53L986.003 1877.53L987.328 1877.53L988.654 1877.53L989.979 1877.53L991.305 1877.53L992.63 1877.53L993.956 1877.53L995.281 1877.53L996.607 1877.53L997.933 1877.53L999.258 1877.53L1000.58 1877.53L1001.91 1877.53L1003.23 1877.53L1004.56 1877.53L1005.89 1877.53L1007.21 1877.53L1008.54 1877.53L1009.86 1877.53L1011.19 1877.53L1012.51 1877.53L1013.84 1877.53L1015.16 1877.53L1015.16 1877.53L1016.45 1877.55L1017.65 1877.61L1018.77 1877.71L1019.8 1877.86L1020.76 1878.05L1021.63 1878.27L1022.41 1878.54L1023.12 1878.85L1023.74 1879.2L1024.28 1879.6L1024.73 1880.03L1025.11 1880.51L1025.4 1881.03L1025.6 1881.59L1025.73 1882.19L1025.77 1882.83L1025.73 1883.51L1025.6 1884.24L1025.4 1885L1025.11 1885.81L1024.73 1886.66L1024.28 1887.55L1023.74 1888.48L1023.12 1889.46L1022.41 1890.47L1021.63 1891.53L1020.76 1892.63L1019.8 1893.77L1018.77 1894.95L1017.65 1896.17L1016.45 1897.43L1015.16 1898.74L1015.16 1898.74L1013.82 1900.08L1012.43 1901.47L1011 1902.9L1009.53 1904.37L1008.02 1905.88L1006.47 1907.43L1004.87 1909.03L1003.23 1910.67L1001.56 1912.34L999.838 1914.06L998.078 1915.82L996.276 1917.62L994.432 1919.47L992.548 1921.35L990.621 1923.28L988.654 1925.25L986.645 1927.26L984.594 1929.31L982.503 1931.4L980.369 1933.53L978.195 1935.71L975.978 1937.92L973.721 1940.18L971.422 1942.48L969.082 1944.82L966.7 1947.2L964.276 1949.62L961.812 1952.09L959.306 1954.59L956.758 1957.14L954.169 1959.73L951.539 1962.36"/>
<path class="l6" d="M2280.6 2047.2L6776.8 2047.2"/>
<path class="l6" d="M103.2 2047.2L470.814 2047.2"/>
<text fill="#000000"  xml:space="preserve" font-size="58.8182" transform="translate(3166.61, 1308.82)" >MN0</text>
<text fill="#000000"  xml:space="preserve" font-size="44.1136" transform="translate(3179.78, 1408.58)" >G</text>
<text fill="#000000"  xml:space="preserve" font-size="58.8182" transform="translate(3440, 1587.76)" >sg13_lv_nmos</text>
<text fill="#000000"  xml:space="preserve" font-size="58.8182" transform="translate(3447.07, 1513.83)" >m=1</text>
<text fill="#000000"  xml:space="preserve" font-size="58.8182" transform="translate(3447.07, 1464.35)" >ng=1</text>
<text fill="#000000"  xml:space="preserve" font-size="58.8182" transform="translate(3447.07, 1393.65)" >l=0.13u</text>
<text fill="#000000"  xml:space="preserve" font-size="58.8182" transform="translate(3447.07, 1330.03)" >w=0.38u</text>
<text fill="#000000"  xml:space="preserve" font-size="44.1136" transform="translate(3397.58, 1564.11)" >S</text>
<text fill="#000000"  xml:space="preserve" font-size="44.1136" transform="translate(3397.58, 1315.56)" >D</text>
<text fill="#000000"  xml:space="preserve" font-size="44.1136" transform="translate(3383.44, 1408.58)" >B</text>
<text fill="#000000"  xml:space="preserve" font-size="58.8182" transform="translate(3684.61, 630.148)" >MP1</text>
<text fill="#000000"  xml:space="preserve" font-size="44.1136" transform="translate(3688.78, 729.908)" >G</text>
<text fill="#000000"  xml:space="preserve" font-size="58.8182" transform="translate(3949, 909.088)" >sg13_lv_pmos</text>
<text fill="#000000"  xml:space="preserve" font-size="58.8182" transform="translate(3956.07, 835.163)" >m=1</text>
<text fill="#000000"  xml:space="preserve" font-size="58.8182" transform="translate(3956.07, 785.677)" >ng=1</text>
<text fill="#000000"  xml:space="preserve" font-size="58.8182" transform="translate(3956.07, 714.982)" >l=0.13u</text>
<text fill="#000000"  xml:space="preserve" font-size="58.8182" transform="translate(3956.07, 651.356)" >w=1u</text>
<text fill="#000000"  xml:space="preserve" font-size="44.1136" transform="translate(3906.59, 885.437)" >D</text>
<text fill="#000000"  xml:space="preserve" font-size="44.1136" transform="translate(3906.59, 636.893)" >S</text>
<text fill="#000000"  xml:space="preserve" font-size="44.1136" transform="translate(3892.45, 729.908)" >B</text>
<text fill="#000000"  xml:space="preserve" font-size="58.8182" transform="translate(4014.95, 1308.82)" >MN1</text>
<text fill="#000000"  xml:space="preserve" font-size="44.1136" transform="translate(4028.12, 1408.58)" >G</text>
<text fill="#000000"  xml:space="preserve" font-size="58.8182" transform="translate(4288.34, 1587.76)" >sg13_lv_nmos</text>
<text fill="#000000"  xml:space="preserve" font-size="58.8182" transform="translate(4295.41, 1513.83)" >m=1</text>
<text fill="#000000"  xml:space="preserve" font-size="58.8182" transform="translate(4295.41, 1464.35)" >ng=1</text>
<text fill="#000000"  xml:space="preserve" font-size="58.8182" transform="translate(4295.41, 1393.65)" >l=0.13u</text>
<text fill="#000000"  xml:space="preserve" font-size="58.8182" transform="translate(4295.41, 1330.03)" >w=0.8u</text>
<text fill="#000000"  xml:space="preserve" font-size="44.1136" transform="translate(4245.92, 1564.11)" >S</text>
<text fill="#000000"  xml:space="preserve" font-size="44.1136" transform="translate(4245.92, 1315.56)" >D</text>
<text fill="#000000"  xml:space="preserve" font-size="44.1136" transform="translate(4231.78, 1408.58)" >B</text>
<text fill="#000000"  xml:space="preserve" font-size="58.8182" transform="translate(2666.61, 630.148)" >MP0</text>
<text fill="#000000"  xml:space="preserve" font-size="44.1136" transform="translate(2670.77, 729.908)" >G</text>
<text fill="#000000"  xml:space="preserve" font-size="58.8182" transform="translate(2931, 909.088)" >sg13_lv_pmos</text>
<text fill="#000000"  xml:space="preserve" font-size="58.8182" transform="translate(2938.07, 835.163)" >m=1</text>
<text fill="#000000"  xml:space="preserve" font-size="58.8182" transform="translate(2938.07, 785.677)" >ng=1</text>
<text fill="#000000"  xml:space="preserve" font-size="58.8182" transform="translate(2938.07, 714.982)" >l=0.13u</text>
<text fill="#000000"  xml:space="preserve" font-size="58.8182" transform="translate(2938.07, 651.356)" >w=0.3u</text>
<text fill="#000000"  xml:space="preserve" font-size="44.1136" transform="translate(2888.58, 885.437)" >D</text>
<text fill="#000000"  xml:space="preserve" font-size="44.1136" transform="translate(2888.58, 636.893)" >S</text>
<text fill="#000000"  xml:space="preserve" font-size="44.1136" transform="translate(2874.44, 729.908)" >B</text>
<text fill="#000000"  xml:space="preserve" font-size="97.05" transform="translate(2145.43, 493.455)" >PTVDD</text>
<text fill="#000000"  xml:space="preserve" font-size="58.8182" transform="translate(2602.27, 427.479)" >1.2</text>
<text fill="#000000"  xml:space="preserve" font-size="97.05" transform="translate(2171.43, 1737.69)" >PTVSS</text>
<text fill="#000000"  xml:space="preserve" font-size="58.8182" transform="translate(2602.27, 1671.71)" >0.0</text>
<text fill="#000000"  xml:space="preserve" font-size="97.05" transform="translate(4740.79, 1180.94)" >OTL</text>
<text fill="#000000"  xml:space="preserve" font-size="58.8182" transform="translate(4430.07, 1217.8)" >10.6m</text>
<text fill="#000000"  xml:space="preserve" font-size="117.636" transform="translate(2337.16, 2182.29)" >x1.         tie_low.sch</text>
<text fill="#000000"  xml:space="preserve" font-size="117.636" transform="translate(2337.16, 2012.62)" >Pascal Gesell</text>
<text fill="#000000"  xml:space="preserve" font-size="117.636" transform="translate(5488.8, 2012.62)" >2026-03-23  10:53:19</text>
<text fill="#000000"  xml:space="preserve" font-size="294.091" transform="translate(1036.37, 2172.84)" >SCHEM</text>
<path class="l1" d="M4231.78 1142.3L4231.78 1255.41"/>
<path class="l1" d="M4231.78 1142.3L4627.67 1142.3"/>
<path class="l1" d="M4231.78 1425.08L4288.34 1425.08"/>
<path class="l1" d="M4288.34 1425.08L4288.34 1707.86"/>
<path class="l1" d="M4231.78 1707.86L4288.34 1707.86"/>
<path class="l1" d="M4231.78 1594.75L4231.78 1707.86"/>
<path class="l1" d="M3892.45 1425.08L4005.56 1425.08"/>
<path class="l1" d="M3892.45 916.076L3892.45 1425.08"/>
<path class="l1" d="M3892.45 746.409L3949 746.409"/>
<path class="l1" d="M3949 463.629L3949 746.409"/>
<path class="l1" d="M3892.45 463.629L3949 463.629"/>
<path class="l1" d="M3892.45 463.629L3892.45 576.741"/>
<path class="l1" d="M3383.44 746.409L3383.44 1255.41"/>
<path class="l1" d="M3383.44 1425.08L3440 1425.08"/>
<path class="l1" d="M3440 1425.08L3440 1707.86"/>
<path class="l1" d="M3383.44 1707.86L3440 1707.86"/>
<path class="l1" d="M3383.44 1594.75L3383.44 1707.86"/>
<path class="l1" d="M3383.44 746.409L3666.22 746.409"/>
<path class="l1" d="M2874.44 1425.08L3157.22 1425.08"/>
<path class="l1" d="M2874.44 1029.19L2874.44 1425.08"/>
<path class="l1" d="M2591.66 1029.19L2874.44 1029.19"/>
<path class="l1" d="M2874.44 916.076L2874.44 1029.19"/>
<path class="l1" d="M2591.66 746.409L2591.66 1029.19"/>
<path class="l1" d="M2591.66 746.409L2648.22 746.409"/>
<path class="l1" d="M2874.44 746.409L2931 746.409"/>
<path class="l1" d="M2931 463.629L2931 746.409"/>
<path class="l1" d="M2874.44 463.629L2931 463.629"/>
<path class="l1" d="M2874.44 463.629L2874.44 576.741"/>
<path class="l1" d="M2931 463.629L3892.45 463.629"/>
<path class="l1" d="M3440 1707.86L4231.78 1707.86"/>
<path class="l1" d="M2591.66 1707.86L3383.44 1707.86"/>
<path class="l1" d="M2591.66 463.629L2874.44 463.629"/>
<circle class="l1" cx="2874.44" cy="463.629" r="20.9257"/>
<circle class="l1" cx="3383.44" cy="1707.86" r="20.9257"/>
<circle class="l1" cx="3440" cy="1707.86" r="20.9257"/>
<circle class="l1" cx="4231.78" cy="1707.86" r="20.9257"/>
<circle class="l1" cx="2931" cy="463.629" r="20.9257"/>
<circle class="l1" cx="3892.45" cy="463.629" r="20.9257"/>
<circle class="l1" cx="2874.44" cy="463.629" r="20.9257"/>
<circle class="l1" cx="2874.44" cy="463.629" r="20.9257"/>
<circle class="l1" cx="2931" cy="463.629" r="20.9257"/>
<circle class="l1" cx="2931" cy="463.629" r="20.9257"/>
<circle class="l1" cx="2874.44" cy="1029.19" r="20.9257"/>
<circle class="l1" cx="2874.44" cy="1029.19" r="20.9257"/>
<circle class="l1" cx="2874.44" cy="1029.19" r="20.9257"/>
<circle class="l1" cx="3383.44" cy="1707.86" r="20.9257"/>
<circle class="l1" cx="3383.44" cy="1707.86" r="20.9257"/>
<circle class="l1" cx="3440" cy="1707.86" r="20.9257"/>
<circle class="l1" cx="3440" cy="1707.86" r="20.9257"/>
<circle class="l1" cx="3892.45" cy="463.629" r="20.9257"/>
<circle class="l1" cx="3892.45" cy="463.629" r="20.9257"/>
<circle class="l1" cx="4231.78" cy="1707.86" r="20.9257"/>
<circle class="l1" cx="4231.78" cy="1707.86" r="20.9257"/>
</svg>
